<?xml version="1.0" encoding="UTF-8" standalone="no"?>
<!DOCTYPE svg PUBLIC "-//W3C//DTD SVG 1.1//EN" "http://www.w3.org/Graphics/SVG/1.1/DTD/svg11.dtd">
<svg width="100%" height="100%" viewBox="0 0 58 64" version="1.1" xmlns="http://www.w3.org/2000/svg" Xlink="http://www.w3.org/1999/xlink" Space="preserve" Serif="http://www.serif.com/" style="fill-rule:evenodd;clip-rule:evenodd;stroke-linecap:round;stroke-linejoin:round;stroke-miterlimit:1.5;">
    <rect id="c-sharp" x="0" y="0" width="57.123" height="64" style="fill:none;"/>
    <clipPath id="_clip1">
        <rect id="c-sharp1" Id="c-sharp" x="0" y="0" width="57.123" height="64"/>
    </clipPath>
    <g clip-path="url(#_clip1)">
        <g>
            <rect x="-3.5" y="0" width="64" height="64" style="fill:white;fill-opacity:0;stroke:rgb(176,68,68);stroke-opacity:0;stroke-width:0.08px;"/>
            <path id="csharp" d="M25.746,63.318C25.052,62.942 19.508,59.768 13.428,56.263C7.348,52.758 1.971,49.504 1.48,49.031C0.989,48.559 0.44,47.681 0.26,47.08C0.033,46.324 -0.066,41.609 -0.062,31.806C-0.056,18.634 -0.017,17.544 0.475,16.477C0.766,15.846 1.316,15.043 1.696,14.694C2.076,14.344 7.81,10.93 14.44,7.107C25.162,0.923 26.66,0.141 27.999,0.025C28.89,-0.051 29.878,0.05 30.418,0.274C30.92,0.482 36.574,3.672 42.982,7.363C49.39,11.054 54.941,14.357 55.317,14.701C55.694,15.046 56.24,15.846 56.532,16.477C57.025,17.545 57.062,18.631 57.062,31.983C57.062,45.335 57.025,46.421 56.532,47.489C56.24,48.121 55.694,48.917 55.317,49.259C54.941,49.6 49.594,52.779 43.435,56.324C37.276,59.868 31.692,63.045 31.027,63.384C30.279,63.765 29.283,64 28.414,64C27.481,64 26.585,63.771 25.746,63.318ZM33.31,50.084C34.216,49.846 35.798,49.242 36.825,48.741C37.852,48.24 39.436,47.232 40.346,46.501C41.255,45.77 42.621,44.351 43.381,43.348C44.14,42.344 44.657,41.423 44.529,41.301C44.401,41.179 42.616,40.106 40.563,38.916L36.83,36.754L35.644,38.109C34.991,38.855 33.809,39.817 33.017,40.248C32.225,40.679 30.892,41.162 30.053,41.321C29.035,41.514 28.014,41.515 26.976,41.323C26.121,41.165 24.864,40.757 24.182,40.416C23.5,40.076 22.428,39.266 21.799,38.618C21.17,37.969 20.381,36.905 20.046,36.253C19.71,35.601 19.296,34.309 19.124,33.382C18.891,32.127 18.899,31.274 19.155,30.048C19.365,29.036 19.927,27.762 20.611,26.746C21.249,25.797 22.34,24.676 23.169,24.118C23.963,23.583 25.291,22.969 26.118,22.754C26.946,22.539 28.034,22.364 28.536,22.364C29.037,22.364 30.316,22.632 31.377,22.96C32.965,23.45 33.617,23.858 35.056,25.257C36.018,26.193 36.83,26.958 36.86,26.958C36.891,26.958 38.678,25.938 40.832,24.692L44.749,22.426L43.374,20.61C42.618,19.611 41.224,18.168 40.276,17.402C39.329,16.636 37.649,15.575 36.543,15.044C35.438,14.513 33.537,13.875 32.32,13.627C31.103,13.378 29.294,13.177 28.3,13.18C27.306,13.183 25.605,13.373 24.52,13.603C23.435,13.833 21.439,14.557 20.086,15.213C18.125,16.161 17.148,16.88 15.287,18.741C13.458,20.57 12.688,21.609 11.748,23.516C11.087,24.856 10.357,26.858 10.126,27.963C9.895,29.069 9.703,30.852 9.7,31.926C9.697,33.001 9.9,34.81 10.15,35.947C10.4,37.083 11.112,39.056 11.733,40.33C12.354,41.604 13.519,43.383 14.321,44.283C15.124,45.183 16.616,46.516 17.636,47.244C18.657,47.973 20.448,48.94 21.616,49.393C22.784,49.847 24.424,50.34 25.26,50.49C26.096,50.64 27.879,50.707 29.221,50.639C30.564,50.571 32.404,50.321 33.31,50.084L33.31,50.084ZM47.024,35.716C47.024,35.054 47.127,34.998 48.35,34.998C49.609,34.998 49.669,35.034 49.538,35.716C49.418,36.347 49.501,36.434 50.223,36.434C50.908,36.434 51.044,36.315 51.044,35.716C51.044,35.11 51.178,34.998 51.906,34.998C52.671,34.998 52.767,34.903 52.767,34.137C52.767,33.371 52.671,33.275 51.906,33.275C51.076,33.275 51.044,33.228 51.044,31.983C51.044,30.739 51.076,30.691 51.906,30.691C52.633,30.691 52.767,30.579 52.767,29.973C52.767,29.367 52.633,29.255 51.906,29.255C51.14,29.255 51.044,29.16 51.044,28.394C51.044,27.643 50.942,27.532 50.243,27.532C49.558,27.532 49.444,27.647 49.454,28.322C49.464,29.048 49.366,29.119 48.245,29.2C47.056,29.286 47.024,29.266 47.024,28.41C47.024,27.626 46.932,27.532 46.163,27.532C45.397,27.532 45.301,27.628 45.301,28.394C45.301,29.121 45.19,29.255 44.583,29.255C44.009,29.255 43.866,29.399 43.866,29.973C43.866,30.547 44.009,30.691 44.583,30.691C45.243,30.691 45.301,30.796 45.301,31.983C45.301,33.17 45.243,33.275 44.583,33.275C43.977,33.275 43.866,33.409 43.866,34.137C43.866,34.864 43.977,34.998 44.583,34.998C45.158,34.998 45.301,35.142 45.301,35.716C45.301,36.322 45.435,36.434 46.163,36.434C46.89,36.434 47.024,36.322 47.024,35.716ZM47.024,31.967L47.024,30.658L48.245,30.746C49.459,30.834 49.465,30.841 49.553,32.055L49.642,33.275L47.024,33.275L47.024,31.967Z" style="fill:white;fill-rule:nonzero;"/>
        </g>
    </g>
</svg>
