<?xml version="1.0" encoding="UTF-8" standalone="no"?><!DOCTYPE svg PUBLIC "-//W3C//DTD SVG 1.1//EN" "http://www.w3.org/Graphics/SVG/1.1/DTD/svg11.dtd"><svg width="100%" height="100%" viewBox="0 0 128 144" version="1.1" xmlns="http://www.w3.org/2000/svg" Xlink="http://www.w3.org/1999/xlink" Space="preserve" Serif="http://www.serif.com/" style="fill-rule:evenodd;clip-rule:evenodd;stroke-linejoin:round;stroke-miterlimit:2;"><rect id="c-sharp" x="0" y="0" width="128" height="143.409" style="fill:none;"/><clipPath id="_clip1"><rect id="c-sharp1" Id="c-sharp" x="0" y="0" width="128" height="143.409"/></clipPath><g clip-path="url(#_clip1)"><path id="csharp" d="M57.991,142.04c-1.557,-0.842 -13.978,-7.955 -27.603,-15.809c-13.624,-7.853 -25.672,-15.145 -26.772,-16.204c-1.101,-1.058 -2.331,-3.026 -2.735,-4.373c-0.507,-1.693 -0.729,-12.257 -0.72,-34.224c0.012,-29.516 0.099,-31.958 1.202,-34.349c0.654,-1.415 1.885,-3.214 2.736,-3.996c0.851,-0.783 13.702,-8.433 28.557,-17c24.024,-13.856 27.381,-15.609 30.383,-15.868c1.996,-0.173 4.211,0.055 5.42,0.556c1.125,0.466 13.794,7.614 28.154,15.885c14.359,8.271 26.797,15.671 27.64,16.444c0.843,0.773 2.067,2.564 2.72,3.979c1.105,2.394 1.188,4.826 1.188,34.746c0,29.919 -0.083,32.351 -1.188,34.745c-0.653,1.415 -1.877,3.199 -2.72,3.965c-0.843,0.765 -12.825,7.889 -26.626,15.831c-13.802,7.942 -26.313,15.061 -27.803,15.82c-1.676,0.854 -3.908,1.381 -5.856,1.381c-2.09,-0 -4.097,-0.514 -5.977,-1.529Zm16.948,-29.655c2.031,-0.532 5.576,-1.886 7.877,-3.008c2.301,-1.122 5.851,-3.38 7.889,-5.018c2.037,-1.639 5.098,-4.819 6.8,-7.068c1.703,-2.248 2.861,-4.312 2.574,-4.586c-0.287,-0.274 -4.286,-2.678 -8.887,-5.343l-8.364,-4.845l-2.659,3.037c-1.463,1.67 -4.111,3.827 -5.886,4.793c-1.774,0.965 -4.763,2.047 -6.641,2.403c-2.283,0.433 -4.569,0.435 -6.896,0.004c-1.915,-0.353 -4.732,-1.268 -6.26,-2.031c-1.528,-0.763 -3.931,-2.576 -5.341,-4.03c-1.41,-1.453 -3.177,-3.837 -3.928,-5.299c-0.751,-1.461 -1.681,-4.357 -2.066,-6.434c-0.521,-2.811 -0.503,-4.722 0.069,-7.47c0.472,-2.267 1.731,-5.123 3.263,-7.399c1.431,-2.126 3.875,-4.637 5.732,-5.888c1.78,-1.2 4.755,-2.576 6.61,-3.057c1.855,-0.481 4.292,-0.874 5.416,-0.874c1.124,-0 3.99,0.601 6.368,1.335c3.557,1.099 5.019,2.012 8.243,5.147c2.156,2.097 3.976,3.812 4.043,3.812c0.068,0 4.073,-2.284 8.9,-5.077l8.777,-5.077l-3.081,-4.07c-1.695,-2.238 -4.818,-5.473 -6.942,-7.189c-2.123,-1.716 -5.887,-4.093 -8.364,-5.283c-2.478,-1.19 -6.736,-2.619 -9.464,-3.176c-2.727,-0.557 -6.781,-1.007 -9.008,-1.001c-2.226,0.008 -6.038,0.433 -8.47,0.948c-2.431,0.515 -6.903,2.138 -9.937,3.606c-4.392,2.126 -6.582,3.737 -10.753,7.908c-4.097,4.097 -5.823,6.426 -7.929,10.698c-1.481,3.004 -3.117,7.488 -3.635,9.965c-0.518,2.478 -0.947,6.474 -0.954,8.881c-0.007,2.408 0.448,6.461 1.008,9.008c0.56,2.547 2.156,6.967 3.548,9.822c1.391,2.854 4.001,6.841 5.799,8.858c1.799,2.018 5.141,5.004 7.428,6.636c2.287,1.632 6.3,3.799 8.917,4.816c2.618,1.016 6.292,2.122 8.166,2.457c1.874,0.335 5.868,0.485 8.876,0.333c3.008,-0.152 7.131,-0.712 9.162,-1.244l-0,0Zm30.73,-32.194c0,-1.483 0.231,-1.608 2.971,-1.608c2.821,-0 2.955,0.08 2.663,1.608c-0.27,1.413 -0.084,1.609 1.533,1.609c1.535,-0 1.841,-0.268 1.841,-1.609c0,-1.358 0.301,-1.608 1.931,-1.608c1.716,-0 1.93,-0.215 1.93,-1.931c0,-1.716 -0.214,-1.93 -1.93,-1.93c-1.859,-0 -1.931,-0.107 -1.931,-2.895c0,-2.789 0.072,-2.896 1.931,-2.896c1.63,0 1.93,-0.25 1.93,-1.609c0,-1.358 -0.3,-1.608 -1.93,-1.608c-1.716,-0 -1.931,-0.214 -1.931,-1.93c0,-1.684 -0.229,-1.931 -1.794,-1.931c-1.535,0 -1.791,0.256 -1.77,1.77c0.023,1.626 -0.196,1.785 -2.709,1.967c-2.664,0.193 -2.735,0.147 -2.735,-1.769c0,-1.757 -0.206,-1.968 -1.93,-1.968c-1.716,0 -1.93,0.215 -1.93,1.931c-0,1.63 -0.25,1.93 -1.609,1.93c-1.287,-0 -1.608,0.322 -1.608,1.608c-0,1.287 0.321,1.609 1.608,1.609c1.478,0 1.609,0.236 1.609,2.896c-0,2.659 -0.131,2.895 -1.609,2.895c-1.358,-0 -1.608,0.3 -1.608,1.93c-0,1.63 0.25,1.931 1.608,1.931c1.287,-0 1.609,0.321 1.609,1.608c-0,1.358 0.3,1.609 1.93,1.609c1.63,-0 1.93,-0.251 1.93,-1.609Zm0,-8.401l0,-2.933l2.735,0.198c2.721,0.197 2.736,0.211 2.932,2.933l0.198,2.734l-5.864,0l-0.001,-2.932Z" style="fill:#fff;fill-rule:nonzero;"/></g></svg>