<?xml version="1.0" encoding="UTF-8"?><svg id="a" xmlns="http://www.w3.org/2000/svg" viewBox="0 0 131.73 131.77"><defs><style>.c{fill:#fff;fill-rule:evenodd;}</style></defs><path id="b" class="c" d="M63.36,.04c30.61-1.13,58.19,19.24,66.13,48.83,9.37,34.92-11.64,71.34-46.54,80.68C48.05,138.89,11.61,117.84,2.23,82.92-7.14,47.99,13.87,11.57,48.78,2.24,53.54,.96,58.43,.23,63.36,.04h0Zm-25.51,25.74c-2.47,3.77-2.2,9.89-1.07,14.42-5.71,6.38-6.48,15.57-4.5,23.58,1.72,9.83,10.96,16.36,20.47,17.49,4.13,.23,2.89,.48,1.64,2.43-.69,1.09-1.17,2.97-1.26,5.03-4.77,3.81-13.19,2.09-16.09-3.57-.81-3.8-11.29-8.67-10.27-3.69,6.67,3.16,6.66,12.18,13.21,15.31,3.16,3.62,11.44-.67,12.9,2.12,0,0,.37,11.86,.88,13.24,2.84,7.81,23.37,8.03,25.14,.08,.42-1.88,2.25-25.32-2.51-30.35,9.16-.88,19.4-4.84,22.85-14.12,3.17-8.91,3.57-20.2-3.39-27.51,1.54-4.64,1.07-9.88-.59-14.45-5.47-.09-10.46,2.73-14.91,5.64-9.02-2.55-18.76-2.48-27.8-.05-4.49-2.68-9.28-5.64-14.69-5.59h0Z"/></svg>