<svg xmlns="http://www.w3.org/2000/svg" width="305.75" height="302.36" version="1.1" viewBox="0 0 80.896 80">
 <g transform="translate(-197.43 -204.26)">
  <path transform="translate(-90.459 112.1)" d="m319.83 172.16-0.0204-11.076c-0.99918-1.9167-6.6618 1.0256-8.8203-1.4551-4.4768-2.1391-4.4695-8.3175-9.0293-10.482-0.69878-3.4104 6.4676-0.0747 7.0195 2.5273 1.9802 3.8743 7.7336 5.0559 10.998 2.4453 0.0593-1.4116 0.38646-2.7016 0.86133-3.4453 0.85437-1.338 1.7004-1.5039-1.125-1.6641-6.4994-0.77541-12.821-5.2476-13.994-11.98-1.3546-5.4866-0.82885-11.78 3.0781-16.15-0.77464-3.1024-0.95548-7.298 0.73243-9.8789 3.6976-0.0324 6.973 1.992 10.045 3.8281 6.1809-1.6668 12.838-1.7103 19.008 0.0332 3.0436-1.9928 6.4535-3.9216 10.195-3.8613 1.1305 3.1308 1.456 6.7227 0.40235 9.9024 4.7559 5.0039 4.4863 12.739 2.3164 18.84-2.3548 6.3579-9.3591 9.0695-15.619 9.6738 1.8986 2.0934 2.3008 13.245 2.2961 22.437 17.586-4.393 30.612-20.297 30.612-39.243 0-22.339-18.109-40.449-40.447-40.449s-40.449 18.111-40.449 40.449c0 19.42 13.687 35.643 31.94 39.551z" fill="#fff" style="paint-order:fill markers stroke"/>
 </g>
</svg>
