<svg width="304.74" height="294.73" version="1.1" viewBox="0 0 80.629 77.981" xmlns="http://www.w3.org/2000/svg">
 <g transform="translate(-161.82 -128.39)" fill="#fff">
  <path d="m202.01 128.39c-11.234-0.0377-22.488 4.6134-29.908 13.134-10.694 11.478-13.31 30.585-6.5846 44.691 4.6454 9.8824 13.608 17.085 24.16 20.156l1.2201-0.21549c2.0704-1.8731 0.86052-5.2551 1.1658-7.8528-1.0624-2.038-7.0837 1.09-9.3788-1.5477-4.7602-2.2745-4.753-8.8446-9.6015-11.147-0.74302-3.6263 6.8783-0.0785 7.4652 2.6882 2.1055 4.1196 8.2222 5.3752 11.693 2.5993-0.14317-2.619 4.7352-5.8325-0.27957-5.4333-6.9109-0.82449-13.633-5.5802-14.88-12.739-1.4404-5.834-0.88165-12.524 3.2727-17.171-0.82368-3.2988-1.016-7.7605 0.77877-10.505 3.9317-0.0344 7.4146 2.1177 10.681 4.07 6.5722-1.7722 13.65-1.8181 20.21 0.0357 3.2364-2.119 6.863-4.1697 10.842-4.1057 1.202 3.329 1.5477 7.1471 0.42736 10.528 5.057 5.3207 4.7707 13.547 2.4634 20.034-2.5039 6.7604-9.9514 9.6436-16.608 10.286 3.5381 3.9011 2.1632 9.4388 2.5528 14.217-0.1965 4.2303 0.99354 7.2574 5.9428 5.0033 15.341-6.4064 26.141-22.854 24.676-39.432-0.93542-16.266-13.534-31.31-29.226-35.663-3.5974-1.085-7.3395-1.6183-11.084-1.6309z" fill="#fff" stroke-linecap="round" stroke-linejoin="bevel" stroke-opacity=".99608" stroke-width="2.682" style="paint-order:fill markers stroke"/>
 </g>
</svg>
