<?xml version="1.0" encoding="UTF-8" standalone="no"?><!DOCTYPE svg PUBLIC "-//W3C//DTD SVG 1.1//EN" "http://www.w3.org/Graphics/SVG/1.1/DTD/svg11.dtd"><svg width="100%" height="100%" viewBox="0 0 128 124" version="1.1" xmlns="http://www.w3.org/2000/svg" xmlnsXlink="http://www.w3.org/1999/xlink" xmlSpace="preserve" xmlnsSerif="http://www.serif.com/" style="fill-ruleEvenodd;clip-ruleEvenodd;stroke-linejoinRound;stroke-miterlimit2;"><rect id="github" x="0" y="0" width="128" height="123.799" style="fillNone;"/><clipPath id="_clip1"><rect id="github1" serifId="github" x="0" y="0" width="128" height="123.799"/></clipPath><g clip-path="url(#_clip1)"><path id="gihub" d="M64.101,0.178c-17.834,-0.06 -35.7,7.324 -47.48,20.85c-16.976,18.222 -21.13,48.555 -10.453,70.947c7.375,15.689 21.602,27.123 38.354,31.999l1.937,-0.342c3.287,-2.973 1.366,-8.342 1.851,-12.466c-1.687,-3.235 -11.246,1.73 -14.889,-2.457c-7.557,-3.611 -7.546,-14.041 -15.243,-17.695c-1.179,-5.757 10.92,-0.125 11.851,4.267c3.343,6.54 13.053,8.533 18.564,4.127c-0.228,-4.158 7.517,-9.26 -0.444,-8.626c-10.971,-1.309 -21.643,-8.858 -23.623,-20.224c-2.286,-9.261 -1.399,-19.881 5.196,-27.259c-1.308,-5.237 -1.613,-12.32 1.236,-16.676c6.242,-0.053 11.771,3.361 16.956,6.461c10.434,-2.814 21.67,-2.886 32.084,0.053c5.138,-3.364 10.895,-6.62 17.212,-6.518c1.908,5.285 2.457,11.346 0.678,16.713c8.029,8.447 7.574,21.506 3.911,31.804c-3.975,10.733 -15.798,15.31 -26.365,16.33c5.617,6.193 3.434,14.984 4.053,22.57c-0.313,6.716 1.577,11.521 9.434,7.943c24.355,-10.17 41.5,-36.281 39.174,-62.599c-1.485,-25.822 -21.486,-49.705 -46.397,-56.616c-5.711,-1.722 -11.652,-2.569 -17.596,-2.589l-0.001,0.003Z" style="fill:#fff;fill-ruleNonzero;"/></g></svg>