<?xml version="1.0" encoding="UTF-8" standalone="no"?><!DOCTYPE svg PUBLIC "-//W3C//DTD SVG 1.1//EN" "http://www.w3.org/Graphics/SVG/1.1/DTD/svg11.dtd"><svg width="100%" height="100%" viewBox="0 0 128 128" version="1.1" xmlns="http://www.w3.org/2000/svg" xmlnsXlink="http://www.w3.org/1999/xlink" xmlSpace="preserve" xmlnsSerif="http://www.serif.com/" style="fill-rule:evenodd;clip-rule:evenodd;stroke-linejoin:round;stroke-miterlimit:2;"><rect id="github" x="0" y="0" width="128" height="128" style="fill:none;"/><clipPath id="_clip1"><rect id="github1" serifId="github" x="0" y="0" width="128" height="128"/></clipPath><g clip-path="url(#_clip1)"><path d="M61.55,0.043c29.733,-1.095 56.522,18.685 64.24,47.435c9.106,33.923 -11.302,69.301 -45.21,78.37c-33.908,9.069 -69.303,-11.383 -78.41,-45.306c-9.106,-33.924 11.302,-69.302 45.21,-78.371c4.628,-1.237 9.381,-1.951 14.17,-2.128Zm-24.775,24.999c-2.398,3.66 -2.141,9.61 -1.041,14.01c-5.551,6.198 -6.298,15.121 -4.373,22.902c1.666,9.549 10.649,15.892 19.883,16.992c4.014,0.227 2.811,0.462 1.597,2.359c-0.674,1.055 -1.139,2.885 -1.223,4.887c-4.638,3.702 -12.812,2.028 -15.625,-3.467c-0.784,-3.69 -10.968,-8.422 -9.975,-3.585c6.479,3.07 6.469,11.833 12.83,14.867c3.066,3.518 11.112,-0.654 12.531,2.064c0,-0 0.364,11.524 0.85,12.861c2.756,7.585 22.704,7.803 24.419,0.073c0.405,-1.822 2.182,-24.597 -2.439,-29.482c8.895,-0.857 18.845,-4.702 22.191,-13.719c3.083,-8.652 3.466,-19.624 -3.291,-26.721c1.497,-4.509 1.035,-9.601 -0.571,-14.041c-5.317,-0.086 -10.163,2.649 -14.487,5.476c-8.765,-2.473 -18.223,-2.411 -27.004,-0.048c-4.365,-2.604 -9.019,-5.474 -14.272,-5.428Z" style="fill:#282a30;"/></g></svg>