<?xml version="1.0" encoding="utf-8"?>
<!-- Generator: Adobe Illustrator 26.1.0, SVG Export Plug-In . SVG Version: 6.00 Build 0)  -->
<svg version="1.1" id="Document" xmlns:serif="http://www.serif.com/"
	 xmlns="http://www.w3.org/2000/svg" xmlns:xlink="http://www.w3.org/1999/xlink" x="0px" y="0px" viewBox="0 0 108.7 108.7"
	 style="enable-background:new 0 0 108.7 108.7;" xml:space="preserve">
<style type="text/css">
	.Graphic_x0020_Style{fill:#282A30;}
	.st0{fill:#FFFFFF;}
	.st1{fill:#FFFFFF;stroke:#FFFFFF;stroke-width:2.472;stroke-linecap:round;stroke-linejoin:round;stroke-miterlimit:3.2;}
	.st2{fill:#FFFFFF;stroke:#FFFFFF;stroke-width:2.168;stroke-linecap:round;stroke-linejoin:round;stroke-miterlimit:3.2;}
	.st3{fill:#FFFFFF;stroke:#FFFFFF;stroke-width:2.592;stroke-linecap:round;stroke-linejoin:round;stroke-miterlimit:3.2;}
	.st4{fill:#FFFFFF;stroke:#FFFFFF;stroke-width:2.48;stroke-linecap:round;stroke-linejoin:round;stroke-miterlimit:3.2;}
	.st5{fill:#FFFFFF;stroke:#FFFFFF;stroke-width:2.352;stroke-linecap:round;stroke-linejoin:round;stroke-miterlimit:3.2;}
	.st6{display:none;}
	.st7{fill-rule:evenodd;clip-rule:evenodd;fill:#322F39;}
	.st8{fill-rule:evenodd;clip-rule:evenodd;fill:#FFFFFF;}
</style>
<g id="language-icons" serif:id="language icons">
	<g>
		<path id="path1298" class="st0" d="M242.8,371.3c-2.4-0.8-5-2.6-6.5-4.7c-0.6-0.8-1.1-1.6-1.1-1.7c0-0.1,5.8-3.5,5.8-3.5l0.7,0.9
			c1.2,1.5,2.1,2.3,3.2,2.8c0.6,0.3,2,0.7,3.1,0.7c1.3,0,2.4-0.3,2.9-0.6c1.2-0.6,1.9-1.8,1.9-3.1c-0.2-1.3-0.3-1.7-1-2.3
			c-0.6-0.5-2.7-1.7-4.8-2.6c-2.1-0.9-4.5-2.2-5.3-2.8c-2.4-1.8-3.7-3.8-4.2-6c-0.7-3.3,0.1-6.4,2.2-8.9c1.3-1.5,4.2-2.8,6.9-3
			c9.1-0.7,11.7,5.9,11.7,5.9s-4.8,2.8-5.6,3.1c0,0-1.3-3-4.7-2.7c-1.5,0.1-3.6,0.3-3.7,3.3c0,0.7,0.6,1.6,1,2
			c0.4,0.4,2,1.8,4.2,2.7c5.8,2.6,7.5,4.4,8.6,6c1.6,2.1,2.5,5,1.5,8.6c-0.6,2.2-2.7,4.4-5.1,5.6c-1.7,0.8-2.6,1.2-6.1,1.3
			C245.3,372.2,242.8,371.3,242.8,371.3z"/>
		<path id="path1294" class="st0" d="M211.9,368.6c-0.8-0.8-2.3-3.5-2.3-3.5l5.6-3.5c0,0,1.8,3.9,4.9,3.9c1.9,0,4.1-0.5,4.2-3.9
			l-0.2-11.9v-13.4h7.4l-0.1,13.9c-0.1,9.4-0.3,14.7-1.1,16.2c-1.7,3.4-4.1,4.8-5.7,5.2C222.7,372.1,216.8,373.5,211.9,368.6
			L211.9,368.6z"/>
	</g>
	<g id="java1" serif:id="java">
		<path id="path5724" class="st0" d="M411.3,367.9c0.4-0.2,0.1-0.4-0.9-0.4c-1,0-2.6,0.1-3.8,0.5c-1.2,0.4-1.9,1.2-2.5,2
			c-0.5,0.8-0.9,1.8,0.4,3c1.3,1.3,4.2,2.9,9.5,3.5c5.3,0.6,12.3,0.2,17.8-0.6c5.5-0.8,8.8-2,10.7-2.9c1.9-0.9,2.4-1.5,2.5-2
			c0.1-0.4,0-0.8-0.3-1.2c-0.3-0.4-0.7-0.4-0.9-0.3c-0.2,0,0,0.2-0.1,0.6c-0.1,0.3-0.4,0.8-1.7,1.3c-1.3,0.5-3.6,1.2-7,1.6
			c-3.4,0.5-7.8,0.8-11.8,0.8c-4.1-0.1-7.8-0.6-10.5-1.2c-2.7-0.6-4.2-1.3-4.7-2.1c-0.5-0.7,0.1-1.5,0.9-1.9
			C409.9,368.2,410.9,368.1,411.3,367.9L411.3,367.9z"/>
		<path id="path5700" class="st0" d="M425.9,327.9c-0.4,0.3,1,2.3,1,4.9c0,1.9-1.8,3.1-3.5,4.4c-1,0.8-1.9,1.7-3,3.3
			c-1.1,1.6-1.6,3.8-0.7,5.7c1,1.9,4.3,5.7,5.3,6c1,0.3-0.7-1.9-1.5-3.5c-0.5-1-0.8-2.3-0.7-3.3c0.2-1.4,0.7-2.3,1.8-3.4
			c1.1-1,2.9-2.7,3.9-4c0.9-1.2,1.8-3.4,1.3-4.8c-0.5-1.3-0.6-1.6-1.4-2.6C427.4,329.5,425.9,327.9,425.9,327.9z"/>
		<path id="path5704" class="st0" d="M434.1,339.5c-0.1-0.3-2.9,0.5-3.9,1.1c-1.1,0.6-2.8,1.7-3.6,3.1c-0.8,1.4-0.7,2.6-0.4,3.7
			c0.3,1.2,1.5,1.7,1.9,2.3c0.4,0.6,0.5,1.1,0.3,1.8c-0.1,0.7-1.5,1.9-0.9,1.8c0.5-0.1,2.2-1.2,3-2.2c0.7-1.1,0.8-2.2,0.6-3.3
			c-0.3-1.1-1.4-1.5-1.6-2.4c-0.2-0.9-0.2-1.3,0.3-2.1c0.2-0.3,0.8-1.1,1.5-1.6C432.4,340.6,434.2,339.7,434.1,339.5z"/>
		<path id="path5708" class="st0" d="M413,352c0.5-0.4,1.1-0.6,1.8-0.7c0.7-0.1,1.6,0,1.5,0.2c-0.1,0.2-1.1,0.6-1.4,1.2
			c-0.2,0.6,0.3,1.4,2.2,1.9c1.8,0.5,5,0.8,7.6,0.8c2.6,0,4.7-0.3,6.6-0.6c1.9-0.3,3.5-0.8,4.8-1.2c1.3-0.4,2.3-0.8,2.3-0.4
			s-0.7,1.5-1.1,2.2c-0.4,0.7-0.5,0.8-0.8,0.9c-0.2,0.1-0.6,0.3-1.2,0.6c-0.7,0.3-1.6,0.8-3.7,1.3c-2.1,0.5-5.3,0.9-8.4,0.9
			c-3.1,0-6-0.4-8-1.1c-2-0.7-3-1.8-3.4-2.6c-0.4-0.9-0.3-1.5,0-2.1C412.1,352.9,412.5,352.4,413,352L413,352z"/>
		<path id="path5712" class="st0" d="M415.8,359.2c-0.3,0.1-1,0.3-1.5,1c-0.5,0.7-0.7,1.8,0.1,2.7c0.8,0.9,2.6,1.6,4.5,2
			c1.9,0.4,3.8,0.7,6.1,0.6c2.3-0.1,5-0.5,6.8-1c1.9-0.5,2.9-1.1,3.6-1.6c0.8-0.4,1.3-0.6,1.5-0.8c0.2-0.2,0.1-0.4-0.2-0.7
			c-0.3-0.3-0.8-0.8-1.1-1.1s-0.4-0.5-0.6-0.5c-0.2,0-0.3,0.2-0.8,0.4c-0.5,0.2-1.2,0.5-2.9,0.9c-1.7,0.4-4.5,1-7,1
			c-2.5,0.1-4.8-0.4-6.1-0.8c-1.3-0.4-1.8-0.8-2-1.2c-0.2-0.4-0.2-0.7-0.2-0.8C416.1,359.1,416.1,359.1,415.8,359.2L415.8,359.2z"/>
		<path id="path5716" class="st0" d="M424.5,368c2.3,0,4.8-0.4,6.5-0.8c1.7-0.4,2.6-0.9,3-1c0.5-0.2,0.6,0,0.9,0.4
			c0.3,0.4,0.9,1.1,1.2,1.4c0.3,0.4,0.4,0.5-0.3,0.8c-0.7,0.3-2.3,1-4.7,1.5c-2.5,0.5-5.8,0.9-8.5,0.8c-2.7-0.1-4.8-0.9-5.9-1.6
			c-1.1-0.8-1.2-1.5-1.2-2.1c0-0.6,0.2-1,0.4-1.4c0.2-0.3,0.5-0.6,0.7-0.6c0.1,0,0.1,0.3,0.4,0.6c0.3,0.4,0.8,0.9,2,1.4
			C420.2,367.7,422.2,368,424.5,368z"/>
		<path id="path5720" class="st0" d="M442.1,351.7c-0.1-0.2,0.2-0.9,0.9-1.5c0.7-0.6,1.8-1,3-1c1.2,0,2.5,0.5,3.4,1.3
			c0.9,0.8,1.2,1.8,1.2,3.2c0,1.4-0.5,3.2-2.3,5c-1.9,1.8-5.1,3.5-6.7,4c-1.5,0.5-1.3-0.2-0.3-1.2c1-0.9,2.9-2,4-3.6
			c1.2-1.6,1.7-3.7,1.2-4.9c-0.5-1.2-1.9-1.5-2.8-1.4C442.7,351.6,442.2,351.9,442.1,351.7L442.1,351.7z"/>
		<path id="path12240" class="st0" d="M420.9,378.8c-1.4-0.1-6.4-0.5-6.4-0.9c0-0.3,0.5,0,4,0c3.5,0,9.9-0.3,13.3-0.8
			c3.4-0.4,6.1-1,9.4-1.9c5.8-1.7,6.5-3.7,6.9-3.7c0.4,0,0.3,2.9-3.7,4.5c-3.8,1.5-10.1,2.5-12.7,2.7
			C429,378.9,423.8,378.9,420.9,378.8z"/>
	</g>
	<g id="python1" serif:id="python">
		<path id="python-bottom-snake" class="st0" d="M183.3,367.1h-12.7v-1.9c0,0,5.2,0,10.7,0c4.2,0,8.5,0.2,10.7-1.3
			c5.6-3.7,5.8-16.8,1-21.2c-2.3-2.1-5.5-1.7-8.3-1.7c0,4.3,0.5,9.6-4,11.9c-6.8,3.5-22-3.9-22,8.2v9.9c0,1.8,0.9,3.4,2.1,4.5
			c4.4,4.1,17.6,4.6,21.4-0.6C183.8,372.8,183.3,369.6,183.3,367.1 M178.4,373.9c-2.3,0.7-3.4-3-1-3.5
			C179.4,370.1,180.5,373.3,178.4,373.9"/>
		<path id="python-top-snake" class="st0" d="M158.3,338.9H171v1.9c0,0-5.2,0-10.7,0c-4.2,0-8.5-0.2-10.7,1.3
			c-5.6,3.7-5.8,16.8-1,21.2c2.3,2.1,5.5,1.7,8.3,1.7c0-4.3-0.5-9.6,4-11.9c6.8-3.5,22,3.9,22-8.2v-9.9c0-1.8-0.9-3.4-2.1-4.5
			c-4.4-4.1-17.6-4.6-21.4,0.6C157.8,333.2,158.3,336.4,158.3,338.9 M163.1,332.1c2.3-0.7,3.4,3,1,3.5
			C162.2,335.9,161.1,332.7,163.1,332.1"/>
	</g>
	<path id="csharp" class="st0" d="M296.7,379c-0.6-0.3-5-2.8-9.9-5.6c-4.9-2.8-9.2-5.4-9.6-5.8c-0.4-0.4-0.8-1.1-1-1.6
		c-0.2-0.6-0.3-4.4-0.3-12.2c0-10.5,0-11.4,0.4-12.3c0.2-0.5,0.7-1.1,1-1.4c0.3-0.3,4.9-3,10.2-6.1c8.6-4.9,9.8-5.6,10.8-5.7
		c0.7-0.1,1.5,0,1.9,0.2c0.4,0.2,4.9,2.7,10.1,5.7c5.1,3,9.6,5.6,9.9,5.9c0.3,0.3,0.7,0.9,1,1.4c0.4,0.9,0.4,1.7,0.4,12.4
		c0,10.7,0,11.5-0.4,12.4c-0.2,0.5-0.7,1.1-1,1.4c-0.3,0.3-4.6,2.8-9.5,5.7c-4.9,2.8-9.4,5.4-9.9,5.6c-0.6,0.3-1.4,0.5-2.1,0.5
		C298.1,379.5,297.4,379.4,296.7,379z M302.8,368.4c0.7-0.2,2-0.7,2.8-1.1c0.8-0.4,2.1-1.2,2.8-1.8c0.7-0.6,1.8-1.7,2.4-2.5
		c0.6-0.8,1-1.5,0.9-1.6c-0.1-0.1-1.5-1-3.2-1.9l-3-1.7l-0.9,1.1c-0.5,0.6-1.5,1.4-2.1,1.7c-0.6,0.3-1.7,0.7-2.4,0.9
		c-0.8,0.2-1.6,0.2-2.5,0c-0.7-0.1-1.7-0.5-2.2-0.7c-0.5-0.3-1.4-0.9-1.9-1.4c-0.5-0.5-1.1-1.4-1.4-1.9c-0.3-0.5-0.6-1.6-0.7-2.3
		c-0.2-1-0.2-1.7,0-2.7c0.2-0.8,0.6-1.8,1.2-2.6c0.5-0.8,1.4-1.7,2-2.1c0.6-0.4,1.7-0.9,2.4-1.1c0.7-0.2,1.5-0.3,1.9-0.3
		c0.4,0,1.4,0.2,2.3,0.5c1.3,0.4,1.8,0.7,2.9,1.8c0.8,0.7,1.4,1.4,1.4,1.4s1.5-0.8,3.2-1.8l3.1-1.8l-1.1-1.5c-0.6-0.8-1.7-2-2.5-2.6
		c-0.8-0.6-2.1-1.5-3-1.9c-0.9-0.4-2.4-0.9-3.4-1.1c-1-0.2-2.4-0.4-3.2-0.4c-0.8,0-2.2,0.2-3,0.3c-0.9,0.2-2.5,0.8-3.5,1.3
		c-1.6,0.8-2.3,1.3-3.8,2.8c-1.5,1.5-2.1,2.3-2.8,3.8c-0.5,1.1-1.1,2.7-1.3,3.6c-0.2,0.9-0.3,2.3-0.3,3.2c0,0.9,0.2,2.3,0.4,3.2
		c0.2,0.9,0.8,2.5,1.3,3.5c0.5,1,1.4,2.4,2.1,3.2c0.6,0.7,1.8,1.8,2.7,2.4c0.8,0.6,2.2,1.4,3.2,1.7c0.9,0.4,2.2,0.8,2.9,0.9
		c0.7,0.1,2.1,0.2,3.2,0.1C300.6,368.8,302.1,368.6,302.8,368.4L302.8,368.4z M313.8,356.9c0-0.5,0.1-0.6,1.1-0.6c1,0,1.1,0,1,0.6
		c-0.1,0.5,0,0.6,0.5,0.6c0.5,0,0.7-0.1,0.7-0.6c0-0.5,0.1-0.6,0.7-0.6c0.6,0,0.7-0.1,0.7-0.7s-0.1-0.7-0.7-0.7c-0.7,0-0.7,0-0.7-1
		c0-1,0-1,0.7-1c0.6,0,0.7-0.1,0.7-0.6c0-0.5-0.1-0.6-0.7-0.6c-0.6,0-0.7-0.1-0.7-0.7c0-0.6-0.1-0.7-0.6-0.7c-0.5,0-0.6,0.1-0.6,0.6
		c0,0.6-0.1,0.6-1,0.7c-1,0.1-1,0.1-1-0.6c0-0.6-0.1-0.7-0.7-0.7c-0.6,0-0.7,0.1-0.7,0.7c0,0.6-0.1,0.7-0.6,0.7
		c-0.5,0-0.6,0.1-0.6,0.6c0,0.5,0.1,0.6,0.6,0.6c0.5,0,0.6,0.1,0.6,1c0,0.9,0,1-0.6,1c-0.5,0-0.6,0.1-0.6,0.7c0,0.6,0.1,0.7,0.6,0.7
		c0.5,0,0.6,0.1,0.6,0.6c0,0.5,0.1,0.6,0.7,0.6C313.7,357.5,313.8,357.4,313.8,356.9z M313.8,353.9v-1l1,0.1c1,0.1,1,0.1,1,1l0.1,1
		h-2.1V353.9z"/>
	<g>
		<path id="path5501" class="st1" d="M368.2,342.6h-10.4l5.2-9L368.2,342.6z"/>
		<path id="use5514" class="st2" d="M376.6,333.1h-9.2l4.6,7.9L376.6,333.1z"/>
		<path id="use55141" serif:id="use5514" class="st2" d="M358.6,333.1h-9.2l4.6,7.9L358.6,333.1z"/>
		<path id="use5516" class="st1" d="M350.3,342.6h-10.4l5.2-9L350.3,342.6z"/>
		<path id="path5518" class="st3" d="M369.1,346.5h-12.4l6.2,26.6L369.1,346.5z"/>
		<path id="path5521" class="st4" d="M385.7,346.4h-11.9L368,371L385.7,346.4z"/>
		<path id="use5523" class="st4" d="M340.3,346.4h11.9L358,371L340.3,346.4z"/>
		<path id="use5525" class="st5" d="M350.4,342.7h-10.5l5.3-8.1L350.4,342.7z"/>
		<path id="use5532" class="st5" d="M386.2,342.7h-10.5l5.3-8.1L386.2,342.7z"/>
	</g>
</g>
<g id="negative-space-icons">
	<g>
		<path id="github-negative-space_00000165202774529309235790000004079910616453536402_" class="Graphic_x0020_Style" d="
			M58.1,245.8c-21.1-1.7-40.2-17.7-45.3-38.3c-3.7-23.9,1.6-39.9,16.5-52.2c15.6-13.7,39.8-16.1,57.9-5.9
			c18.5,9.8,29.5,31.7,26.3,52.4c-2.8,21.7-21,40.4-42.7,43.5C66.6,245.9,62.3,246,58.1,245.8z M50.2,237c2.3-2.1,1-5.9,1.3-8.9
			c-1.2-2.3-8,1.2-10.6-1.7c-5.4-2.6-5.4-10-10.8-12.6c-0.8-4.1,7.8-0.1,8.4,3c2.4,4.6,9.3,6.1,13.2,2.9c-0.2-3,5.3-6.6-0.3-6.1
			c-7.8-0.9-15.4-6.3-16.8-14.4c-1.6-6.6-1-14.1,3.7-19.4c-0.9-3.7-1.1-8.8,0.9-11.8c4.4,0,8.4,2.4,12,4.6c7.4-2,15.4-2.1,22.8,0
			c3.6-2.4,7.7-4.7,12.2-4.6c1.4,3.8,1.7,8.1,0.5,11.9c5.7,6,5.4,15.3,2.8,22.6c-2.8,7.6-11.2,10.9-18.7,11.6c4,4.4,2.4,10.6,2.9,16
			c-0.2,4.8,1.1,8.2,6.7,5.6c17.3-7.2,29.5-25.8,27.8-44.5c-1.1-18.3-15.3-35.3-33-40.2c-16.2-4.9-35.1,0.2-46.2,13
			c-12.1,12.9-15,34.5-7.4,50.4c5.2,11.1,15.3,19.3,27.2,22.7L50.2,237z"/>
		<g id="itch-io-negative-space_00000032615356201468582070000017919255653752126613_">
			<path id="path1426_00000111883091686230082940000018284203816332693890_" class="Graphic_x0020_Style" d="M62.9,272.7
				c-28.1,0-51.2,23.1-51.2,51.2l0,0c0,28.1,23.1,51.2,51.2,51.2h0c28.1,0,51.2-23.1,51.2-51.2l0,0C114.1,295.8,91,272.7,62.9,272.7
				z M62.9,279c0.4,0,0.8,0,1.2,0c0.4,0,0.8,0,1.2,0c0.4,0,0.8,0,1.2,0.1c0.4,0,0.8,0.1,1.2,0.1c0.4,0,0.8,0.1,1.1,0.1
				c0.4,0,0.8,0.1,1.1,0.2c0.4,0.1,0.8,0.1,1.1,0.2c0.4,0.1,0.8,0.1,1.1,0.2c0.4,0.1,0.8,0.2,1.1,0.3c0.4,0.1,0.7,0.2,1.1,0.3
				c0.4,0.1,0.7,0.2,1.1,0.3c0.4,0.1,0.7,0.2,1.1,0.3c0.4,0.1,0.7,0.2,1.1,0.4c0.4,0.1,0.7,0.3,1.1,0.4c0.4,0.1,0.7,0.3,1.1,0.4
				c0.4,0.1,0.7,0.3,1.1,0.4c0.4,0.2,0.7,0.3,1.1,0.5c0.3,0.2,0.7,0.3,1,0.5c0.3,0.2,0.7,0.3,1,0.5c0.3,0.2,0.7,0.4,1,0.6
				c0.3,0.2,0.7,0.4,1,0.6c0.3,0.2,0.7,0.4,1,0.6c0.3,0.2,0.6,0.4,1,0.6c0.3,0.2,0.6,0.4,1,0.7c0.3,0.2,0.6,0.5,0.9,0.7
				c0.3,0.2,0.6,0.5,0.9,0.7c0.3,0.2,0.6,0.5,0.9,0.7c0.3,0.2,0.6,0.5,0.9,0.8c0.3,0.3,0.6,0.5,0.9,0.8c0.3,0.3,0.6,0.5,0.8,0.8
				s0.5,0.5,0.8,0.8c0.3,0.3,0.5,0.6,0.8,0.8c0.3,0.3,0.5,0.6,0.8,0.9c0.3,0.3,0.5,0.6,0.8,0.9c0.2,0.3,0.5,0.6,0.7,0.9
				c0.2,0.3,0.5,0.6,0.7,0.9c0.2,0.3,0.5,0.6,0.7,0.9c0.2,0.3,0.4,0.6,0.7,1c0.2,0.3,0.4,0.6,0.6,1c0.2,0.3,0.4,0.7,0.6,1
				c0.2,0.3,0.4,0.7,0.6,1c0.2,0.3,0.4,0.7,0.6,1c0.2,0.3,0.4,0.7,0.5,1c0.2,0.3,0.3,0.7,0.5,1c0.2,0.3,0.3,0.7,0.5,1.1
				c0.2,0.4,0.3,0.7,0.4,1.1c0.1,0.4,0.3,0.7,0.4,1.1c0.1,0.4,0.3,0.7,0.4,1.1c0.1,0.4,0.2,0.7,0.4,1.1c0.1,0.4,0.2,0.7,0.3,1.1
				c0.1,0.4,0.2,0.7,0.3,1.1c0.1,0.4,0.2,0.7,0.3,1.1c0.1,0.4,0.2,0.8,0.3,1.1c0.1,0.4,0.2,0.8,0.2,1.1c0.1,0.4,0.1,0.8,0.2,1.1
				c0.1,0.4,0.1,0.8,0.2,1.1c0,0.4,0.1,0.8,0.1,1.1c0,0.4,0.1,0.8,0.1,1.2c0,0.4,0.1,0.8,0.1,1.2c0,0.4,0,0.8,0,1.2
				c0,0.4,0,0.8,0,1.2c0,1.1,0,2.2-0.1,3.4c-0.1,1.1-0.2,2.2-0.4,3.3c-0.2,1.1-0.4,2.2-0.6,3.3c-0.2,1.1-0.5,2.2-0.9,3.2
				c-0.3,1.1-0.7,2.1-1.1,3.2c-0.4,1-0.9,2.1-1.3,3.1c-0.5,1-1,2-1.6,3c-0.6,1-1.2,1.9-1.8,2.8c-0.6,0.9-1.3,1.8-2,2.7
				c-0.7,0.9-1.4,1.7-2.2,2.5c-0.8,0.8-1.6,1.6-2.4,2.4s-1.7,1.5-2.5,2.2c-0.9,0.7-1.8,1.4-2.7,2c-0.9,0.6-1.9,1.2-2.8,1.8
				c-1,0.6-2,1.1-3,1.6s-2,0.9-3.1,1.3c-1,0.4-2.1,0.8-3.2,1.1c-1.1,0.3-2.2,0.6-3.2,0.9c-1.1,0.2-2.2,0.5-3.3,0.6
				c-1.1,0.2-2.2,0.3-3.3,0.4c-1.1,0.1-2.2,0.1-3.4,0.1c-1.1,0-2.2,0-3.4-0.1c-1.1-0.1-2.2-0.2-3.3-0.4c-1.1-0.2-2.2-0.4-3.3-0.6
				c-1.1-0.2-2.2-0.5-3.2-0.9c-1.1-0.3-2.1-0.7-3.2-1.1c-1-0.4-2.1-0.9-3.1-1.3s-2-1-3-1.6c-1-0.6-1.9-1.2-2.8-1.8
				c-0.9-0.6-1.8-1.3-2.7-2c-0.9-0.7-1.7-1.4-2.5-2.2s-1.6-1.6-2.4-2.4c-0.8-0.8-1.5-1.7-2.2-2.5c-0.7-0.9-1.4-1.8-2-2.7
				c-0.6-0.9-1.2-1.9-1.8-2.8c-0.6-1-1.1-2-1.6-3c-0.5-1-0.9-2-1.3-3.1c-0.4-1-0.8-2.1-1.1-3.2c-0.3-1.1-0.6-2.2-0.9-3.2
				c-0.2-1.1-0.5-2.2-0.6-3.3c-0.2-1.1-0.3-2.2-0.4-3.3c-0.1-1.1-0.1-2.2-0.1-3.4c0-1.1,0-2.2,0.1-3.4c0.1-1.1,0.2-2.2,0.4-3.3
				c0.2-1.1,0.4-2.2,0.6-3.3c0.2-1.1,0.5-2.2,0.9-3.2c0.3-1.1,0.7-2.1,1.1-3.2c0.4-1,0.9-2.1,1.3-3.1c0.5-1,1-2,1.6-3
				c0.6-1,1.2-1.9,1.8-2.8c0.6-0.9,1.3-1.8,2-2.7c0.7-0.9,1.4-1.7,2.2-2.5c0.8-0.8,1.6-1.6,2.4-2.4c0.8-0.8,1.7-1.5,2.5-2.2
				c0.9-0.7,1.8-1.4,2.7-2c0.9-0.6,1.9-1.2,2.8-1.8c1-0.6,2-1.1,3-1.6c1-0.5,2-0.9,3.1-1.3c1-0.4,2.1-0.8,3.2-1.1
				c1.1-0.3,2.2-0.6,3.2-0.9c1.1-0.2,2.2-0.5,3.3-0.6c1.1-0.2,2.2-0.3,3.3-0.4C60.7,279,61.8,279,62.9,279L62.9,279z"/>
			<path id="path1428_00000135650025308877036430000018316114824881214866_" class="Graphic_x0020_Style" d="M44.2,310.7h0.1
				c0.2,4.4,5.2,7.1,9.1,5c1.8-1,2.9-2.9,3.1-4.9h0.1c0.2,7.3,12.2,7.4,12.6,0.1h0.1c0.5,2.1,1.4,4,3.5,5c3.8,1.7,8.6-0.9,8.7-5.2
				c0.5,1.5,0.7,2.8,1.9,4c2.8,2.7,7.1,2.1,9.3-1.1c1.2-1.7,1.4-4.2,1.1-6.3c-0.2-1-1-2-1.6-2.8c-1.6-2.1-3.5-4.4-5.7-5.9
				c-1.2-0.8-3.2-0.5-4.6-0.5c-3.3,0-6.6-0.2-9.9-0.2c-7.4,0-14.7-0.1-22.1,0.1c-2.3,0.1-4.6,0-6.9,0.1c-0.9,0-2-0.1-2.9,0.2
				c-1.3,0.4-2.4,1.8-3.4,2.7c-1.6,1.6-4,3.9-4.6,6.2c-0.3,1-0.2,2.4-0.1,3.4c0.3,2.6,2.2,5.1,4.8,5.7
				C40.3,317.1,44.1,314.3,44.2,310.7 M56.4,314.9c-2.5,5-9.4,4.2-12.2,0.1H44c-1.7,2.4-4,3.5-6.9,3.4c0,8.1-0.9,16.2-0.1,24.3
				c0.3,2.7,0.2,6.7,2.2,8.8c0.6,0.6,1.8,0.6,2.5,0.7c2.4,0.4,4.7,0.6,7.1,0.8c6.7,0.5,13.4,0.6,20,0.4c2.6-0.1,5.3,0,7.8-0.3
				c2.4-0.3,4.8-0.4,7.2-0.8c1-0.1,2.3-0.1,3-1c1.5-1.9,1.7-4.9,1.9-7.2c0.6-5.7,0.3-11.5,0.3-17.3c0-1.9-0.2-3.7-0.2-5.6
				c0-0.7,0.1-1.9-0.2-2.5c-0.2-0.5-2.2-0.4-2.7-0.5c-1.7-0.5-3.2-1.7-4.1-3.1h-0.2c-2.9,4.3-9.4,4.7-12.2-0.1
				c-1,0.8-1.6,1.9-2.8,2.6c-2.4,1.4-5.7,1.3-8-0.3C57.8,316.5,57.2,315.6,56.4,314.9 M72.6,339.6l-13.2,0.6l-6.2-0.6
				c0,4.6-4,7.7-8.3,7.7c-1.3,0-3,0.1-4-1c-1.5-1.6-0.7-4.7-0.2-6.5c0.7-2.7,1.5-5.5,2.3-8.2c0.9-3.1,1.9-6.4,4.4-8.7
				c2-1.7,5.4-2,7.7-0.8c0.9,0.5,1.9,1.8,2.9,1.8c2.3-0.1,4.6-0.3,6.9-0.2c1,0,2.2,0.4,3.1,0.2c0.8-0.2,1.5-1.1,2.2-1.5
				c1.5-0.9,3.8-1.1,5.6-0.7c2.3,0.6,3.9,2.5,5,4.6c1.9,3.8,2.7,8.2,3.9,12.3c0.6,2.1,1.6,5,0.6,7.1c-0.8,1.8-3,1.7-4.7,1.7
				C76.4,347.3,72.6,344,72.6,339.6 M56.5,334.3l3.5-0.1v3.1h5.8v-3.1l3.5,0.1c-0.8-2-3.1-3.7-4.6-5.2c-0.4-0.4-1.2-1.4-1.8-1.4
				c-0.6,0-1.4,1-1.8,1.4C59.6,330.6,57.3,332.3,56.5,334.3z"/>
		</g>
		<g id="whatsapp-negative-space-contact_00000160899792142924422110000005586669046995588521_">
			<path class="Graphic_x0020_Style" d="M148.1,273.9c-1.2-1.9-1.9-4.2-1.9-6.6c0-6.9,5.6-12.6,12.6-12.6c6.9,0,12.6,5.6,12.6,12.6
				c0,6.9-5.6,12.6-12.6,12.6c-2.2,0-4.3-0.6-6.1-1.6l-6.9,2.2L148.1,273.9z M153.1,276.1c0.8,0.5,1.7,1,2.6,1.2
				c1,0.3,2,0.5,3.1,0.5c5.8,0,10.5-4.7,10.5-10.5c0-5.8-4.7-10.5-10.5-10.5c-5.8,0-10.5,4.7-10.5,10.5c0,1.3,0.3,2.6,0.7,3.8
				c0.3,0.8,0.7,1.5,1.2,2.2l-1.5,4.2L153.1,276.1z"/>
			<path class="Graphic_x0020_Style" d="M154.2,261.2c0.1-0.1,1-0.3,1.6,0c0.3,0.1,1.4,2.9,1.4,3.3c0,0.4-1.1,1.2-1.3,1.6
				c0.1,0.8,0.9,1.8,2,2.7c1.3,1.1,1.9,1.7,2.7,1.7c0.8,0,1.5-1.7,1.9-1.7c0.4,0,2.8,1.5,3.1,1.7c0.2,0.1-0.1,1.7-0.5,2
				c-0.5,0.6-2,1.1-2.9,1c-1.1-0.1-2.4-0.7-3.9-1.5c-1.6-0.9-2.7-2.1-3.5-3.2c-1.7-1.8-2.1-4-2-5.3
				C152.7,262.9,153.6,261.7,154.2,261.2z"/>
		</g>
		<g id="instagram-negative-space-contact_00000144327520204927674030000003509274432352030364_">
			<path class="Graphic_x0020_Style" d="M157.9,221.1c2.8,0,6.1,0,7.1,0.1c1.5,0.1,2.8,0.6,3.8,1.3c1.3,0.9,2.2,2.2,2.7,3.8
				c0.3,1.2,0.4,2.3,0.4,7.5c0,5.9-0.1,6.8-0.6,8.3c-0.6,1.7-2,3.2-3.6,3.8c-1.4,0.6-2.2,0.7-5,0.7c-1.1,0-2.4,0-2.9,0
				c-0.5,0-2.1,0-3.6,0c-3.3,0-4-0.1-5.3-0.5c-1.1-0.4-1.7-0.7-2.5-1.5c-0.6-0.5-0.9-1-1.2-1.6c-0.6-1.1-0.8-2-1-3.8
				c-0.1-1-0.1-7.2-0.1-9.2c0.1-2,0.1-2.8,0.4-3.7c0.4-1.4,0.9-2.4,1.9-3.3c1.3-1.2,2.8-1.8,5.2-1.9
				C154.7,221.1,156.2,221.1,157.9,221.1z M159.1,223.2c-5.6,0-6.3,0-7.5,0.4c-1.7,0.6-2.8,2-3.1,4c-0.1,0.9-0.2,3-0.2,6.2
				c0,5.3,0.1,6.6,0.5,7.7c0.3,0.7,0.5,1,1,1.5c0.5,0.5,0.6,0.5,1.1,0.8c0.6,0.3,1.3,0.5,2.1,0.6c1.2,0.1,6.9,0.2,9.9,0.1
				c0.9,0,1.8-0.1,2.1-0.1c0.8-0.1,1.4-0.3,2-0.6c0.5-0.2,0.6-0.3,1-0.7c0.6-0.6,0.9-1.1,1.2-1.8c0.3-0.9,0.4-1.4,0.4-4
				c0.1-2.4,0-8.7-0.1-9.5c-0.1-1-0.3-1.7-0.7-2.4c-0.3-0.4-1.1-1.2-1.5-1.5c-0.4-0.2-1.2-0.5-1.8-0.6
				C164.5,223.2,163.7,223.2,159.1,223.2z"/>
			<path class="Graphic_x0020_Style" d="M165.9,225.5c0.3,0,0.4,0,0.7,0.1c0.3,0.2,0.6,0.5,0.8,0.8c0.3,0.9-0.2,1.8-1.1,2
				c-0.3,0.1-0.3,0.1-0.6,0c-0.5-0.1-0.9-0.4-1.1-0.9c-0.3-0.8,0-1.6,0.7-2C165.5,225.6,165.6,225.5,165.9,225.5z"/>
			<path class="Graphic_x0020_Style" d="M159.1,227.3c0.5,0,0.9,0,1.2,0.1c2.7,0.5,4.8,2.6,5.3,5.3c0.1,0.6,0.1,1.7,0,2.3
				c-0.3,1.4-0.9,2.5-1.8,3.5c-1.5,1.5-3.5,2.2-5.5,1.9c-1.4-0.2-2.7-0.8-3.7-1.9c-1.3-1.3-1.9-2.8-1.9-4.7c0-0.8,0.1-1.3,0.3-2
				c0.7-2.2,2.7-3.9,5-4.4C158.2,227.3,158.7,227.3,159.1,227.3z M159.1,229.6c-0.6,0-0.8,0-1.1,0.1c-1.4,0.4-2.5,1.4-2.9,2.8
				c-0.5,1.5-0.1,3.1,1,4.2c1.1,1.1,2.5,1.6,3.9,1.3c0.6-0.1,1-0.3,1.5-0.6c1.4-0.9,2.1-2.5,1.9-4.1c-0.2-1.5-1.1-2.8-2.4-3.4
				C160.3,229.7,159.9,229.6,159.1,229.6z"/>
		</g>
	</g>
</g>
<path id="github-cat" class="st6" d="M142.9,47.2c-1.1,1.6-1,4.3-0.5,6.3c-2.5,2.8-2.8,6.7-1.9,10.2c0.7,4.3,4.7,7.1,8.9,7.6
	c1.8,0.1,1.3,0.2,0.7,1.1c-0.3,0.5-0.5,1.3-0.5,2.2c-2.1,1.7-5.7,0.9-7-1.5c-0.3-1.6-4.9-3.8-4.4-1.6c2.9,1.4,2.9,5.3,5.7,6.6
	c1.4,1.6,5-0.3,5.6,0.9l0,14.8l11.4,0.1c0,0,0.8-19.9-1.3-22.3c4-0.4,8.4-2.1,9.9-6.1c1.4-3.9,1.5-8.8-1.5-11.9
	c0.7-2,0.5-4.3-0.3-6.3c-2.4,0-4.5,1.2-6.5,2.4c-3.9-1.1-8.1-1.1-12,0C147.3,48.5,145.2,47.2,142.9,47.2L142.9,47.2z"/>
<g id="favicon">
	<circle id="circle2006" class="st7" cx="165.9" cy="168.7" r="25.6"/>
	<text transform="matrix(1 0 0 1 151.8403 183.4577)" class="st0" style="font-family:'ArialMT'; font-size:57.336px;">s</text>
</g>
<path id="instagram" class="st0" d="M46.2-106.5c-3.5,0.1-6.9,0.6-10.3,1.5l0,0C11.3-98.4-3.5-72.7,3.1-48.1
	C9.7-23.5,35.4-8.6,60-15.2l0,0c24.6-6.6,39.4-32.3,32.8-56.9C87.1-93,67.7-107.3,46.2-106.5L46.2-106.5z M45.5-85.9
	c5.7,0,12.4,0.1,14.4,0.3c3,0.3,5.7,1.2,7.7,2.5c2.6,1.8,4.5,4.5,5.4,7.7c0.7,2.4,0.8,4.7,0.8,15.1c0,12-0.1,13.7-1.2,16.7
	c-1.2,3.5-3.9,6.4-7.2,7.7c-2.9,1.2-4.4,1.4-10,1.5c-2.2,0-4.8,0.1-5.9,0.1c-1.1,0-4.3,0-7.2,0c-6.7-0.1-8.1-0.2-10.6-1.1
	c-2.2-0.8-3.4-1.5-5-3c-1.1-1.1-1.9-2.1-2.5-3.2c-1.2-2.3-1.6-4.1-1.9-7.6c-0.2-2-0.2-14.5-0.1-18.5c0.1-4.1,0.3-5.7,0.7-7.4
	c0.7-2.9,1.9-4.8,3.9-6.8c2.5-2.4,5.7-3.5,10.6-3.9C39-85.9,42.1-85.9,45.5-85.9L45.5-85.9L45.5-85.9z M48.1-81.2
	c-11.1,0-12.6,0.1-14.9,0.9c-3.4,1.1-5.5,3.9-6.1,8c-0.2,1.7-0.3,5.9-0.3,12.3c0,10.5,0.2,13.1,1.1,15.2c0.5,1.3,0.9,1.9,2,3
	c1,1,1.1,1.1,2.1,1.6c1.3,0.6,2.6,1,4.1,1.1c2.4,0.3,13.7,0.4,19.6,0.2c1.8-0.1,3.7-0.1,4.2-0.2c1.5-0.2,2.8-0.5,4-1.1
	c0.9-0.4,1.2-0.6,2-1.4c1.2-1.2,1.9-2.1,2.4-3.6c0.6-1.8,0.7-2.8,0.8-7.9c0.1-4.7,0-17.3-0.2-18.8c-0.2-1.9-0.7-3.4-1.4-4.7
	c-0.5-0.9-2.1-2.5-3-3c-0.8-0.5-2.4-1-3.6-1.2C58.9-81.2,57.1-81.3,48.1-81.2L48.1-81.2z M61.7-76.9c0.7,0,0.9,0,1.4,0.3
	c0.7,0.3,1.3,1,1.5,1.7c0.7,1.8-0.3,3.7-2.2,4.1c-0.6,0.1-0.7,0.1-1.2,0c-1-0.2-1.8-0.8-2.2-1.8c-0.7-1.6-0.1-3.3,1.5-4.1
	C60.8-76.9,61-76.9,61.7-76.9L61.7-76.9L61.7-76.9z M48-73.3c0.9,0,1.9,0.1,2.4,0.2c5.4,1.1,9.6,5.3,10.6,10.8
	c0.2,1.3,0.2,3.5,0,4.6c-0.5,2.7-1.8,5.1-3.7,7c-2.9,2.9-7.1,4.3-11.1,3.8l0,0c-2.9-0.4-5.5-1.7-7.6-3.8c-2.6-2.6-3.9-5.7-3.9-9.5
	c0-1.7,0.1-2.5,0.6-4.1c1.5-4.5,5.4-7.9,10.2-8.8C46.1-73.3,47-73.3,48-73.3L48-73.3L48-73.3z M47.9-68.7c-1.3,0-1.6,0-2.3,0.3
	c-2.9,0.9-5,2.9-5.9,5.7c-0.9,3-0.2,6.2,2,8.5c2.1,2.2,5,3.1,7.9,2.5c1.2-0.2,2-0.6,3-1.2c2.8-1.8,4.3-5,3.9-8.2
	c-0.4-3-2.2-5.6-4.9-6.8C50.3-68.5,49.5-68.7,47.9-68.7L47.9-68.7z"/>
<path id="itch-io" class="st0" d="M54.4,0c-1.4,0-2.7,0.1-4.1,0.2s-2.7,0.3-4,0.5s-2.7,0.5-4,0.8c-1.3,0.3-2.6,0.7-3.9,1.1
	c-1.3,0.4-2.6,0.8-3.8,1.3c-1.3,0.5-2.5,1-3.7,1.6c-1.2,0.6-2.4,1.2-3.6,1.9C26,8,24.9,8.7,23.7,9.4c-1.1,0.8-2.2,1.6-3.3,2.4
	c-1.1,0.8-2.1,1.7-3.1,2.7c-1,0.9-2,1.9-2.9,2.9c-0.9,1-1.8,2-2.7,3.1c-0.8,1.1-1.7,2.2-2.4,3.3C8.7,24.9,8,26,7.3,27.2
	c-0.7,1.2-1.3,2.4-1.9,3.6c-0.6,1.2-1.1,2.5-1.6,3.7c-0.5,1.3-0.9,2.5-1.3,3.8C2,39.6,1.7,41,1.4,42.3s-0.6,2.7-0.8,4
	c-0.2,1.3-0.4,2.7-0.5,4C0.1,51.7,0,53,0,54.4c0,1.4,0.1,2.7,0.2,4.1c0.1,1.4,0.3,2.7,0.5,4c0.2,1.3,0.5,2.7,0.8,4
	c0.3,1.3,0.7,2.6,1.1,3.9c0.4,1.3,0.8,2.6,1.3,3.8c0.5,1.3,1,2.5,1.6,3.7c0.6,1.2,1.2,2.4,1.9,3.6s1.4,2.3,2.2,3.4
	c0.8,1.1,1.6,2.2,2.4,3.3c0.8,1.1,1.7,2.1,2.7,3.1c0.9,1,1.9,2,2.9,2.9c1,0.9,2,1.8,3.1,2.7c1.1,0.8,2.2,1.7,3.3,2.4
	c1.1,0.8,2.3,1.5,3.4,2.2c1.2,0.7,2.4,1.3,3.6,1.9c1.2,0.6,2.5,1.1,3.7,1.6c1.3,0.5,2.5,0.9,3.8,1.3c1.3,0.4,2.6,0.8,3.9,1.1
	s2.7,0.6,4,0.8c1.3,0.2,2.7,0.4,4,0.5c1.4,0.1,2.7,0.2,4.1,0.2s2.7-0.1,4.1-0.2c1.4-0.1,2.7-0.3,4-0.5c1.3-0.2,2.7-0.5,4-0.8
	c1.3-0.3,2.6-0.7,3.9-1.1c1.3-0.4,2.6-0.8,3.8-1.3c1.3-0.5,2.5-1,3.7-1.6c1.2-0.6,2.4-1.2,3.6-1.9c1.2-0.7,2.3-1.4,3.4-2.2
	c1.1-0.8,2.2-1.6,3.3-2.4c1.1-0.8,2.1-1.7,3.1-2.7c1-0.9,2-1.9,2.9-2.9c0.9-1,1.8-2,2.7-3.1c0.8-1.1,1.7-2.2,2.4-3.3
	c0.8-1.1,1.5-2.3,2.2-3.4c0.7-1.2,1.3-2.4,1.9-3.6s1.1-2.5,1.6-3.7c0.5-1.3,0.9-2.5,1.3-3.8c0.4-1.3,0.8-2.6,1.1-3.9
	c0.3-1.3,0.6-2.7,0.8-4c0.2-1.3,0.4-2.7,0.5-4c0.1-1.4,0.2-2.7,0.2-4.1c0-0.5,0-0.9,0-1.4c0-0.5,0-0.9-0.1-1.4
	c0-0.5-0.1-0.9-0.1-1.4c0-0.5-0.1-0.9-0.1-1.4c0-0.5-0.1-0.9-0.2-1.4c-0.1-0.5-0.1-0.9-0.2-1.4c-0.1-0.5-0.1-0.9-0.2-1.4
	c-0.1-0.5-0.2-0.9-0.3-1.4c-0.1-0.5-0.2-0.9-0.3-1.4c-0.1-0.5-0.2-0.9-0.3-1.4c-0.1-0.5-0.2-0.9-0.4-1.3c-0.1-0.4-0.3-0.9-0.4-1.3
	c-0.1-0.4-0.3-0.9-0.4-1.3c-0.2-0.4-0.3-0.9-0.5-1.3c-0.2-0.4-0.3-0.9-0.5-1.3c-0.2-0.4-0.4-0.9-0.5-1.3c-0.2-0.4-0.4-0.9-0.6-1.3
	c-0.2-0.4-0.4-0.8-0.6-1.3c-0.2-0.4-0.4-0.8-0.6-1.2c-0.2-0.4-0.4-0.8-0.7-1.2c-0.2-0.4-0.5-0.8-0.7-1.2c-0.2-0.4-0.5-0.8-0.7-1.2
	c-0.2-0.4-0.5-0.8-0.8-1.2c-0.3-0.4-0.5-0.8-0.8-1.2c-0.3-0.4-0.5-0.8-0.8-1.1c-0.3-0.4-0.6-0.7-0.9-1.1c-0.3-0.4-0.6-0.7-0.9-1.1
	c-0.3-0.4-0.6-0.7-0.9-1.1c-0.3-0.4-0.6-0.7-0.9-1c-0.3-0.3-0.6-0.7-1-1c-0.3-0.3-0.7-0.7-1-1c-0.3-0.3-0.7-0.6-1-1
	c-0.3-0.3-0.7-0.6-1-0.9c-0.4-0.3-0.7-0.6-1.1-0.9c-0.4-0.3-0.7-0.6-1.1-0.9c-0.4-0.3-0.7-0.6-1.1-0.9c-0.4-0.3-0.8-0.6-1.1-0.8
	c-0.4-0.3-0.8-0.5-1.2-0.8c-0.4-0.3-0.8-0.5-1.2-0.8c-0.4-0.3-0.8-0.5-1.2-0.7c-0.4-0.2-0.8-0.5-1.2-0.7c-0.4-0.2-0.8-0.5-1.2-0.7
	c-0.4-0.2-0.8-0.4-1.2-0.6c-0.4-0.2-0.8-0.4-1.3-0.6c-0.4-0.2-0.8-0.4-1.3-0.6c-0.4-0.2-0.9-0.4-1.3-0.5c-0.4-0.2-0.9-0.3-1.3-0.5
	c-0.4-0.2-0.9-0.3-1.3-0.5c-0.4-0.2-0.9-0.3-1.3-0.4c-0.4-0.1-0.9-0.3-1.3-0.4c-0.4-0.1-0.9-0.3-1.3-0.4c-0.5-0.1-0.9-0.2-1.4-0.3
	c-0.5-0.1-0.9-0.2-1.4-0.3C65,1.1,64.6,1,64.1,0.9c-0.5-0.1-0.9-0.2-1.4-0.2c-0.5-0.1-0.9-0.1-1.4-0.2c-0.5-0.1-0.9-0.1-1.4-0.2
	c-0.5,0-0.9-0.1-1.4-0.1c-0.5,0-0.9-0.1-1.4-0.1c-0.5,0-0.9,0-1.4-0.1C55.3,0,54.8,0,54.4,0L54.4,0L54.4,0z M52.1,25.8
	c4.1,0,8.2,0,12.2,0c3.7,0,7.3,0.2,11,0.3c1.5,0,3.8-0.4,5.1,0.6c2.4,1.7,4.6,4.2,6.3,6.5c0.7,0.9,1.6,1.9,1.8,3.1
	c0.4,2.3,0.1,5-1.2,6.9c-2.4,3.5-7.2,4.2-10.3,1.2c-1.3-1.3-1.6-2.7-2.1-4.4c-0.1,4.7-5.5,7.7-9.6,5.8c-2.3-1.1-3.3-3.2-3.9-5.5
	h-0.1c-0.4,8.1-13.7,7.9-13.9-0.1h-0.1c-0.3,2.2-1.4,4.3-3.5,5.4c-4.2,2.3-9.8-0.7-10-5.6h-0.1c-0.1,4-4.3,7.1-8.2,6.2
	c-2.9-0.7-5-3.5-5.3-6.3c-0.1-1.1-0.2-2.7,0.1-3.7c0.7-2.5,3.3-5,5.1-6.8c1-1,2.3-2.6,3.7-3c1-0.3,2.2-0.1,3.2-0.2
	c2.5-0.1,5.1-0.1,7.6-0.1C44,25.8,48.1,25.8,52.1,25.8L52.1,25.8L52.1,25.8z M47.1,44.6c0.9,0.8,1.5,1.8,2.5,2.5
	c2.5,1.8,6.2,1.9,8.8,0.3c1.3-0.8,2-2,3.1-2.9c3,5.3,10.2,4.9,13.5,0.1h0.3c1,1.6,2.7,2.9,4.5,3.5c0.6,0.2,2.7,0.1,3,0.6
	c0.4,0.7,0.2,2,0.2,2.8c0.1,2.1,0.3,4.1,0.3,6.1c0,6.4,0.3,12.8-0.4,19.1c-0.3,2.6-0.5,5.9-2.1,8c-0.7,0.9-2.2,0.9-3.3,1.1
	c-2.7,0.4-5.4,0.5-8,0.9c-2.9,0.4-5.8,0.2-8.7,0.4c-7.4,0.3-14.8,0.1-22.2-0.4c-2.6-0.2-5.3-0.4-7.9-0.8c-0.8-0.1-2.2-0.2-2.8-0.8
	c-2.2-2.3-2.1-6.8-2.4-9.7c-0.9-8.9,0.2-17.9,0.2-26.9c3.2,0.1,5.7-1.1,7.6-3.7h0.3C36.7,49.3,44.4,50.2,47.1,44.6L47.1,44.6
	L47.1,44.6z M42,51.9c-1.7,0.1-3.5,0.6-4.7,1.7c-2.8,2.5-3.9,6.1-4.9,9.6c-0.8,3-1.7,6-2.5,9.1c-0.5,2-1.4,5.5,0.2,7.2
	c1.1,1.2,2.9,1.1,4.4,1.1c4.8,0,9.2-3.5,9.2-8.6l6.8,0.7L65,72c0,4.9,4.2,8.5,9,8.6c1.8,0,4.3,0.1,5.2-1.9c1.1-2.3-0.1-5.6-0.7-7.9
	c-1.3-4.5-2.1-9.4-4.3-13.6c-1.2-2.3-3-4.4-5.5-5.1c-1.9-0.5-4.4-0.2-6.1,0.8c-0.8,0.5-1.5,1.5-2.4,1.7c-1,0.2-2.4-0.2-3.5-0.2
	c-2.6-0.1-5.1,0.1-7.6,0.2c-1.1,0.1-2.2-1.4-3.2-1.9C44.7,52.1,43.3,51.8,42,51.9L42,51.9L42,51.9z M54.4,58.8c0.7,0,1.5,1.1,2,1.6
	c1.6,1.6,4.2,3.5,5.1,5.7L57.6,66v3.5h-6.4V66l-3.9,0.1c0.9-2.2,3.4-4.1,5.1-5.7C52.8,59.9,53.6,58.8,54.4,58.8z"/>
<path id="github" class="st8" d="M217.5-82.2c30.6-1.1,58.2,19.2,66.1,48.8C293,1.5,272,37.9,237.1,47.3s-71.3-11.7-80.7-46.6
	C147-34.3,168-70.7,202.9-80C207.7-81.3,212.6-82.1,217.5-82.2L217.5-82.2z M192-56.5c-2.5,3.8-2.2,9.9-1.1,14.4
	c-5.7,6.4-6.5,15.6-4.5,23.6c1.7,9.8,11,16.4,20.5,17.5c4.1,0.2,2.9,0.5,1.6,2.4c-0.7,1.1-1.2,3-1.3,5c-4.8,3.8-13.2,2.1-16.1-3.6
	c-0.8-3.8-11.3-8.7-10.3-3.7c6.7,3.2,6.7,12.2,13.2,15.3c3.2,3.6,11.4-0.7,12.9,2.1c0,0,0.4,11.9,0.9,13.2c2.8,7.8,23.4,8,25.1,0.1
	c0.4-1.9,2.2-25.3-2.5-30.4c9.2-0.9,19.4-4.8,22.8-14.1c3.2-8.9,3.6-20.2-3.4-27.5c1.5-4.6,1.1-9.9-0.6-14.5
	c-5.5-0.1-10.5,2.7-14.9,5.6c-9-2.5-18.8-2.5-27.8,0C202.2-53.6,197.4-56.5,192-56.5L192-56.5z"/>
</svg>
