<?xml version="1.0" encoding="utf-8"?>
<!-- Generator: Adobe Illustrator 26.1.0, SVG Export Plug-In . SVG Version: 6.00 Build 0)  -->
<svg version="1.1" id="Document" xmlns:serif="http://www.serif.com/"
	 xmlns="http://www.w3.org/2000/svg" xmlns:xlink="http://www.w3.org/1999/xlink" x="0px" y="0px" viewBox="0 0 612 792"
	 style="enable-background:new 0 0 612 792;" xml:space="preserve">
<style type="text/css">
	.Graphic_x0020_Style{fill:#282A30;}
	.st0{fill:#FFFFFF;}
	.st1{fill:#FFFFFF;stroke:#FFFFFF;stroke-width:2.472;stroke-linecap:round;stroke-linejoin:round;stroke-miterlimit:3.2;}
	.st2{fill:#FFFFFF;stroke:#FFFFFF;stroke-width:2.168;stroke-linecap:round;stroke-linejoin:round;stroke-miterlimit:3.2;}
	.st3{fill:#FFFFFF;stroke:#FFFFFF;stroke-width:2.592;stroke-linecap:round;stroke-linejoin:round;stroke-miterlimit:3.2;}
	.st4{fill:#FFFFFF;stroke:#FFFFFF;stroke-width:2.48;stroke-linecap:round;stroke-linejoin:round;stroke-miterlimit:3.2;}
	.st5{fill:#FFFFFF;stroke:#FFFFFF;stroke-width:2.352;stroke-linecap:round;stroke-linejoin:round;stroke-miterlimit:3.2;}
	.st6{display:none;}
	.st7{fill-rule:evenodd;clip-rule:evenodd;fill:#322F39;}
	.st8{font-family:'ArialMT';}
	.st9{font-size:57.336px;}
	.st10{fill-rule:evenodd;clip-rule:evenodd;fill:#FFFFFF;}
</style>
<g id="language-icons" serif:id="language icons">
	<g>
		<path id="path1298" class="st0" d="M335,635.8c-2.4-0.8-5-2.6-6.5-4.7c-0.6-0.8-1.1-1.6-1.1-1.7c0-0.1,5.8-3.5,5.8-3.5l0.7,0.9
			c1.2,1.5,2.1,2.3,3.2,2.8c0.6,0.3,2,0.7,3.1,0.7c1.3,0,2.4-0.3,2.9-0.6c1.2-0.6,1.9-1.8,1.9-3.1c-0.2-1.3-0.3-1.7-1-2.3
			c-0.6-0.5-2.7-1.7-4.8-2.6c-2.1-0.9-4.5-2.2-5.3-2.8c-2.4-1.8-3.7-3.8-4.2-6c-0.7-3.3,0.1-6.4,2.2-8.9c1.3-1.5,4.2-2.8,6.9-3
			c9.1-0.7,11.7,5.9,11.7,5.9s-4.8,2.8-5.6,3.1c0,0-1.3-3-4.7-2.7c-1.5,0.1-3.6,0.3-3.7,3.3c0,0.7,0.6,1.6,1,2
			c0.4,0.4,2,1.8,4.2,2.7c5.8,2.6,7.5,4.4,8.6,6c1.6,2.1,2.5,5,1.5,8.6c-0.6,2.2-2.7,4.4-5.1,5.6c-1.7,0.8-2.6,1.2-6.1,1.3
			C337.6,636.7,335,635.8,335,635.8z"/>
		<path id="path1294" class="st0" d="M304.2,633.1c-0.8-0.8-2.3-3.5-2.3-3.5l5.6-3.5c0,0,1.8,3.9,4.9,3.9c1.9,0,4.1-0.5,4.2-3.9
			l-0.2-11.9v-13.4h7.4l-0.1,13.9c-0.1,9.4-0.3,14.7-1.1,16.2c-1.7,3.4-4.1,4.8-5.7,5.2C315,636.6,309.1,638,304.2,633.1
			L304.2,633.1z"/>
	</g>
	<g id="java1" serif:id="java">
		<path id="path5724" class="st0" d="M503.6,632.4c0.4-0.2,0.1-0.4-0.9-0.4c-1,0-2.6,0.1-3.8,0.5c-1.2,0.4-1.9,1.2-2.5,2
			c-0.5,0.8-0.9,1.8,0.4,3c1.3,1.3,4.2,2.9,9.5,3.5c5.3,0.6,12.3,0.2,17.8-0.6c5.5-0.8,8.8-2,10.7-2.9c1.9-0.9,2.4-1.5,2.5-2
			c0.1-0.4,0-0.8-0.3-1.2c-0.3-0.4-0.7-0.4-0.9-0.3s0,0.2-0.1,0.6c-0.1,0.3-0.4,0.8-1.7,1.3c-1.3,0.5-3.6,1.2-7,1.6
			c-3.4,0.5-7.8,0.8-11.8,0.8c-4.1-0.1-7.8-0.6-10.5-1.2c-2.7-0.6-4.2-1.3-4.7-2.1c-0.5-0.7,0.1-1.5,0.9-1.9
			C502.1,632.7,503.2,632.6,503.6,632.4L503.6,632.4z"/>
		<path id="path5700" class="st0" d="M518.1,592.5c-0.4,0.3,1,2.3,1,4.9c0,1.9-1.8,3.1-3.5,4.4c-1,0.8-1.9,1.7-3,3.3
			c-1.1,1.6-1.6,3.8-0.7,5.7c1,1.9,4.3,5.7,5.3,6c1,0.3-0.7-1.9-1.5-3.5c-0.5-1-0.8-2.3-0.7-3.3c0.2-1.4,0.7-2.3,1.8-3.4
			c1.1-1,2.9-2.7,3.9-4c0.9-1.2,1.8-3.4,1.3-4.8c-0.5-1.3-0.6-1.6-1.4-2.6C519.7,594.1,518.1,592.5,518.1,592.5z"/>
		<path id="path5704" class="st0" d="M526.4,604c-0.1-0.3-2.9,0.5-3.9,1.1c-1.1,0.6-2.8,1.7-3.6,3.1c-0.8,1.4-0.7,2.6-0.4,3.7
			c0.3,1.2,1.5,1.7,1.9,2.3c0.4,0.6,0.5,1.1,0.3,1.8c-0.1,0.7-1.5,1.9-0.9,1.8c0.5-0.1,2.2-1.2,3-2.2c0.7-1.1,0.8-2.2,0.6-3.3
			c-0.3-1.1-1.4-1.5-1.6-2.4c-0.2-0.9-0.2-1.3,0.3-2.1c0.2-0.3,0.8-1.1,1.5-1.6C524.7,605.2,526.5,604.2,526.4,604z"/>
		<path id="path5708" class="st0" d="M505.3,616.6c0.5-0.4,1.1-0.6,1.8-0.7c0.7-0.1,1.6,0,1.5,0.2c-0.1,0.2-1.1,0.6-1.4,1.2
			c-0.2,0.6,0.3,1.4,2.2,1.9c1.8,0.5,5,0.8,7.6,0.8c2.6,0,4.7-0.3,6.6-0.6c1.9-0.3,3.5-0.8,4.8-1.2c1.3-0.4,2.3-0.8,2.3-0.4
			c0.1,0.4-0.7,1.5-1.1,2.2c-0.4,0.7-0.5,0.8-0.8,0.9c-0.2,0.1-0.6,0.3-1.2,0.6c-0.7,0.3-1.6,0.8-3.7,1.3c-2.1,0.5-5.3,0.9-8.4,0.9
			c-3.1,0-6-0.4-8-1.1c-2-0.7-3-1.8-3.4-2.6c-0.4-0.9-0.3-1.5,0-2.1C504.4,617.4,504.8,616.9,505.3,616.6L505.3,616.6z"/>
		<path id="path5712" class="st0" d="M508,623.8c-0.3,0.1-1,0.3-1.5,1c-0.5,0.7-0.7,1.8,0.1,2.7c0.8,0.9,2.6,1.6,4.5,2
			c1.9,0.4,3.8,0.7,6.1,0.6c2.3-0.1,5-0.5,6.8-1c1.9-0.5,2.9-1.1,3.6-1.6c0.8-0.4,1.3-0.6,1.5-0.8c0.2-0.2,0.1-0.4-0.2-0.7
			c-0.3-0.3-0.8-0.8-1.1-1.1c-0.3-0.3-0.4-0.5-0.6-0.5c-0.2,0-0.3,0.2-0.8,0.4c-0.5,0.2-1.2,0.5-2.9,0.9c-1.7,0.4-4.5,1-7,1
			c-2.5,0.1-4.8-0.4-6.1-0.8c-1.3-0.4-1.8-0.8-2-1.2c-0.2-0.4-0.2-0.7-0.2-0.8C508.4,623.7,508.4,623.7,508,623.8L508,623.8z"/>
		<path id="path5716" class="st0" d="M516.8,632.5c2.3,0,4.8-0.4,6.5-0.8c1.7-0.4,2.6-0.9,3-1c0.5-0.2,0.6,0,0.9,0.4
			c0.3,0.4,0.9,1.1,1.2,1.4c0.3,0.4,0.4,0.5-0.3,0.8c-0.7,0.3-2.3,1-4.7,1.5c-2.5,0.5-5.8,0.9-8.5,0.8c-2.7-0.1-4.8-0.9-5.9-1.6
			c-1.1-0.8-1.2-1.5-1.2-2.1c0-0.6,0.2-1,0.4-1.4c0.2-0.3,0.5-0.6,0.7-0.6c0.1,0,0.1,0.3,0.4,0.6c0.3,0.4,0.8,0.9,2,1.4
			C512.5,632.2,514.5,632.6,516.8,632.5z"/>
		<path id="path5720" class="st0" d="M534.3,616.3c-0.1-0.2,0.2-0.9,0.9-1.5c0.7-0.6,1.8-1,3-1c1.2,0,2.5,0.5,3.4,1.3
			c0.9,0.8,1.2,1.8,1.2,3.2c0,1.4-0.5,3.2-2.3,5c-1.9,1.8-5.1,3.5-6.7,4c-1.5,0.5-1.3-0.2-0.3-1.2c1-0.9,2.9-2,4-3.6
			c1.2-1.6,1.7-3.7,1.2-4.9c-0.5-1.2-1.9-1.5-2.8-1.4C535,616.2,534.5,616.5,534.3,616.3L534.3,616.3z"/>
		<path id="path12240" class="st0" d="M513.2,643.4c-1.4-0.1-6.4-0.5-6.4-0.9c0-0.3,0.5,0,4,0c3.5,0,9.9-0.3,13.3-0.8
			c3.4-0.4,6.1-1,9.4-1.9c5.8-1.7,6.5-3.7,6.9-3.7c0.4,0,0.3,2.9-3.7,4.5c-3.8,1.5-10.1,2.5-12.7,2.7
			C521.3,643.4,516.1,643.5,513.2,643.4z"/>
	</g>
	<g id="python1" serif:id="python">
		<path id="python-bottom-snake" class="st0" d="M275.6,631.6h-12.7v-1.9c0,0,5.2,0,10.7,0c4.2,0,8.5,0.2,10.7-1.3
			c5.6-3.7,5.8-16.8,1-21.2c-2.3-2.1-5.5-1.7-8.3-1.7c0,4.3,0.5,9.6-4,11.9c-6.8,3.5-22-3.9-22,8.2v9.9c0,1.8,0.9,3.4,2.1,4.5
			c4.4,4.1,17.6,4.6,21.4-0.6C276,637.3,275.6,634.2,275.6,631.6 M270.7,638.5c-2.3,0.7-3.4-3-1-3.5
			C271.7,634.6,272.7,637.8,270.7,638.5"/>
		<path id="python-top-snake" class="st0" d="M250.5,603.5h12.7v1.9c0,0-5.2,0-10.7,0c-4.2,0-8.5-0.2-10.7,1.3
			c-5.6,3.7-5.8,16.8-1,21.2c2.3,2.1,5.5,1.7,8.3,1.7c0-4.3-0.5-9.6,4-11.9c6.8-3.5,22,3.9,22-8.2v-9.9c0-1.8-0.9-3.4-2.1-4.5
			c-4.4-4.1-17.6-4.6-21.4,0.6C250.1,597.8,250.5,601,250.5,603.5 M255.4,596.6c2.3-0.7,3.4,3,1,3.5
			C254.4,600.5,253.4,597.3,255.4,596.6"/>
	</g>
	<path id="csharp" class="st0" d="M389,643.6c-0.6-0.3-5-2.8-9.9-5.6c-4.9-2.8-9.2-5.4-9.6-5.8c-0.4-0.4-0.8-1.1-1-1.6
		c-0.2-0.6-0.3-4.4-0.3-12.2c0-10.5,0-11.4,0.4-12.3c0.2-0.5,0.7-1.1,1-1.4c0.3-0.3,4.9-3,10.2-6.1c8.6-4.9,9.8-5.6,10.8-5.7
		c0.7-0.1,1.5,0,1.9,0.2c0.4,0.2,4.9,2.7,10.1,5.7c5.1,3,9.6,5.6,9.9,5.9c0.3,0.3,0.7,0.9,1,1.4c0.4,0.9,0.4,1.7,0.4,12.4
		c0,10.7,0,11.5-0.4,12.4c-0.2,0.5-0.7,1.1-1,1.4c-0.3,0.3-4.6,2.8-9.5,5.7c-4.9,2.8-9.4,5.4-9.9,5.6c-0.6,0.3-1.4,0.5-2.1,0.5
		C390.4,644.1,389.7,643.9,389,643.6z M395.1,633c0.7-0.2,2-0.7,2.8-1.1c0.8-0.4,2.1-1.2,2.8-1.8c0.7-0.6,1.8-1.7,2.4-2.5
		c0.6-0.8,1-1.5,0.9-1.6s-1.5-1-3.2-1.9l-3-1.7l-0.9,1.1c-0.5,0.6-1.5,1.4-2.1,1.7c-0.6,0.3-1.7,0.7-2.4,0.9c-0.8,0.2-1.6,0.2-2.5,0
		c-0.7-0.1-1.7-0.5-2.2-0.7c-0.5-0.3-1.4-0.9-1.9-1.4c-0.5-0.5-1.1-1.4-1.4-1.9c-0.3-0.5-0.6-1.6-0.7-2.3c-0.2-1-0.2-1.7,0-2.7
		c0.2-0.8,0.6-1.8,1.2-2.6c0.5-0.8,1.4-1.7,2-2.1c0.6-0.4,1.7-0.9,2.4-1.1c0.7-0.2,1.5-0.3,1.9-0.3c0.4,0,1.4,0.2,2.3,0.5
		c1.3,0.4,1.8,0.7,2.9,1.8c0.8,0.7,1.4,1.4,1.4,1.4c0,0,1.5-0.8,3.2-1.8l3.1-1.8l-1.1-1.5c-0.6-0.8-1.7-2-2.5-2.6s-2.1-1.5-3-1.9
		c-0.9-0.4-2.4-0.9-3.4-1.1c-1-0.2-2.4-0.4-3.2-0.4c-0.8,0-2.2,0.2-3,0.3c-0.9,0.2-2.5,0.8-3.5,1.3c-1.6,0.8-2.3,1.3-3.8,2.8
		c-1.5,1.5-2.1,2.3-2.8,3.8c-0.5,1.1-1.1,2.7-1.3,3.6c-0.2,0.9-0.3,2.3-0.3,3.2c0,0.9,0.2,2.3,0.4,3.2c0.2,0.9,0.8,2.5,1.3,3.5
		c0.5,1,1.4,2.4,2.1,3.2c0.6,0.7,1.8,1.8,2.7,2.4c0.8,0.6,2.2,1.4,3.2,1.7c0.9,0.4,2.2,0.8,2.9,0.9c0.7,0.1,2.1,0.2,3.2,0.1
		C392.9,633.4,394.4,633.2,395.1,633L395.1,633z M406,621.5c0-0.5,0.1-0.6,1.1-0.6c1,0,1.1,0,1,0.6c-0.1,0.5,0,0.6,0.5,0.6
		c0.5,0,0.7-0.1,0.7-0.6c0-0.5,0.1-0.6,0.7-0.6c0.6,0,0.7-0.1,0.7-0.7s-0.1-0.7-0.7-0.7c-0.7,0-0.7,0-0.7-1c0-1,0-1,0.7-1
		c0.6,0,0.7-0.1,0.7-0.6c0-0.5-0.1-0.6-0.7-0.6c-0.6,0-0.7-0.1-0.7-0.7c0-0.6-0.1-0.7-0.6-0.7c-0.5,0-0.6,0.1-0.6,0.6
		c0,0.6-0.1,0.6-1,0.7c-1,0.1-1,0.1-1-0.6c0-0.6-0.1-0.7-0.7-0.7c-0.6,0-0.7,0.1-0.7,0.7c0,0.6-0.1,0.7-0.6,0.7
		c-0.5,0-0.6,0.1-0.6,0.6c0,0.5,0.1,0.6,0.6,0.6c0.5,0,0.6,0.1,0.6,1c0,0.9,0,1-0.6,1c-0.5,0-0.6,0.1-0.6,0.7c0,0.6,0.1,0.7,0.6,0.7
		c0.5,0,0.6,0.1,0.6,0.6c0,0.5,0.1,0.6,0.7,0.6C405.9,622,406,622,406,621.5z M406,618.5v-1l1,0.1c1,0.1,1,0.1,1,1l0.1,1H406V618.5z
		"/>
	<g>
		<path id="path5501" class="st1" d="M460.5,607.2h-10.4l5.2-9L460.5,607.2z"/>
		<path id="use5514" class="st2" d="M468.9,597.7h-9.2l4.6,7.9L468.9,597.7z"/>
		<path id="use55141" serif:id="use5514" class="st2" d="M450.9,597.7h-9.2l4.6,7.9L450.9,597.7z"/>
		<path id="use5516" class="st1" d="M442.6,607.2h-10.4l5.2-9L442.6,607.2z"/>
		<path id="path5518" class="st3" d="M461.4,611H449l6.2,26.6L461.4,611z"/>
		<path id="path5521" class="st4" d="M478,611h-11.9l-5.8,24.6L478,611z"/>
		<path id="use5523" class="st4" d="M432.6,611h11.9l5.8,24.6L432.6,611z"/>
		<path id="use5525" class="st5" d="M442.7,607.2h-10.5l5.3-8.1L442.7,607.2z"/>
		<path id="use5532" class="st5" d="M478.5,607.2H468l5.3-8.1L478.5,607.2z"/>
	</g>
</g>
<g id="negative-space-icons">
	<g>
		<path id="github-negative-space_00000160191008323981153370000017356575607621647029_" class="Graphic_x0020_Style" d="
			M150.4,510.3c-21.1-1.7-40.2-17.7-45.3-38.3c-3.7-23.9,1.6-39.9,16.5-52.2c15.6-13.7,39.8-16.1,57.9-5.9
			c18.5,9.8,29.5,31.7,26.3,52.4c-2.8,21.7-21,40.4-42.7,43.5C158.9,510.5,154.6,510.6,150.4,510.3z M142.5,501.6
			c2.3-2.1,1-5.9,1.3-8.9c-1.2-2.3-8,1.2-10.6-1.7c-5.4-2.6-5.4-10-10.8-12.6c-0.8-4.1,7.8-0.1,8.4,3c2.4,4.6,9.3,6.1,13.2,2.9
			c-0.2-3,5.3-6.6-0.3-6.1c-7.8-0.9-15.4-6.3-16.8-14.4c-1.6-6.6-1-14.1,3.7-19.4c-0.9-3.7-1.1-8.8,0.9-11.8c4.4,0,8.4,2.4,12,4.6
			c7.4-2,15.4-2.1,22.8,0c3.6-2.4,7.7-4.7,12.2-4.6c1.4,3.8,1.7,8.1,0.5,11.9c5.7,6,5.4,15.3,2.8,22.6c-2.8,7.6-11.2,10.9-18.7,11.6
			c4,4.4,2.4,10.6,2.9,16c-0.2,4.8,1.1,8.2,6.7,5.6c17.3-7.2,29.5-25.8,27.8-44.5c-1.1-18.3-15.3-35.3-33-40.2
			c-16.2-4.9-35.1,0.2-46.2,13c-12.1,12.9-15,34.5-7.4,50.4c5.2,11.1,15.3,19.3,27.2,22.7L142.5,501.6z"/>
		<g id="itch-io-negative-space_00000042696625435869569400000018416160927145632931_">
			<path id="path1426_00000060008544300013378660000008446026985156014759_" class="Graphic_x0020_Style" d="M155.2,537.2
				c-28.1,0-51.2,23.1-51.2,51.2l0,0c0,28.1,23.1,51.2,51.2,51.2h0c28.1,0,51.2-23.1,51.2-51.2l0,0
				C206.4,560.3,183.3,537.2,155.2,537.2z M155.2,543.5c0.4,0,0.8,0,1.2,0c0.4,0,0.8,0,1.2,0c0.4,0,0.8,0,1.2,0.1
				c0.4,0,0.8,0.1,1.2,0.1c0.4,0,0.8,0.1,1.1,0.1c0.4,0,0.8,0.1,1.1,0.2c0.4,0.1,0.8,0.1,1.1,0.2s0.8,0.1,1.1,0.2
				c0.4,0.1,0.8,0.2,1.1,0.3c0.4,0.1,0.7,0.2,1.1,0.3c0.4,0.1,0.7,0.2,1.1,0.3c0.4,0.1,0.7,0.2,1.1,0.3c0.4,0.1,0.7,0.2,1.1,0.4
				c0.4,0.1,0.7,0.3,1.1,0.4c0.4,0.1,0.7,0.3,1.1,0.4c0.4,0.1,0.7,0.3,1.1,0.4c0.4,0.2,0.7,0.3,1.1,0.5c0.3,0.2,0.7,0.3,1,0.5
				c0.3,0.2,0.7,0.3,1,0.5c0.3,0.2,0.7,0.4,1,0.6c0.3,0.2,0.7,0.4,1,0.6c0.3,0.2,0.7,0.4,1,0.6c0.3,0.2,0.6,0.4,1,0.6
				c0.3,0.2,0.6,0.4,1,0.7c0.3,0.2,0.6,0.5,0.9,0.7c0.3,0.2,0.6,0.5,0.9,0.7c0.3,0.2,0.6,0.5,0.9,0.7c0.3,0.2,0.6,0.5,0.9,0.8
				c0.3,0.3,0.6,0.5,0.9,0.8c0.3,0.3,0.6,0.5,0.8,0.8s0.5,0.5,0.8,0.8c0.3,0.3,0.5,0.6,0.8,0.8c0.3,0.3,0.5,0.6,0.8,0.9
				c0.3,0.3,0.5,0.6,0.8,0.9c0.2,0.3,0.5,0.6,0.7,0.9c0.2,0.3,0.5,0.6,0.7,0.9c0.2,0.3,0.5,0.6,0.7,0.9c0.2,0.3,0.4,0.6,0.7,1
				s0.4,0.6,0.6,1c0.2,0.3,0.4,0.7,0.6,1c0.2,0.3,0.4,0.7,0.6,1c0.2,0.3,0.4,0.7,0.6,1c0.2,0.3,0.4,0.7,0.5,1c0.2,0.3,0.3,0.7,0.5,1
				c0.2,0.3,0.3,0.7,0.5,1.1c0.2,0.4,0.3,0.7,0.4,1.1c0.1,0.4,0.3,0.7,0.4,1.1c0.1,0.4,0.3,0.7,0.4,1.1c0.1,0.4,0.2,0.7,0.4,1.1
				c0.1,0.4,0.2,0.7,0.3,1.1c0.1,0.4,0.2,0.7,0.3,1.1c0.1,0.4,0.2,0.7,0.3,1.1c0.1,0.4,0.2,0.8,0.3,1.1c0.1,0.4,0.2,0.8,0.2,1.1
				c0.1,0.4,0.1,0.8,0.2,1.1c0.1,0.4,0.1,0.8,0.2,1.1c0,0.4,0.1,0.8,0.1,1.1c0,0.4,0.1,0.8,0.1,1.2c0,0.4,0.1,0.8,0.1,1.2
				c0,0.4,0,0.8,0,1.2c0,0.4,0,0.8,0,1.2c0,1.1,0,2.2-0.1,3.4c-0.1,1.1-0.2,2.2-0.4,3.3c-0.2,1.1-0.4,2.2-0.6,3.3
				c-0.2,1.1-0.5,2.2-0.9,3.2c-0.3,1.1-0.7,2.1-1.1,3.2c-0.4,1-0.9,2.1-1.3,3.1c-0.5,1-1,2-1.6,3c-0.6,1-1.2,1.9-1.8,2.8
				c-0.6,0.9-1.3,1.8-2,2.7c-0.7,0.9-1.4,1.7-2.2,2.5c-0.8,0.8-1.6,1.6-2.4,2.4c-0.8,0.8-1.7,1.5-2.5,2.2c-0.9,0.7-1.8,1.4-2.7,2
				c-0.9,0.6-1.9,1.2-2.8,1.8c-1,0.6-2,1.1-3,1.6s-2,0.9-3.1,1.3c-1,0.4-2.1,0.8-3.2,1.1c-1.1,0.3-2.2,0.6-3.2,0.9
				c-1.1,0.2-2.2,0.5-3.3,0.6c-1.1,0.2-2.2,0.3-3.3,0.4c-1.1,0.1-2.2,0.1-3.4,0.1c-1.1,0-2.2,0-3.4-0.1c-1.1-0.1-2.2-0.2-3.3-0.4
				c-1.1-0.2-2.2-0.4-3.3-0.6c-1.1-0.2-2.2-0.5-3.2-0.9c-1.1-0.3-2.1-0.7-3.2-1.1c-1-0.4-2.1-0.9-3.1-1.3c-1-0.5-2-1-3-1.6
				s-1.9-1.2-2.8-1.8c-0.9-0.6-1.8-1.3-2.7-2c-0.9-0.7-1.7-1.4-2.5-2.2c-0.8-0.8-1.6-1.6-2.4-2.4c-0.8-0.8-1.5-1.7-2.2-2.5
				c-0.7-0.9-1.4-1.8-2-2.7c-0.6-0.9-1.2-1.9-1.8-2.8c-0.6-1-1.1-2-1.6-3c-0.5-1-0.9-2-1.3-3.1c-0.4-1-0.8-2.1-1.1-3.2
				c-0.3-1.1-0.6-2.2-0.9-3.2c-0.2-1.1-0.5-2.2-0.6-3.3c-0.2-1.1-0.3-2.2-0.4-3.3c-0.1-1.1-0.1-2.2-0.1-3.4c0-1.1,0-2.2,0.1-3.4
				c0.1-1.1,0.2-2.2,0.4-3.3c0.2-1.1,0.4-2.2,0.6-3.3c0.2-1.1,0.5-2.2,0.9-3.2c0.3-1.1,0.7-2.1,1.1-3.2c0.4-1,0.9-2.1,1.3-3.1
				c0.5-1,1-2,1.6-3c0.6-1,1.2-1.9,1.8-2.8c0.6-0.9,1.3-1.8,2-2.7c0.7-0.9,1.4-1.7,2.2-2.5c0.8-0.8,1.6-1.6,2.4-2.4s1.7-1.5,2.5-2.2
				c0.9-0.7,1.8-1.4,2.7-2c0.9-0.6,1.9-1.2,2.8-1.8c1-0.6,2-1.1,3-1.6c1-0.5,2-0.9,3.1-1.3c1-0.4,2.1-0.8,3.2-1.1
				c1.1-0.3,2.2-0.6,3.2-0.9c1.1-0.2,2.2-0.5,3.3-0.6c1.1-0.2,2.2-0.3,3.3-0.4C153,543.6,154.1,543.5,155.2,543.5L155.2,543.5z"/>
			<path id="path1428_00000001656998513126655670000016700717325051719573_" class="Graphic_x0020_Style" d="M136.5,575.2h0.1
				c0.2,4.4,5.2,7.1,9.1,5c1.8-1,2.9-2.9,3.1-4.9h0.1c0.2,7.3,12.2,7.4,12.6,0.1h0.1c0.5,2.1,1.4,4,3.5,5c3.8,1.7,8.6-0.9,8.7-5.2
				c0.5,1.5,0.7,2.8,1.9,4c2.8,2.7,7.1,2.1,9.3-1.1c1.2-1.7,1.4-4.2,1.1-6.3c-0.2-1-1-2-1.6-2.8c-1.6-2.1-3.5-4.4-5.7-5.9
				c-1.2-0.8-3.2-0.5-4.6-0.5c-3.3,0-6.6-0.2-9.9-0.2c-7.4,0-14.7-0.1-22.1,0.1c-2.3,0.1-4.6,0-6.9,0.1c-0.9,0-2-0.1-2.9,0.2
				c-1.3,0.4-2.4,1.8-3.4,2.7c-1.6,1.6-4,3.9-4.6,6.2c-0.3,1-0.2,2.4-0.1,3.4c0.3,2.6,2.2,5.1,4.8,5.7
				C132.6,581.7,136.4,578.8,136.5,575.2 M148.7,579.4c-2.5,5-9.4,4.2-12.2,0.1h-0.2c-1.7,2.4-4,3.5-6.9,3.4
				c0,8.1-0.9,16.2-0.1,24.3c0.3,2.7,0.2,6.7,2.2,8.8c0.6,0.6,1.8,0.6,2.5,0.7c2.4,0.4,4.7,0.6,7.1,0.8c6.7,0.5,13.4,0.6,20,0.4
				c2.6-0.1,5.3,0,7.8-0.3c2.4-0.3,4.8-0.4,7.2-0.8c1-0.1,2.3-0.1,3-1c1.5-1.9,1.7-4.9,1.9-7.2c0.6-5.7,0.3-11.5,0.3-17.3
				c0-1.9-0.2-3.7-0.2-5.6c0-0.7,0.1-1.9-0.2-2.5c-0.2-0.5-2.2-0.4-2.7-0.5c-1.7-0.5-3.2-1.7-4.1-3.1h-0.2
				c-2.9,4.3-9.4,4.7-12.2-0.1c-1,0.8-1.6,1.9-2.8,2.6c-2.4,1.4-5.7,1.3-8-0.3C150.1,581.1,149.5,580.2,148.7,579.4 M164.8,604.2
				l-13.2,0.6l-6.2-0.6c0,4.6-4,7.7-8.3,7.7c-1.3,0-3,0.1-4-1c-1.5-1.6-0.7-4.7-0.2-6.5c0.7-2.7,1.5-5.5,2.3-8.2
				c0.9-3.1,1.9-6.4,4.4-8.7c2-1.7,5.4-2,7.7-0.8c0.9,0.5,1.9,1.8,2.9,1.8c2.3-0.1,4.6-0.3,6.9-0.2c1,0,2.2,0.4,3.1,0.2
				c0.8-0.2,1.5-1.1,2.2-1.5c1.5-0.9,3.8-1.1,5.6-0.7c2.3,0.6,3.9,2.5,5,4.6c1.9,3.8,2.7,8.2,3.9,12.3c0.6,2.1,1.6,5,0.6,7.1
				c-0.8,1.8-3,1.7-4.7,1.7C168.6,611.9,164.9,608.6,164.8,604.2 M148.8,598.9l3.5-0.1v3.1h5.8v-3.1l3.5,0.1c-0.8-2-3.1-3.7-4.6-5.2
				c-0.4-0.4-1.2-1.4-1.8-1.4c-0.6,0-1.4,1-1.8,1.4C151.9,595.2,149.6,596.9,148.8,598.9z"/>
		</g>
		<g id="whatsapp-negative-space-contact_00000094611718396479734430000008013303712295730606_">
			<path class="Graphic_x0020_Style" d="M240.4,538.5c-1.2-1.9-1.9-4.2-1.9-6.6c0-6.9,5.6-12.6,12.6-12.6c6.9,0,12.6,5.6,12.6,12.6
				c0,6.9-5.6,12.6-12.6,12.6c-2.2,0-4.3-0.6-6.1-1.6l-6.9,2.2L240.4,538.5z M245.4,540.6c0.8,0.5,1.7,1,2.6,1.2
				c1,0.3,2,0.5,3.1,0.5c5.8,0,10.5-4.7,10.5-10.5c0-5.8-4.7-10.5-10.5-10.5c-5.8,0-10.5,4.7-10.5,10.5c0,1.3,0.3,2.6,0.7,3.8
				c0.3,0.8,0.7,1.5,1.2,2.2l-1.5,4.2L245.4,540.6z"/>
			<path class="Graphic_x0020_Style" d="M246.4,525.8c0.1-0.1,1-0.3,1.6,0c0.3,0.1,1.4,2.9,1.4,3.3c0,0.4-1.1,1.2-1.3,1.6
				c0.1,0.8,0.9,1.8,2,2.7c1.3,1.1,1.9,1.7,2.7,1.7c0.8,0,1.5-1.7,1.9-1.7c0.4,0,2.8,1.5,3.1,1.7c0.2,0.1-0.1,1.7-0.5,2
				c-0.5,0.6-2,1.1-2.9,1c-1.1-0.1-2.4-0.7-3.9-1.5c-1.6-0.9-2.7-2.1-3.5-3.2c-1.7-1.8-2.1-4-2-5.3
				C245,527.5,245.9,526.2,246.4,525.8z"/>
		</g>
		<g id="instagram-negative-space-contact_00000078018223441615512410000007043356789787319694_">
			<path class="Graphic_x0020_Style" d="M250.2,485.6c2.8,0,6.1,0,7.1,0.1c1.5,0.1,2.8,0.6,3.8,1.3c1.3,0.9,2.2,2.2,2.7,3.8
				c0.3,1.2,0.4,2.3,0.4,7.5c0,5.9-0.1,6.8-0.6,8.3c-0.6,1.7-2,3.2-3.6,3.8c-1.4,0.6-2.2,0.7-5,0.7c-1.1,0-2.4,0-2.9,0
				c-0.5,0-2.1,0-3.6,0c-3.3,0-4-0.1-5.3-0.5c-1.1-0.4-1.7-0.7-2.5-1.5c-0.6-0.5-0.9-1-1.2-1.6c-0.6-1.1-0.8-2-1-3.8
				c-0.1-1-0.1-7.2-0.1-9.2c0.1-2,0.1-2.8,0.4-3.7c0.4-1.4,0.9-2.4,1.9-3.3c1.3-1.2,2.8-1.8,5.2-1.9
				C246.9,485.6,248.5,485.6,250.2,485.6z M251.4,487.7c-5.6,0-6.3,0-7.5,0.4c-1.7,0.6-2.8,2-3.1,4c-0.1,0.9-0.2,3-0.2,6.2
				c0,5.3,0.1,6.6,0.5,7.7c0.3,0.7,0.5,1,1,1.5c0.5,0.5,0.6,0.5,1.1,0.8c0.6,0.3,1.3,0.5,2.1,0.6c1.2,0.1,6.9,0.2,9.9,0.1
				c0.9,0,1.8-0.1,2.1-0.1c0.8-0.1,1.4-0.3,2-0.6c0.5-0.2,0.6-0.3,1-0.7c0.6-0.6,0.9-1.1,1.2-1.8c0.3-0.9,0.4-1.4,0.4-4
				c0.1-2.4,0-8.7-0.1-9.5c-0.1-1-0.3-1.7-0.7-2.4c-0.3-0.4-1.1-1.2-1.5-1.5c-0.4-0.2-1.2-0.5-1.8-0.6
				C256.8,487.7,255.9,487.7,251.4,487.7z"/>
			<path class="Graphic_x0020_Style" d="M258.2,490.1c0.3,0,0.4,0,0.7,0.1c0.3,0.2,0.6,0.5,0.8,0.8c0.3,0.9-0.2,1.8-1.1,2
				c-0.3,0.1-0.3,0.1-0.6,0c-0.5-0.1-0.9-0.4-1.1-0.9c-0.3-0.8,0-1.6,0.7-2C257.8,490.1,257.9,490.1,258.2,490.1z"/>
			<path class="Graphic_x0020_Style" d="M251.4,491.9c0.5,0,0.9,0,1.2,0.1c2.7,0.5,4.8,2.6,5.3,5.3c0.1,0.6,0.1,1.7,0,2.3
				c-0.3,1.4-0.9,2.5-1.8,3.5c-1.5,1.5-3.5,2.2-5.5,1.9c-1.4-0.2-2.7-0.8-3.7-1.9c-1.3-1.3-1.9-2.8-1.9-4.7c0-0.8,0.1-1.3,0.3-2
				c0.7-2.2,2.7-3.9,5-4.4C250.5,491.9,250.9,491.9,251.4,491.9z M251.4,494.2c-0.6,0-0.8,0-1.1,0.1c-1.4,0.4-2.5,1.4-2.9,2.8
				c-0.5,1.5-0.1,3.1,1,4.2c1.1,1.1,2.5,1.6,3.9,1.3c0.6-0.1,1-0.3,1.5-0.6c1.4-0.9,2.1-2.5,1.9-4.1c-0.2-1.5-1.1-2.8-2.4-3.4
				C252.5,494.2,252.2,494.2,251.4,494.2z"/>
		</g>
	</g>
</g>
<path id="github-cat" class="st6" d="M235.1,311.7c-1.1,1.6-1,4.3-0.5,6.3c-2.5,2.8-2.8,6.7-1.9,10.2c0.7,4.3,4.7,7.1,8.9,7.6
	c1.8,0.1,1.3,0.2,0.7,1.1c-0.3,0.5-0.5,1.3-0.5,2.2c-2.1,1.7-5.7,0.9-7-1.5c-0.3-1.6-4.9-3.8-4.4-1.6c2.9,1.4,2.9,5.3,5.7,6.6
	c1.4,1.6,5-0.3,5.6,0.9l0,14.8l11.4,0.1c0,0,0.8-19.9-1.3-22.3c4-0.4,8.4-2.1,9.9-6.1c1.4-3.9,1.5-8.8-1.5-11.9
	c0.7-2,0.5-4.3-0.3-6.3c-2.4,0-4.5,1.2-6.5,2.4c-3.9-1.1-8.1-1.1-12,0C239.6,313,237.5,311.7,235.1,311.7L235.1,311.7z"/>
<g id="favicon">
	<circle id="circle2006" class="st7" cx="258.2" cy="433.2" r="25.6"/>
	<text transform="matrix(1 0 0 1 244.1193 448.0084)" class="st0 st8 st9">s</text>
</g>
<path id="instagram" class="st0" d="M138.5,158c-3.5,0.1-6.9,0.6-10.3,1.5l0,0c-24.6,6.6-39.4,32.3-32.8,56.9
	c6.6,24.6,32.2,39.5,56.8,32.9l0,0c24.6-6.6,39.4-32.3,32.8-56.9C179.4,171.6,160,157.2,138.5,158L138.5,158z M137.8,178.6
	c5.7,0,12.4,0.1,14.4,0.3c3,0.3,5.7,1.2,7.7,2.5c2.6,1.8,4.5,4.5,5.4,7.7c0.7,2.4,0.8,4.7,0.8,15.1c0,12-0.1,13.7-1.2,16.7
	c-1.2,3.5-3.9,6.4-7.2,7.7c-2.9,1.2-4.4,1.4-10,1.5c-2.2,0-4.8,0.1-5.9,0.1c-1.1,0-4.3,0-7.2,0c-6.7-0.1-8.1-0.2-10.6-1.1
	c-2.2-0.8-3.4-1.5-5-3c-1.1-1.1-1.9-2.1-2.5-3.2c-1.2-2.3-1.6-4.1-1.9-7.6c-0.2-2-0.2-14.5-0.1-18.5c0.1-4.1,0.3-5.7,0.7-7.4
	c0.7-2.9,1.9-4.8,3.9-6.8c2.5-2.4,5.7-3.5,10.6-3.9C131.3,178.7,134.4,178.6,137.8,178.6L137.8,178.6L137.8,178.6z M140.4,183.3
	c-11.1,0-12.6,0.1-14.9,0.9c-3.4,1.1-5.5,3.9-6.1,8c-0.2,1.7-0.3,5.9-0.3,12.3c0,10.5,0.2,13.1,1.1,15.2c0.5,1.3,0.9,1.9,2,3
	c1,1,1.1,1.1,2.1,1.6c1.3,0.6,2.6,1,4.1,1.1c2.4,0.3,13.7,0.4,19.6,0.2c1.8-0.1,3.7-0.1,4.2-0.2c1.5-0.2,2.8-0.5,4-1.1
	c0.9-0.4,1.2-0.6,2-1.4c1.2-1.2,1.9-2.1,2.4-3.6c0.6-1.8,0.7-2.8,0.8-7.9c0.1-4.7,0-17.3-0.2-18.8c-0.2-1.9-0.7-3.4-1.4-4.7
	c-0.5-0.9-2.1-2.5-3-3c-0.8-0.5-2.4-1-3.6-1.2C151.2,183.3,149.4,183.3,140.4,183.3L140.4,183.3z M154,187.7c0.7,0,0.9,0,1.4,0.3
	c0.7,0.3,1.3,1,1.5,1.7c0.7,1.8-0.3,3.7-2.2,4.1c-0.6,0.1-0.7,0.1-1.2,0c-1-0.2-1.8-0.8-2.2-1.8c-0.7-1.6-0.1-3.3,1.5-4.1
	C153.1,187.7,153.3,187.7,154,187.7L154,187.7L154,187.7z M140.3,191.2c0.9,0,1.9,0.1,2.4,0.2c5.4,1.1,9.6,5.3,10.6,10.8
	c0.2,1.3,0.2,3.5,0,4.6c-0.5,2.7-1.8,5.1-3.7,7c-2.9,2.9-7.1,4.3-11.1,3.8l0,0c-2.9-0.4-5.5-1.7-7.6-3.8c-2.6-2.6-3.9-5.7-3.9-9.5
	c0-1.7,0.1-2.5,0.6-4.1c1.5-4.5,5.4-7.9,10.2-8.8C138.4,191.3,139.3,191.2,140.3,191.2L140.3,191.2L140.3,191.2z M140.2,195.9
	c-1.3,0-1.6,0-2.3,0.3c-2.9,0.9-5,2.9-5.9,5.7c-0.9,3-0.2,6.2,2,8.5c2.1,2.2,5,3.1,7.9,2.5c1.2-0.2,2-0.6,3-1.2
	c2.8-1.8,4.3-5,3.9-8.2c-0.4-3-2.2-5.6-4.9-6.8C142.5,196,141.8,195.9,140.2,195.9L140.2,195.9z"/>
<path id="itch-io" class="st0" d="M146.6,264.6c-1.4,0-2.7,0.1-4.1,0.2c-1.4,0.1-2.7,0.3-4,0.5c-1.3,0.2-2.7,0.5-4,0.8
	c-1.3,0.3-2.6,0.7-3.9,1.1c-1.3,0.4-2.6,0.8-3.8,1.3c-1.3,0.5-2.5,1-3.7,1.6c-1.2,0.6-2.4,1.2-3.6,1.9c-1.2,0.7-2.3,1.4-3.4,2.2
	c-1.1,0.8-2.2,1.6-3.3,2.4c-1.1,0.8-2.1,1.7-3.1,2.7c-1,0.9-2,1.9-2.9,2.9c-0.9,1-1.8,2-2.7,3.1c-0.8,1.1-1.7,2.2-2.4,3.3
	c-0.8,1.1-1.5,2.3-2.2,3.4c-0.7,1.2-1.3,2.4-1.9,3.6c-0.6,1.2-1.1,2.5-1.6,3.7c-0.5,1.3-0.9,2.5-1.3,3.8c-0.4,1.3-0.8,2.6-1.1,3.9
	c-0.3,1.3-0.6,2.7-0.8,4c-0.2,1.3-0.4,2.7-0.5,4c-0.1,1.4-0.2,2.7-0.2,4.1c0,1.4,0.1,2.7,0.2,4.1c0.1,1.4,0.3,2.7,0.5,4
	c0.2,1.3,0.5,2.7,0.8,4c0.3,1.3,0.7,2.6,1.1,3.9c0.4,1.3,0.8,2.6,1.3,3.8c0.5,1.3,1,2.5,1.6,3.7c0.6,1.2,1.2,2.4,1.9,3.6
	c0.7,1.2,1.4,2.3,2.2,3.4c0.8,1.1,1.6,2.2,2.4,3.3c0.8,1.1,1.7,2.1,2.7,3.1c0.9,1,1.9,2,2.9,2.9c1,0.9,2,1.8,3.1,2.7
	s2.2,1.7,3.3,2.4c1.1,0.8,2.3,1.5,3.4,2.2c1.2,0.7,2.4,1.3,3.6,1.9c1.2,0.6,2.5,1.1,3.7,1.6c1.3,0.5,2.5,0.9,3.8,1.3
	c1.3,0.4,2.6,0.8,3.9,1.1c1.3,0.3,2.7,0.6,4,0.8c1.3,0.2,2.7,0.4,4,0.5c1.4,0.1,2.7,0.2,4.1,0.2c1.4,0,2.7-0.1,4.1-0.2
	c1.4-0.1,2.7-0.3,4-0.5c1.3-0.2,2.7-0.5,4-0.8c1.3-0.3,2.6-0.7,3.9-1.1c1.3-0.4,2.6-0.8,3.8-1.3c1.3-0.5,2.5-1,3.7-1.6
	c1.2-0.6,2.4-1.2,3.6-1.9c1.2-0.7,2.3-1.4,3.4-2.2c1.1-0.8,2.2-1.6,3.3-2.4c1.1-0.8,2.1-1.7,3.1-2.7c1-0.9,2-1.9,2.9-2.9
	c0.9-1,1.8-2,2.7-3.1c0.8-1.1,1.7-2.2,2.4-3.3c0.8-1.1,1.5-2.3,2.2-3.4c0.7-1.2,1.3-2.4,1.9-3.6s1.1-2.5,1.6-3.7
	c0.5-1.3,0.9-2.5,1.3-3.8c0.4-1.3,0.8-2.6,1.1-3.9c0.3-1.3,0.6-2.7,0.8-4c0.2-1.3,0.4-2.7,0.5-4c0.1-1.4,0.2-2.7,0.2-4.1
	c0-0.5,0-0.9,0-1.4c0-0.5,0-0.9-0.1-1.4c0-0.5-0.1-0.9-0.1-1.4c0-0.5-0.1-0.9-0.1-1.4c0-0.5-0.1-0.9-0.2-1.4
	c-0.1-0.5-0.1-0.9-0.2-1.4c-0.1-0.5-0.1-0.9-0.2-1.4c-0.1-0.5-0.2-0.9-0.3-1.4c-0.1-0.5-0.2-0.9-0.3-1.4c-0.1-0.5-0.2-0.9-0.3-1.4
	c-0.1-0.5-0.2-0.9-0.4-1.3c-0.1-0.4-0.3-0.9-0.4-1.3c-0.1-0.4-0.3-0.9-0.4-1.3c-0.2-0.4-0.3-0.9-0.5-1.3c-0.2-0.4-0.3-0.9-0.5-1.3
	c-0.2-0.4-0.4-0.9-0.5-1.3c-0.2-0.4-0.4-0.9-0.6-1.3c-0.2-0.4-0.4-0.8-0.6-1.3c-0.2-0.4-0.4-0.8-0.6-1.2c-0.2-0.4-0.4-0.8-0.7-1.2
	c-0.2-0.4-0.5-0.8-0.7-1.2c-0.2-0.4-0.5-0.8-0.7-1.2c-0.2-0.4-0.5-0.8-0.8-1.2c-0.3-0.4-0.5-0.8-0.8-1.2c-0.3-0.4-0.5-0.8-0.8-1.1
	c-0.3-0.4-0.6-0.7-0.9-1.1c-0.3-0.4-0.6-0.7-0.9-1.1c-0.3-0.4-0.6-0.7-0.9-1.1c-0.3-0.4-0.6-0.7-0.9-1c-0.3-0.3-0.6-0.7-1-1
	c-0.3-0.3-0.7-0.7-1-1c-0.3-0.3-0.7-0.6-1-1c-0.3-0.3-0.7-0.6-1-0.9c-0.4-0.3-0.7-0.6-1.1-0.9c-0.4-0.3-0.7-0.6-1.1-0.9
	c-0.4-0.3-0.7-0.6-1.1-0.9c-0.4-0.3-0.8-0.6-1.1-0.8c-0.4-0.3-0.8-0.5-1.2-0.8s-0.8-0.5-1.2-0.8c-0.4-0.3-0.8-0.5-1.2-0.7
	s-0.8-0.5-1.2-0.7c-0.4-0.2-0.8-0.5-1.2-0.7c-0.4-0.2-0.8-0.4-1.2-0.6c-0.4-0.2-0.8-0.4-1.3-0.6c-0.4-0.2-0.8-0.4-1.3-0.6
	c-0.4-0.2-0.9-0.4-1.3-0.5c-0.4-0.2-0.9-0.3-1.3-0.5c-0.4-0.2-0.9-0.3-1.3-0.5c-0.4-0.2-0.9-0.3-1.3-0.4c-0.4-0.1-0.9-0.3-1.3-0.4
	c-0.4-0.1-0.9-0.3-1.3-0.4c-0.5-0.1-0.9-0.2-1.4-0.3c-0.5-0.1-0.9-0.2-1.4-0.3c-0.5-0.1-0.9-0.2-1.4-0.3c-0.5-0.1-0.9-0.2-1.4-0.2
	c-0.5-0.1-0.9-0.1-1.4-0.2c-0.5-0.1-0.9-0.1-1.4-0.2c-0.5,0-0.9-0.1-1.4-0.1c-0.5,0-0.9-0.1-1.4-0.1c-0.5,0-0.9,0-1.4-0.1
	C147.6,264.6,147.1,264.6,146.6,264.6L146.6,264.6L146.6,264.6z M144.4,290.3c4.1,0,8.2,0,12.2,0c3.7,0,7.3,0.2,11,0.3
	c1.5,0,3.8-0.4,5.1,0.6c2.4,1.7,4.6,4.2,6.3,6.5c0.7,0.9,1.6,1.9,1.8,3.1c0.4,2.3,0.1,5-1.2,6.9c-2.4,3.5-7.2,4.2-10.3,1.2
	c-1.3-1.3-1.6-2.7-2.1-4.4c-0.1,4.7-5.5,7.7-9.6,5.8c-2.3-1.1-3.3-3.2-3.9-5.5h-0.1c-0.4,8.1-13.7,7.9-13.9-0.1h-0.1
	c-0.3,2.2-1.4,4.3-3.5,5.4c-4.2,2.3-9.8-0.7-10-5.6h-0.1c-0.1,4-4.3,7.1-8.2,6.2c-2.9-0.7-5-3.5-5.3-6.3c-0.1-1.1-0.2-2.7,0.1-3.7
	c0.7-2.5,3.3-5,5.1-6.8c1-1,2.3-2.6,3.7-3c1-0.3,2.2-0.1,3.2-0.2c2.5-0.1,5.1-0.1,7.6-0.1C136.3,290.3,140.3,290.3,144.4,290.3
	L144.4,290.3L144.4,290.3z M139.4,309.2c0.9,0.8,1.5,1.8,2.5,2.5c2.5,1.8,6.2,1.9,8.8,0.3c1.3-0.8,2-2,3.1-2.9
	c3,5.3,10.2,4.9,13.5,0.1h0.3c1,1.6,2.7,2.9,4.5,3.5c0.6,0.2,2.7,0.1,3,0.6c0.4,0.7,0.2,2,0.2,2.8c0.1,2.1,0.3,4.1,0.3,6.1
	c0,6.4,0.3,12.8-0.4,19.1c-0.3,2.6-0.5,5.9-2.1,8c-0.7,0.9-2.2,0.9-3.3,1.1c-2.7,0.4-5.4,0.5-8,0.9c-2.9,0.4-5.8,0.2-8.7,0.4
	c-7.4,0.3-14.8,0.1-22.2-0.4c-2.6-0.2-5.3-0.4-7.9-0.8c-0.8-0.1-2.2-0.2-2.8-0.8c-2.2-2.3-2.1-6.8-2.4-9.7C117,331,118,322,118,313
	c3.2,0.1,5.7-1.1,7.6-3.7h0.3C129,313.8,136.6,314.7,139.4,309.2L139.4,309.2L139.4,309.2z M134.2,316.4c-1.7,0.1-3.5,0.6-4.7,1.7
	c-2.8,2.5-3.9,6.1-4.9,9.6c-0.8,3-1.7,6-2.5,9.1c-0.5,2-1.4,5.5,0.2,7.2c1.1,1.2,2.9,1.1,4.4,1.1c4.8,0,9.2-3.5,9.2-8.6l6.8,0.7
	l14.6-0.7c0,4.9,4.2,8.5,9,8.6c1.8,0,4.3,0.1,5.2-1.9c1.1-2.3-0.1-5.6-0.7-7.9c-1.3-4.5-2.1-9.4-4.3-13.6c-1.2-2.3-3-4.4-5.5-5.1
	c-1.9-0.5-4.4-0.2-6.1,0.8c-0.8,0.5-1.5,1.5-2.4,1.7c-1,0.2-2.4-0.2-3.5-0.2c-2.6-0.1-5.1,0.1-7.6,0.2c-1.1,0.1-2.2-1.4-3.2-1.9
	C136.9,316.6,135.6,316.4,134.2,316.4L134.2,316.4L134.2,316.4z M146.6,323.3c0.7,0,1.5,1.1,2,1.6c1.6,1.6,4.2,3.5,5.1,5.7l-3.9-0.1
	v3.5h-6.4v-3.5l-3.9,0.1c0.9-2.2,3.4-4.1,5.1-5.7C145.1,324.5,145.9,323.3,146.6,323.3z"/>
<path id="github" class="st10" d="M272.7,164.4c30.6-1.1,58.2,19.2,66.1,48.8c9.4,34.9-11.6,71.3-46.5,80.7
	c-34.9,9.3-71.3-11.7-80.7-46.6c-9.4-34.9,11.6-71.3,46.5-80.7C262.9,165.3,267.8,164.6,272.7,164.4L272.7,164.4z M247.2,190.2
	c-2.5,3.8-2.2,9.9-1.1,14.4c-5.7,6.4-6.5,15.6-4.5,23.6c1.7,9.8,11,16.4,20.5,17.5c4.1,0.2,2.9,0.5,1.6,2.4c-0.7,1.1-1.2,3-1.3,5
	c-4.8,3.8-13.2,2.1-16.1-3.6c-0.8-3.8-11.3-8.7-10.3-3.7c6.7,3.2,6.7,12.2,13.2,15.3c3.2,3.6,11.4-0.7,12.9,2.1
	c0,0,0.4,11.9,0.9,13.2c2.8,7.8,23.4,8,25.1,0.1c0.4-1.9,2.2-25.3-2.5-30.4c9.2-0.9,19.4-4.8,22.8-14.1c3.2-8.9,3.6-20.2-3.4-27.5
	c1.5-4.6,1.1-9.9-0.6-14.5c-5.5-0.1-10.5,2.7-14.9,5.6c-9-2.5-18.8-2.5-27.8,0C257.4,193.1,252.6,190.1,247.2,190.2L247.2,190.2z"/>
</svg>
