<?xml version="1.0" encoding="UTF-8" standalone="no"?>
<!-- Created with Inkscape (http://www.inkscape.org/) -->

<svg
   width="1080"
   height="1280"
   viewBox="0 0 285.75 338.66669"
   version="1.1"
   id="svg5"
   inkscape:version="1.2.1 (9c6d41e, 2022-07-14)"
   xml:space="preserve"
   sodipodi:docname="icon-sheet.svg"
   inkscape:export-filename="../../public/logo512.png"
   inkscape:export-xdpi="598.69116"
   inkscape:export-ydpi="598.69116"
   xmlns:inkscape="http://www.inkscape.org/namespaces/inkscape"
   xmlns:sodipodi="http://sodipodi.sourceforge.net/DTD/sodipodi-0.dtd"
   xmlns="http://www.w3.org/2000/svg"
   xmlns:svg="http://www.w3.org/2000/svg"
   xmlns:rdf="http://www.w3.org/1999/02/22-rdf-syntax-ns#"
   xmlns:cc="http://creativecommons.org/ns#"
   xmlns:dc="http://purl.org/dc/elements/1.1/"><sodipodi:namedview
     id="namedview7"
     pagecolor="#ffffff"
     bordercolor="#666666"
     borderopacity="1"
     inkscape:pageshadow="2"
     inkscape:pageopacity="0.0"
     inkscape:pagecheckerboard="false"
     inkscape:document-units="px"
     showgrid="false"
     units="px"
     inkscape:showpageshadow="false"
     inkscape:zoom="0.50233472"
     inkscape:cx="729.5932"
     inkscape:cy="614.13234"
     inkscape:window-width="1366"
     inkscape:window-height="745"
     inkscape:window-x="0"
     inkscape:window-y="0"
     inkscape:window-maximized="1"
     inkscape:current-layer="layer1"
     inkscape:deskcolor="#d1d1d1"
     showborder="false"
     borderlayer="false" /><defs
     id="defs2"><inkscape:path-effect
       effect="bool_op"
       operand-path=""
       id="path-effect3032"
       is_visible="false"
       lpeversion="1"
       operation="diff"
       swap-operands="true"
       filltype-this="from-curve"
       filter=""
       filltype-operand="from-curve" /><filter
       id="selectable_hidder_filter"
       width="1"
       height="1"
       x="0"
       y="0"
       style="color-interpolation-filters:sRGB;"
       inkscape:label="LPE boolean visibility"><feComposite
         id="boolops_hidder_primitive"
         result="composite1"
         operator="arithmetic"
         in2="SourceGraphic"
         in="BackgroundImage" /></filter><inkscape:path-effect
       effect="bool_op"
       operand-path=""
       id="path-effect2921"
       is_visible="true"
       lpeversion="1"
       operation="cut-both"
       swap-operands="false"
       filltype-this="from-curve"
       filter=""
       filltype-operand="from-curve" /></defs><g
     inkscape:label="Layer 1"
     inkscape:groupmode="layer"
     id="layer1"><path
       style="fill:#000000;stroke-width:2.65525;stroke-linecap:round;stroke-linejoin:bevel;stroke-opacity:0.996078;paint-order:fill markers stroke"
       d="m 149.57702,119.52169 c -11.12186,-0.0374 -22.26396,4.56745 -29.61033,13.00274 -10.58705,11.36412 -13.17772,30.28058 -6.51902,44.24561 4.59912,9.78398 13.47205,16.91493 23.9191,19.95559 l 1.20793,-0.21334 c 2.04974,-1.85446 0.85194,-5.20273 1.1542,-7.77453 -1.05186,-2.0177 -7.01309,1.0792 -9.28533,-1.53228 -4.71279,-2.25187 -4.70563,-8.75648 -9.50583,-11.03557 -0.73562,-3.59018 6.80977,-0.0778 7.39081,2.66143 2.08457,4.07858 8.1403,5.32162 11.57686,2.57344 -0.14175,-2.59286 4.688,-5.77439 -0.27679,-5.37914 -6.84203,-0.81628 -13.49749,-5.52461 -14.73199,-12.61237 -1.42605,-5.77587 -0.87287,-12.39897 3.24007,-17 -0.81548,-3.26592 -1.00588,-7.68317 0.77101,-10.40013 3.89253,-0.0341 7.34072,2.0966 10.57459,4.02949 6.50677,-1.75456 13.51417,-1.8 20.00881,0.0354 3.20411,-2.09784 6.79467,-4.12815 10.73371,-4.06479 1.19006,3.29586 1.53231,7.07592 0.4231,10.42316 5.00663,5.26771 4.72322,13.41185 2.43889,19.83435 -2.479,6.69305 -9.85231,9.54756 -16.44233,10.18373 3.50284,3.86225 2.14165,9.34473 2.52738,14.0756 -0.19455,4.18812 0.98364,7.18512 5.88358,4.95346 15.18861,-6.3426 25.88095,-22.62639 24.43021,-39.0389 -0.9261,-16.10413 -13.39898,-30.99824 -28.93498,-35.30818 -3.56153,-1.07415 -7.26638,-1.60221 -10.97365,-1.61466 z"
       id="path676" /><path
       style="fill:#000000;stroke-width:0.178376"
       d="m 45.78344,183.94316 c -18.71109,-1.50535 -35.63219,-15.67334 -40.1277398,-33.9445 -3.2649,-21.22425 1.44898,-35.35084 14.6611598,-46.31753 13.8719,-12.116344 35.28157,-14.316354 51.322555,-5.259564 16.41739,8.700144 26.16766,28.116194 23.33795,46.471684 -2.51352,19.24662 -18.60069,35.80951 -37.859165,38.59495 -3.7444,0.58416 -7.55589,0.6811 -11.33476,0.45496 z m -6.96279,-7.73468 c 2.07037,-1.87312 0.86026,-5.25501 1.16556,-7.85267 -1.06245,-2.03801 -7.08349,1.0902 -9.37859,-1.54755 -4.76023,-2.27452 -4.75303,-8.8449 -9.60152,-11.14693 -0.74302,-3.62632 6.87818,-0.0781 7.46507,2.68857 2.10554,4.11962 8.22227,5.37525 11.69342,2.5994 -0.14317,-2.61895 4.73534,-5.83261 -0.2794,-5.43338 -6.91088,-0.82449 -13.63325,-5.58001 -14.88018,-12.7391 -1.4404,-5.83399 -0.88205,-12.52384 3.27228,-17.17117 -0.82368,-3.29879 -1.0158,-7.7608 0.77896,-10.5051 3.9317,-0.0344 7.41436,2.11812 10.68077,4.07046 6.57224,-1.77221 13.65028,-1.81837 20.21028,0.0354 3.23635,-2.11897 6.863105,-4.16989 10.841775,-4.10589 1.20204,3.32902 1.54777,7.14727 0.4274,10.5282 5.057,5.32072 4.77076,13.54703 2.46344,20.03416 -2.50394,6.76041 -9.95172,9.64323 -16.608065,10.2858 3.5381,3.90112 2.16332,9.43886 2.55293,14.21732 -0.1965,4.23028 0.99367,7.25756 5.942935,5.00344 15.34144,-6.40643 26.14109,-22.85412 24.67576,-39.43179 -0.93542,-16.26619 -13.53336,-31.31011 -29.225705,-35.66342 -14.38948,-4.339844 -31.09858,0.14251 -40.99231,11.50273 -10.6935898,11.47849 -13.3103098,30.585 -6.58459,44.69056 4.64539,9.88244 13.60719,17.08515 24.15937,20.15642 z"
       id="path665"
       sodipodi:nodetypes="ccccccccccccccccccccccccccccccc" /><g
       id="g1430"
       transform="translate(-142.35808,170.96367)"><path
         id="path1426"
         style="fill:#000000;stroke-width:2.64583;stroke-linecap:round;stroke-linejoin:bevel;stroke-opacity:0.996078;paint-order:fill markers stroke"
         d="M 195.79504,19.778665 A 46.056927,46.056927 0 0 0 149.7379,65.835287 46.056927,46.056927 0 0 0 195.79504,111.89242 46.056927,46.056927 0 0 0 241.85218,65.835287 46.056927,46.056927 0 0 0 195.79504,19.778665 Z m 0,5.665805 a 40.390892,40.390892 0 0 1 1.03973,0.01344 40.390892,40.390892 0 0 1 1.03973,0.04031 40.390892,40.390892 0 0 1 1.03766,0.06666 40.390892,40.390892 0 0 1 1.03612,0.09353 40.390892,40.390892 0 0 1 1.03301,0.120406 40.390892,40.390892 0 0 1 1.02939,0.146761 40.390892,40.390892 0 0 1 1.02578,0.173116 40.390892,40.390892 0 0 1 1.02061,0.199988 40.390892,40.390892 0 0 1 1.01544,0.225826 40.390892,40.390892 0 0 1 1.00873,0.251664 40.390892,40.390892 0 0 1 1.00252,0.278019 40.390892,40.390892 0 0 1 0.99477,0.303341 40.390892,40.390892 0 0 1 0.9865,0.329179 40.390892,40.390892 0 0 1 0.97772,0.353984 40.390892,40.390892 0 0 1 0.96842,0.379821 40.390892,40.390892 0 0 1 0.9586,0.40411 40.390892,40.390892 0 0 1 0.94774,0.428398 40.390892,40.390892 0 0 1 0.93586,0.453202 40.390892,40.390892 0 0 1 0.92449,0.476974 40.390892,40.390892 0 0 1 0.91158,0.500744 40.390892,40.390892 0 0 1 0.89865,0.523482 40.390892,40.390892 0 0 1 0.8847,0.547254 40.390892,40.390892 0 0 1 0.87023,0.569474 40.390892,40.390892 0 0 1 0.85525,0.591695 40.390892,40.390892 0 0 1 0.83974,0.6134 40.390892,40.390892 0 0 1 0.82424,0.634586 40.390892,40.390892 0 0 1 0.80667,0.656291 40.390892,40.390892 0 0 1 0.79013,0.676445 40.390892,40.390892 0 0 1 0.77256,0.696598 40.390892,40.390892 0 0 1 0.75396,0.716235 40.390892,40.390892 0 0 1 0.73536,0.735356 40.390892,40.390892 0 0 1 0.71623,0.753959 40.390892,40.390892 0 0 1 0.6966,0.772563 40.390892,40.390892 0 0 1 0.67644,0.790132 40.390892,40.390892 0 0 1 0.6563,0.807186 40.390892,40.390892 0 0 1 0.63458,0.823723 40.390892,40.390892 0 0 1 0.61392,0.839742 40.390892,40.390892 0 0 1 0.59118,0.855245 40.390892,40.390892 0 0 1 0.56947,0.870231 40.390892,40.390892 0 0 1 0.54725,0.8847 40.390892,40.390892 0 0 1 0.52349,0.898654 40.390892,40.390892 0 0 1 0.50074,0.911572 40.390892,40.390892 0 0 1 0.47697,0.924491 40.390892,40.390892 0 0 1 0.45321,0.935861 40.390892,40.390892 0 0 1 0.42839,0.947745 40.390892,40.390892 0 0 1 0.40463,0.958598 40.390892,40.390892 0 0 1 0.37931,0.968417 40.390892,40.390892 0 0 1 0.35398,0.977718 40.390892,40.390892 0 0 1 0.32918,0.986503 40.390892,40.390892 0 0 1 0.30334,0.994771 40.390892,40.390892 0 0 1 0.27802,1.002523 40.390892,40.390892 0 0 1 0.25166,1.008724 40.390892,40.390892 0 0 1 0.22583,1.015442 40.390892,40.390892 0 0 1 0.19999,1.020609 40.390892,40.390892 0 0 1 0.17311,1.025778 40.390892,40.390892 0 0 1 0.14676,1.029394 40.390892,40.390892 0 0 1 0.12041,1.033012 40.390892,40.390892 0 0 1 0.0935,1.036113 40.390892,40.390892 0 0 1 0.0667,1.037662 40.390892,40.390892 0 0 1 0.0403,1.03973 40.390892,40.390892 0 0 1 0.0134,1.03973 40.390892,40.390892 0 0 1 -0.11265,3.018421 40.390892,40.390892 0 0 1 -0.33849,3.001366 40.390892,40.390892 0 0 1 -0.56172,2.96829 40.390892,40.390892 0 0 1 -0.78135,2.91766 40.390892,40.390892 0 0 1 -0.99787,2.85099 40.390892,40.390892 0 0 1 -1.20768,2.7683 40.390892,40.390892 0 0 1 -1.41128,2.67064 40.390892,40.390892 0 0 1 -1.60714,2.55747 40.390892,40.390892 0 0 1 -1.79369,2.43034 40.390892,40.390892 0 0 1 -1.97042,2.28927 40.390892,40.390892 0 0 1 -2.13578,2.13578 40.390892,40.390892 0 0 1 -2.28927,1.97042 40.390892,40.390892 0 0 1 -2.43034,1.79369 40.390892,40.390892 0 0 1 -2.55747,1.607136 40.390892,40.390892 0 0 1 -2.67064,1.41128 40.390892,40.390892 0 0 1 -2.76882,1.20768 40.390892,40.390892 0 0 1 -2.85099,0.99787 40.390892,40.390892 0 0 1 -2.91765,0.78187 40.390892,40.390892 0 0 1 -2.96778,0.56121 40.390892,40.390892 0 0 1 -3.00137,0.33848 40.390892,40.390892 0 0 1 -3.01842,0.11265 40.390892,40.390892 0 0 1 -3.01842,-0.11265 40.390892,40.390892 0 0 1 -3.00137,-0.33848 40.390892,40.390892 0 0 1 -2.96829,-0.56121 40.390892,40.390892 0 0 1 -2.91713,-0.78187 40.390892,40.390892 0 0 1 -2.85151,-0.99787 40.390892,40.390892 0 0 1 -2.76831,-1.20768 40.390892,40.390892 0 0 1 -2.67063,-1.41128 40.390892,40.390892 0 0 1 -2.55747,-1.607136 40.390892,40.390892 0 0 1 -2.43034,-1.79369 40.390892,40.390892 0 0 1 -2.28927,-1.97042 40.390892,40.390892 0 0 1 -2.13579,-2.13578 40.390892,40.390892 0 0 1 -1.97042,-2.28927 40.390892,40.390892 0 0 1 -1.79369,-2.43034 40.390892,40.390892 0 0 1 -1.60714,-2.55747 40.390892,40.390892 0 0 1 -1.41128,-2.67064 40.390892,40.390892 0 0 1 -1.20768,-2.7683 40.390892,40.390892 0 0 1 -0.99787,-2.85099 40.390892,40.390892 0 0 1 -0.78186,-2.91766 40.390892,40.390892 0 0 1 -0.56121,-2.96829 40.390892,40.390892 0 0 1 -0.33848,-3.001366 40.390892,40.390892 0 0 1 -0.11266,-3.018421 40.390892,40.390892 0 0 1 0.11266,-3.01842 40.390892,40.390892 0 0 1 0.33848,-3.001368 40.390892,40.390892 0 0 1 0.56121,-2.967777 40.390892,40.390892 0 0 1 0.78186,-2.917652 40.390892,40.390892 0 0 1 0.99787,-2.850989 40.390892,40.390892 0 0 1 1.20768,-2.768823 40.390892,40.390892 0 0 1 1.41128,-2.670121 40.390892,40.390892 0 0 1 1.60714,-2.557984 40.390892,40.390892 0 0 1 1.79369,-2.430342 40.390892,40.390892 0 0 1 1.97042,-2.289266 40.390892,40.390892 0 0 1 2.13579,-2.135787 40.390892,40.390892 0 0 1 2.28927,-1.970423 40.390892,40.390892 0 0 1 2.43034,-1.793689 40.390892,40.390892 0 0 1 2.55747,-1.60662 40.390892,40.390892 0 0 1 2.67063,-1.4118 40.390892,40.390892 0 0 1 2.76831,-1.207679 40.390892,40.390892 0 0 1 2.85151,-0.997872 40.390892,40.390892 0 0 1 2.91713,-0.781347 40.390892,40.390892 0 0 1 2.96829,-0.561723 40.390892,40.390892 0 0 1 3.00137,-0.337964 40.390892,40.390892 0 0 1 3.01842,-0.113171 z" /><path
         style="fill:#020202;stroke:none;stroke-width:0.108574"
         d="m 178.95567,53.953767 h 0.10858 c 0.17154,3.9862 4.69638,6.37972 8.14308,4.52495 1.64642,-0.88608 2.58972,-2.61057 2.82294,-4.41638 h 0.10857 c 0.13583,6.54541 11.00652,6.64965 11.29174,0.10858 h 0.10858 c 0.46665,1.89354 1.25675,3.59294 3.14866,4.4623 3.3834,1.55468 7.73734,-0.82256 7.81736,-4.67945 0.42974,1.35848 0.66469,2.52935 1.73882,3.57861 2.51979,2.46139 6.42316,1.90223 8.34884,-0.97282 1.04166,-1.55512 1.2727,-3.81585 0.95122,-5.64588 -0.16308,-0.92856 -0.89455,-1.7661 -1.44383,-2.49721 -1.4385,-1.91505 -3.16798,-3.92198 -5.1435,-5.30121 -1.07814,-0.75276 -2.87407,-0.43876 -4.12583,-0.45365 -2.96571,-0.0353 -5.93229,-0.21673 -8.9031,-0.21673 -6.62261,0 -13.25564,-0.0551 -19.86913,0.10699 -2.06617,0.0506 -4.12746,0.0156 -6.18874,0.10588 -0.85092,0.0373 -1.78295,-0.1298 -2.60579,0.13722 -1.18362,0.38413 -2.18807,1.62083 -3.04008,2.47284 -1.45844,1.45844 -3.62103,3.47003 -4.16789,5.5373 -0.23248,0.8788 -0.13543,2.13761 -0.0481,3.04008 0.22582,2.33359 1.99745,4.60345 4.32455,5.15696 3.12572,0.74341 6.55561,-1.80146 6.62304,-5.04838 m 10.96602,3.8001 c -2.25173,4.52039 -8.44384,3.80141 -10.96602,0.10858 h -0.21715 c -1.5288,2.12632 -3.59791,3.14421 -6.18874,3.04008 0,7.24724 -0.82015,14.56928 -0.12701,21.82347 0.22875,2.39407 0.17898,6.02729 1.96188,7.89564 0.50747,0.53191 1.60105,0.53473 2.29096,0.6546 2.11509,0.36731 4.26893,0.54113 6.40589,0.68836 5.98506,0.41215 12.02082,0.58304 18.02336,0.32019 2.34271,-0.1025 4.72939,0.0218 7.05734,-0.28393 2.16161,-0.28381 4.34699,-0.39966 6.51447,-0.69748 0.86349,-0.11867 2.10124,-0.12974 2.66659,-0.87457 1.30767,-1.72286 1.48736,-4.43385 1.69474,-6.50849 0.51399,-5.14089 0.30737,-10.35768 0.30737,-15.52615 0,-1.67324 -0.13919,-3.32715 -0.21291,-4.99442 -0.0272,-0.61866 0.0932,-1.6917 -0.19337,-2.24511 -0.20966,-0.40487 -1.93752,-0.32735 -2.41666,-0.47349 -1.49138,-0.45525 -2.86615,-1.4992 -3.69153,-2.8187 h -0.21715 c -2.64086,3.86655 -8.50008,4.21953 -10.96602,-0.10858 -0.89107,0.73592 -1.47162,1.70082 -2.49721,2.32176 -2.15151,1.30279 -5.1156,1.18542 -7.16592,-0.26351 -0.81354,-0.5749 -1.34284,-1.40072 -2.06291,-2.05825 m 14.54898,22.25777 -11.83462,0.54124 -5.5373,-0.54124 c -0.0113,4.09673 -3.56352,6.94724 -7.49163,6.94876 -1.18267,4.4e-4 -2.67702,0.0598 -3.55983,-0.87999 -1.33481,-1.42092 -0.59727,-4.19738 -0.17192,-5.85162 0.63597,-2.47333 1.37299,-4.92266 2.05705,-7.38307 0.78347,-2.81783 1.67372,-5.79223 3.95476,-7.79738 1.78735,-1.57107 4.83428,-1.80787 6.94877,-0.75068 0.81192,0.40596 1.68214,1.62666 2.60578,1.57878 2.06683,-0.10727 4.11052,-0.24592 6.18875,-0.195 0.86588,0.0212 1.97887,0.37024 2.82293,0.17936 0.70932,-0.16036 1.3182,-1.02114 1.95434,-1.38877 1.38259,-0.799 3.44692,-1.02679 4.99443,-0.62105 2.07323,0.54353 3.53681,2.25857 4.47804,4.10889 1.74262,3.42585 2.4236,7.3961 3.47949,11.0746 0.53093,1.84978 1.43611,4.53276 0.58152,6.40589 -0.73244,1.60571 -2.70198,1.52721 -4.19607,1.51993 -3.85092,-0.0186 -7.26364,-3.00382 -7.27449,-6.94865 m -14.44041,-4.77728 3.14866,-0.10857 v 2.82293 h 5.21158 v -2.82293 l 3.14866,0.10857 c -0.69347,-1.80277 -2.78928,-3.33269 -4.12583,-4.6687 -0.37317,-0.37306 -1.04449,-1.28368 -1.62862,-1.28368 -0.58413,0 -1.25545,0.91062 -1.62862,1.28368 -1.34057,1.34003 -3.42975,2.85909 -4.12583,4.6687 z"
         id="path1428" /></g><path
       id="path1436"
       style="fill:#000000;fill-opacity:1;stroke-width:2.64583;stroke-linecap:round;stroke-linejoin:bevel;stroke-opacity:0.996078;paint-order:fill markers stroke"
       d="m 144.5557,238.13207 c -1.0072,8e-5 -2.01404,0.0378 -3.01842,0.11317 -1.00432,0.0752 -2.00548,0.18793 -3.00137,0.33796 -0.99609,0.15016 -1.98621,0.33754 -2.96829,0.56173 -0.98178,0.22399 -1.95484,0.48462 -2.91714,0.78134 -0.96261,0.29695 -1.91378,0.62981 -2.8515,0.99788 -0.9375,0.3679 -1.86092,0.77074 -2.76831,1.20767 -0.90751,0.43713 -1.79834,0.90806 -2.67064,1.4118 -0.87222,0.50347 -1.72531,1.03939 -2.55747,1.60663 -0.83219,0.56738 -1.64287,1.16569 -2.43034,1.79368 -0.78739,0.62804 -1.55101,1.28531 -2.28926,1.97043 -0.73831,0.68505 -1.45074,1.39747 -2.13579,2.13578 -0.68512,0.73826 -1.34239,1.50188 -1.97042,2.28927 -0.62799,0.78747 -1.2263,1.59815 -1.79369,2.43034 -0.56742,0.83232 -1.10351,1.68558 -1.60714,2.55799 -0.50355,0.87214 -0.9743,1.7628 -1.41128,2.67012 -0.43694,0.90756 -0.83979,1.83114 -1.20768,2.76882 -0.36805,0.93756 -0.7009,1.88855 -0.99786,2.85099 -0.29691,0.96246 -0.55772,1.93569 -0.78187,2.91765 -0.224,0.98192 -0.4112,1.97187 -0.5612,2.96778 -0.15021,0.99589 -0.26311,1.99704 -0.33848,3.00137 -0.0752,1.00438 -0.11275,2.01123 -0.11266,3.01842 -9e-5,1.00719 0.0375,2.01404 0.11266,3.01842 0.0754,1.00432 0.18827,2.00548 0.33848,3.00136 0.14999,0.99609 0.33719,1.98621 0.5612,2.9683 0.22415,0.98196 0.48496,1.95519 0.78187,2.91765 0.29696,0.96244 0.62981,1.91343 0.99786,2.85099 0.36791,0.9375 0.77075,1.86092 1.20768,2.76831 0.43696,0.9075 0.90772,1.79833 1.41128,2.67063 0.50364,0.87223 1.03973,1.72532 1.60714,2.55747 0.56739,0.83219 1.1657,1.64287 1.79369,2.43034 0.62803,0.78739 1.2853,1.55101 1.97042,2.28927 0.68505,0.73831 1.39748,1.45074 2.13579,2.13579 0.73825,0.68512 1.50187,1.34239 2.28926,1.97042 0.78747,0.62799 1.59815,1.2263 2.43034,1.79369 0.83215,0.56741 1.68524,1.10349 2.55747,1.60713 0.87231,0.50356 1.76314,0.97432 2.67064,1.41129 0.90739,0.43693 1.83081,0.83977 2.76831,1.20768 0.93772,0.36807 1.88889,0.70092 2.8515,0.99787 0.96229,0.29688 1.93535,0.55769 2.91714,0.78185 0.98209,0.22402 1.97221,0.41122 2.96829,0.56121 0.99589,0.15021 1.99704,0.26311 3.00137,0.33848 1.00438,0.0752 2.01123,0.11275 3.01842,0.11265 1.00719,1e-4 2.01404,-0.0375 3.01842,-0.11265 1.00433,-0.0754 2.00548,-0.18827 3.00137,-0.33848 0.99591,-0.15 1.98586,-0.3372 2.96777,-0.56121 0.98196,-0.22415 1.9552,-0.48495 2.91766,-0.78185 0.96244,-0.29696 1.91343,-0.62982 2.85098,-0.99787 0.93768,-0.36789 1.86127,-0.77074 2.76883,-1.20768 0.9075,-0.43697 1.79833,-0.90773 2.67064,-1.41129 0.87223,-0.50364 1.72531,-1.03972 2.55746,-1.60713 0.8322,-0.56739 1.64288,-1.1657 2.43035,-1.79369 0.78739,-0.62803 1.55101,-1.2853 2.28926,-1.97042 0.73831,-0.68505 1.45074,-1.39748 2.13579,-2.13579 0.68512,-0.73826 1.34239,-1.50188 1.97042,-2.28927 0.62799,-0.78747 1.2263,-1.59815 1.79369,-2.43034 0.56741,-0.83215 1.1035,-1.68524 1.60714,-2.55747 0.50356,-0.8723 0.97432,-1.76313 1.41128,-2.67063 0.43693,-0.90739 0.83977,-1.83081 1.20768,-2.76831 0.36805,-0.93756 0.70091,-1.88855 0.99787,-2.85099 0.29674,-0.96247 0.55737,-1.9357 0.78135,-2.91765 0.22419,-0.98208 0.41156,-1.97221 0.56172,-2.9683 0.15021,-0.99588 0.26311,-1.99704 0.33848,-3.00136 0.0752,-1.00438 0.11275,-2.01123 0.11266,-3.01842 -1e-5,-0.34662 -0.004,-0.69322 -0.0134,-1.03973 -0.009,-0.34673 -0.0224,-0.69334 -0.0403,-1.03973 -0.0178,-0.34616 -0.04,-0.69208 -0.0667,-1.03767 -0.0267,-0.34576 -0.0579,-0.69116 -0.0935,-1.03611 -0.0357,-0.34484 -0.0758,-0.6892 -0.12041,-1.03301 -0.0445,-0.34375 -0.0934,-0.68691 -0.14676,-1.0294 -0.0533,-0.34265 -0.11101,-0.6846 -0.17312,-1.02577 -0.0623,-0.34105 -0.12894,-0.68128 -0.19998,-1.02061 -0.0709,-0.33943 -0.1462,-0.67794 -0.22583,-1.01544 -0.0796,-0.33731 -0.16346,-0.67358 -0.25167,-1.00873 -0.0884,-0.33535 -0.18104,-0.66955 -0.27801,-1.00252 -0.0968,-0.33288 -0.19797,-0.6645 -0.30335,-0.99477 -0.10549,-0.33024 -0.21522,-0.6591 -0.32917,-0.98651 -0.1138,-0.32741 -0.2318,-0.65334 -0.35399,-0.97771 -0.12227,-0.32442 -0.24872,-0.64725 -0.3793,-0.96842 -0.13076,-0.32126 -0.26564,-0.64082 -0.40463,-0.9586 -0.13873,-0.31774 -0.28154,-0.63368 -0.4284,-0.94774 -0.14704,-0.31388 -0.29812,-0.62586 -0.4532,-0.93586 -0.15501,-0.3102 -0.31402,-0.61839 -0.47697,-0.92449 -0.163,-0.306 -0.32993,-0.60988 -0.50075,-0.91158 -0.17063,-0.30178 -0.34514,-0.60136 -0.52348,-0.89865 -0.17861,-0.29724 -0.36104,-0.59216 -0.54725,-0.8847 -0.18608,-0.29251 -0.37593,-0.58261 -0.56948,-0.87023 -0.19338,-0.28761 -0.39046,-0.57271 -0.59118,-0.85525 -0.20102,-0.28254 -0.40568,-0.56247 -0.61391,-0.83974 -0.20799,-0.27728 -0.41953,-0.55188 -0.63459,-0.82372 -0.21529,-0.27187 -0.43407,-0.54095 -0.65629,-0.80719 -0.22208,-0.26627 -0.44758,-0.52967 -0.67644,-0.79013 -0.22887,-0.2605 -0.46109,-0.51804 -0.6966,-0.77256 -0.2355,-0.25438 -0.47427,-0.50572 -0.71624,-0.75396 -0.24195,-0.24826 -0.48709,-0.49341 -0.73535,-0.73536 -0.24824,-0.24197 -0.49958,-0.48073 -0.75396,-0.71623 -0.25452,-0.23551 -0.51206,-0.46773 -0.77256,-0.6966 -0.26047,-0.22886 -0.52387,-0.45437 -0.79014,-0.67645 -0.26606,-0.22222 -0.53497,-0.441 -0.80667,-0.65629 -0.27201,-0.21506 -0.54678,-0.4266 -0.82424,-0.63458 -0.27727,-0.20806 -0.55721,-0.41254 -0.83974,-0.6134 -0.28253,-0.20089 -0.56763,-0.39814 -0.85524,-0.5917 -0.28762,-0.19355 -0.57772,-0.38339 -0.87023,-0.56947 -0.29254,-0.18621 -0.58746,-0.36864 -0.8847,-0.54726 -0.29729,-0.17834 -0.59687,-0.35285 -0.89866,-0.52348 -0.3017,-0.17082 -0.60558,-0.33775 -0.91157,-0.50074 -0.3061,-0.16295 -0.61429,-0.32196 -0.92449,-0.47698 -0.31,-0.15508 -0.62197,-0.30615 -0.93586,-0.4532 -0.31406,-0.14686 -0.63001,-0.28967 -0.94775,-0.4284 -0.31779,-0.13881 -0.63735,-0.27353 -0.9586,-0.40411 -0.32116,-0.13076 -0.64399,-0.25738 -0.96841,-0.37982 -0.32437,-0.12218 -0.65031,-0.24019 -0.97772,-0.35398 -0.32741,-0.11396 -0.65627,-0.22369 -0.9865,-0.32918 -0.33027,-0.10538 -0.66189,-0.2065 -0.99477,-0.30334 -0.33297,-0.097 -0.66717,-0.18965 -1.00253,-0.27802 -0.33515,-0.0882 -0.67141,-0.1721 -1.00872,-0.25166 -0.3375,-0.0796 -0.676,-0.15491 -1.01544,-0.22583 -0.33933,-0.071 -0.67956,-0.13771 -1.02061,-0.19999 -0.34117,-0.0621 -0.68312,-0.11981 -1.02578,-0.17311 -0.34249,-0.0533 -0.68564,-0.10226 -1.02939,-0.14676 -0.34381,-0.0446 -0.68818,-0.0847 -1.03302,-0.12041 -0.34495,-0.0356 -0.69035,-0.0668 -1.03611,-0.0935 -0.34559,-0.0267 -0.6915,-0.0489 -1.03766,-0.0667 -0.34639,-0.0179 -0.69299,-0.0313 -1.03973,-0.0403 -0.3465,-0.009 -0.69311,-0.0134 -1.03973,-0.0134 z m -1.65055,19.13372 c 3.02893,-0.006 6.0592,0.007 9.08679,0.007 2.71628,0 5.42846,0.16614 8.14007,0.19844 1.1445,0.0136 2.78663,-0.27381 3.77238,0.41445 1.80627,1.26105 3.38732,3.09628 4.70255,4.84725 0.50223,0.66846 1.17122,1.43406 1.32034,2.28306 0.29392,1.67324 0.0827,3.74009 -0.86972,5.16196 -1.76066,2.62872 -5.32976,3.14036 -7.63364,0.88987 -0.9821,-0.95936 -1.19665,-2.03008 -1.58957,-3.27215 -0.0732,3.52642 -4.05438,5.69977 -7.14788,4.27829 -1.72982,-0.79487 -2.45223,-2.34856 -2.8789,-4.07986 h -0.0992 c -0.26079,5.98061 -10.19973,5.88538 -10.32392,-0.0992 h -0.0997 c -0.21324,1.65109 -1.07537,3.22784 -2.58072,4.038 -3.15138,1.69585 -7.2887,-0.49255 -7.44554,-4.13721 h -0.0992 c -0.0616,2.96872 -3.19754,5.29545 -6.05544,4.61573 -2.12773,-0.50608 -3.7478,-2.58131 -3.95428,-4.71495 -0.0798,-0.82515 -0.16865,-1.97617 0.0439,-2.77968 0.5,-1.89015 2.47764,-3.72926 3.81114,-5.06274 0.779,-0.77901 1.69748,-1.91014 2.77967,-2.26136 0.75234,-0.24414 1.60428,-0.091 2.38229,-0.12506 1.88468,-0.0825 3.76943,-0.0508 5.65857,-0.0971 3.02342,-0.0741 6.05114,-0.0985 9.08006,-0.10438 z m -3.71967,14.00379 c 0.65838,0.6012 1.14233,1.35642 1.88619,1.88206 1.87465,1.32479 4.58487,1.43198 6.55206,0.24081 0.93771,-0.56773 1.46834,-1.45 2.28306,-2.12287 2.25466,3.9573 7.61219,3.635 10.02678,0.0997 h 0.19844 c 0.75466,1.20645 2.01191,2.16085 3.3755,2.5771 0.43809,0.13361 2.01747,0.0629 2.20917,0.43305 0.262,0.50599 0.15184,1.48693 0.17674,2.05259 0.0674,1.52441 0.19482,3.03678 0.19482,4.56664 0,4.72564 0.18884,9.49512 -0.28112,14.19552 -0.18961,1.89689 -0.35364,4.37581 -1.54926,5.95106 -0.51691,0.68101 -1.64859,0.69093 -2.4381,0.79943 -1.98177,0.27231 -3.97983,0.3782 -5.95622,0.63769 -2.12849,0.27951 -4.31086,0.16623 -6.45284,0.25993 -5.48823,0.24033 -11.00684,0.0838 -16.4791,-0.293 -1.95388,-0.13461 -3.92313,-0.29358 -5.85701,-0.62942 -0.63079,-0.1096 -1.63098,-0.11208 -2.09496,-0.59841 -1.63015,-1.70827 -1.58453,-5.03025 -1.79369,-7.2192 -0.63376,-6.63265 0.11628,-13.32701 0.11628,-19.95331 2.36884,0.0952 4.26076,-0.83553 5.65856,-2.77967 h 0.19844 c 2.30608,3.3764 7.96748,4.03334 10.02626,-0.0997 z m -3.85196,5.39709 c -1.29132,0.0426 -2.57461,0.46478 -3.49384,1.27279 -2.0856,1.83335 -2.89946,4.55289 -3.6158,7.12928 -0.62545,2.24961 -1.29954,4.48909 -1.88102,6.75049 -0.38891,1.51251 -1.06335,4.05089 0.15709,5.35006 0.80717,0.85929 2.17376,0.80501 3.2551,0.80461 3.59155,-0.001 6.83931,-2.60739 6.84971,-6.3531 l 5.06274,0.49454 10.82053,-0.49454 c 0.01,3.60682 3.1303,6.3361 6.65128,6.3531 1.36605,0.007 3.16676,0.0786 3.83645,-1.38958 0.78138,-1.71264 -0.0463,-4.16572 -0.53175,-5.85701 -0.96542,-3.36332 -1.5879,-6.99367 -3.1812,-10.126 -0.86059,-1.69178 -2.19872,-3.25991 -4.09432,-3.75687 -1.4149,-0.37097 -3.30251,-0.16262 -4.56665,0.56792 -0.58163,0.33613 -1.13842,1.12307 -1.78697,1.26969 -0.77175,0.17453 -1.78902,-0.14441 -2.58072,-0.16381 -1.90017,-0.0466 -3.76882,0.0802 -5.65857,0.17828 -0.84449,0.0438 -1.64045,-1.07214 -2.3828,-1.44332 -0.84583,-0.4229 -1.8549,-0.61964 -2.85926,-0.58653 z m 9.21288,5.14335 c 0.53408,0 1.1476,0.83299 1.4888,1.17409 1.22202,1.22154 3.13832,2.62018 3.77237,4.26848 l -2.87889,-0.0992 v 2.58124 h -4.76508 v -2.58124 l -2.8789,0.0992 c 0.63644,-1.65456 2.54667,-3.04326 3.77238,-4.26848 0.3412,-0.3411 0.95523,-1.17409 1.48932,-1.17409 z"
       inkscape:export-filename="itch-io.png"
       inkscape:export-xdpi="96"
       inkscape:export-ydpi="96"
       sodipodi:nodetypes="sccccccccccccccccccccccccccsccccccccscscccccccccccsccccscscccccsscscccccsccccccccccccccccccscsscscccsscccccccccccccscccccscssscssccscscscccccccscssssscccccccccccsssscccccsccccscssscccccccssscssssscccccccss" /><g
       id="g1587"
       transform="matrix(0.38977112,0,0,0.38977112,33.823769,32.922514)"
       inkscape:export-filename="../../public/favicon.ico"
       inkscape:export-xdpi="48"
       inkscape:export-ydpi="48"><circle
         style="fill:#322f39;fill-opacity:1;stroke:none;stroke-width:0.264583;stroke-linecap:round;stroke-linejoin:bevel;paint-order:fill markers stroke"
         id="path236"
         cx="104.28271"
         cy="75.232529"
         r="10.861075"
         inkscape:export-filename="../../public/favicon.ico"
         inkscape:export-xdpi="18.709015"
         inkscape:export-ydpi="18.709015" /><text
         xml:space="preserve"
         style="font-style:normal;font-weight:normal;font-size:24.3255px;line-height:1.25;font-family:sans-serif;fill:#ffffff;fill-opacity:1;stroke:none;stroke-width:0.608138"
         x="97.684677"
         y="81.509888"
         id="text400"><tspan
           sodipodi:role="line"
           id="tspan398"
           style="font-style:normal;font-variant:normal;font-weight:normal;font-stretch:normal;font-size:24.3255px;font-family:Jamrul;-inkscape-font-specification:'Jamrul, Normal';font-variant-ligatures:normal;font-variant-caps:normal;font-variant-numeric:normal;font-variant-east-asian:normal;fill:#ffffff;stroke-width:0.608138"
           x="97.684677"
           y="81.509888">s</tspan></text></g><g
       id="g2004"
       transform="matrix(0.77954223,0,0,0.77954223,5.9319746,-9.8240223)"
       inkscape:export-filename="../../public/logo512.png"
       inkscape:export-xdpi="768"
       inkscape:export-ydpi="768"><circle
         style="fill:#322f39;fill-opacity:1;stroke:none;stroke-width:0.264583;stroke-linecap:round;stroke-linejoin:bevel;paint-order:fill markers stroke"
         id="circle1998"
         cx="104.28271"
         cy="75.232529"
         r="10.861075"
         inkscape:export-filename="../../public/favicon.ico"
         inkscape:export-xdpi="18.709015"
         inkscape:export-ydpi="18.709015" /><text
         xml:space="preserve"
         style="font-style:normal;font-weight:normal;font-size:24.3255px;line-height:1.25;font-family:sans-serif;fill:#ffffff;fill-opacity:1;stroke:none;stroke-width:0.608138"
         x="97.684677"
         y="81.509888"
         id="text2002"><tspan
           sodipodi:role="line"
           id="tspan2000"
           style="font-style:normal;font-variant:normal;font-weight:normal;font-stretch:normal;font-size:24.3255px;font-family:Jamrul;-inkscape-font-specification:'Jamrul, Normal';font-variant-ligatures:normal;font-variant-caps:normal;font-variant-numeric:normal;font-variant-east-asian:normal;fill:#ffffff;stroke-width:0.608138"
           x="97.684677"
           y="81.509888">s</tspan></text></g><g
       id="g2012"
       transform="matrix(0.58465667,0,0,0.58465667,39.637442,27.030517)"
       inkscape:export-filename="../../public/logo192.png"
       inkscape:export-xdpi="384"
       inkscape:export-ydpi="384"><circle
         style="fill:#322f39;fill-opacity:1;stroke:none;stroke-width:0.264583;stroke-linecap:round;stroke-linejoin:bevel;paint-order:fill markers stroke"
         id="circle2006"
         cx="104.28271"
         cy="75.232529"
         r="10.861075"
         inkscape:export-filename="../../public/favicon.ico"
         inkscape:export-xdpi="18.709015"
         inkscape:export-ydpi="18.709015" /><text
         xml:space="preserve"
         style="font-style:normal;font-weight:normal;font-size:24.3255px;line-height:1.25;font-family:sans-serif;fill:#ffffff;fill-opacity:1;stroke:none;stroke-width:0.608138"
         x="97.684677"
         y="81.509888"
         id="text2010"><tspan
           sodipodi:role="line"
           id="tspan2008"
           style="font-style:normal;font-variant:normal;font-weight:normal;font-stretch:normal;font-size:24.3255px;font-family:Jamrul;-inkscape-font-specification:'Jamrul, Normal';font-variant-ligatures:normal;font-variant-caps:normal;font-variant-numeric:normal;font-variant-east-asian:normal;fill:#ffffff;stroke-width:0.608138"
           x="97.684677"
           y="81.509888">s</tspan></text></g><path
       id="path2337"
       style="fill:#000000;fill-opacity:1;stroke-width:0.155647;stroke-linecap:round;stroke-linejoin:bevel;paint-order:fill markers stroke"
       class="UnoptimicedTransforms"
       d="m 208.88421,238.24845 a 40.390779,40.298519 75 0 0 -8.92348,1.34255 40.390779,40.298519 75 0 0 -28.47165,49.44453 40.390779,40.298519 75 0 0 49.37942,28.5843 40.390779,40.298519 75 0 0 28.47113,-49.44453 40.390779,40.298519 75 0 0 -40.45542,-29.92685 z m -0.56017,17.91829 c 4.97219,-0.0168 10.73827,0.0674 12.51397,0.23099 2.58849,0.23838 4.95778,1.02092 6.66987,2.20297 2.26247,1.56203 3.87479,3.88949 4.6545,6.71897 0.57894,2.10088 0.68113,4.05157 0.68575,13.12012 0.005,10.39153 -0.10329,11.92388 -1.03095,14.55261 -1.06952,3.03061 -3.42392,5.55947 -6.25181,6.71483 -2.49084,1.01766 -3.81063,1.20941 -8.72505,1.26969 -1.87542,0.023 -4.16764,0.0523 -5.09375,0.0646 -0.92614,0.0129 -3.72956,-10e-4 -6.23011,-0.0326 -5.83627,-0.0704 -7.07116,-0.19561 -9.21287,-0.93276 -1.90944,-0.65719 -2.96567,-1.29151 -4.34341,-2.60863 -0.9744,-0.93155 -1.63958,-1.79549 -2.16214,-2.80809 -1.01885,-1.9742 -1.42421,-3.57858 -1.66915,-6.60787 -0.13948,-1.72514 -0.20178,-12.61335 -0.092,-16.08067 0.11269,-3.55854 0.24766,-4.91459 0.64027,-6.43837 0.64658,-2.5094 1.61128,-4.17588 3.39824,-5.86889 2.20701,-2.09095 4.92639,-3.08341 9.1891,-3.35328 1.37841,-0.0873 4.07621,-0.13357 7.05952,-0.14366 z m 2.24379,4.06848 c -9.65429,0.007 -10.92587,0.0811 -12.98732,0.75448 -2.97439,0.97155 -4.79854,3.37739 -5.27668,6.95978 -0.20028,1.50063 -0.30094,5.10373 -0.29817,10.68617 0.005,9.13491 0.16181,11.35724 0.93586,13.23433 0.47639,1.15527 0.81813,1.66094 1.75131,2.59209 0.83273,0.8309 0.96759,0.92977 1.86139,1.36116 1.11036,0.53588 2.23829,0.84936 3.55275,0.98805 2.08176,0.21965 11.87166,0.31458 17.07028,0.16537 1.55127,-0.0446 3.18053,-0.12119 3.62045,-0.17053 1.31562,-0.1474 2.46973,-0.4665 3.50883,-0.96997 0.80299,-0.38908 1.05391,-0.56339 1.71411,-1.19166 1.08126,-1.02895 1.61568,-1.85243 2.05827,-3.17086 0.51715,-1.5406 0.60961,-2.42316 0.71623,-6.83163 0.0989,-4.09083 -0.0145,-15.06292 -0.17001,-16.33389 -0.20228,-1.6611 -0.60445,-2.98923 -1.23662,-4.08295 -0.44076,-0.76257 -1.83464,-2.15045 -2.61173,-2.60036 -0.73588,-0.42606 -2.05022,-0.8679 -3.13727,-1.05472 -1.71581,-0.2949 -3.22609,-0.34066 -11.07168,-0.33486 z m 11.82926,3.7791 c 0.61155,0 0.78472,0.0343 1.19062,0.23358 0.60677,0.29795 1.09571,0.82913 1.32395,1.43918 0.58281,1.55769 -0.28696,3.17634 -1.91254,3.55896 -0.52744,0.12412 -0.5799,0.12574 -1.07281,0.0279 -0.89157,-0.17676 -1.55905,-0.70464 -1.92649,-1.52343 -0.60601,-1.35036 -0.0573,-2.88026 1.2671,-3.53208 0.34003,-0.16735 0.54306,-0.20412 1.13017,-0.20412 z m -11.94915,3.12229 c 0.80876,6.7e-4 1.61861,0.0504 2.11874,0.14831 4.71365,0.92424 8.36795,4.64015 9.20254,9.35809 0.20085,1.13547 0.20469,3.02772 0.008,4.03076 -0.46888,2.38833 -1.52766,4.39157 -3.20962,6.07353 -2.556,2.556 -6.14759,3.77529 -9.68313,3.28662 h -5.2e-4 c -2.5344,-0.35029 -4.74397,-1.45514 -6.56704,-3.28404 -2.28463,-2.29192 -3.36887,-4.95048 -3.36672,-8.25427 9.5e-4,-1.48236 0.11513,-2.20882 0.55656,-3.53622 1.30196,-3.91459 4.69664,-6.86628 8.82995,-7.67809 0.4948,-0.0972 1.30222,-0.14536 2.11098,-0.14469 z m -0.0481,4.04265 c -1.11831,0.005 -1.34777,0.0316 -2.00297,0.23099 -2.48467,0.75582 -4.32451,2.5387 -5.09582,4.93872 -0.82551,2.56878 -0.16947,5.42056 1.69861,7.38714 1.84807,1.94555 4.30679,2.73403 6.88743,2.20814 1.05863,-0.21573 1.76406,-0.49763 2.57866,-1.0294 2.43383,-1.58882 3.73452,-4.32477 3.39049,-7.13135 -0.31905,-2.60272 -1.94688,-4.87977 -4.24987,-5.94382 -1.16432,-0.53795 -1.79128,-0.6669 -3.20653,-0.66042 z"
       transform="translate(2.4142281,-221.31595)" /></g><metadata
     id="metadata179"><rdf:RDF><cc:Work
         rdf:about=""><dc:creator><cc:Agent><dc:title>Siphesihle Mhlongo</dc:title></cc:Agent></dc:creator></cc:Work></rdf:RDF></metadata></svg>
