<?xml version="1.0" encoding="UTF-8" standalone="no"?>
<!-- Created with Inkscape (http://www.inkscape.org/) -->

<svg
   width="1080"
   height="1280"
   viewBox="0 0 285.75 338.66669"
   version="1.1"
   id="svg5"
   inkscape:version="1.2.1 (9c6d41e, 2022-07-14)"
   xml:space="preserve"
   sodipodi:docname="icon-sheet.svg"
   inkscape:export-filename="../../public/logo512.png"
   inkscape:export-xdpi="598.69116"
   inkscape:export-ydpi="598.69116"
   xmlns:inkscape="http://www.inkscape.org/namespaces/inkscape"
   xmlns:sodipodi="http://sodipodi.sourceforge.net/DTD/sodipodi-0.dtd"
   xmlns:xlink="http://www.w3.org/1999/xlink"
   xmlns="http://www.w3.org/2000/svg"
   xmlns:svg="http://www.w3.org/2000/svg"
   xmlns:rdf="http://www.w3.org/1999/02/22-rdf-syntax-ns#"
   xmlns:cc="http://creativecommons.org/ns#"
   xmlns:dc="http://purl.org/dc/elements/1.1/"><sodipodi:namedview
     id="namedview7"
     pagecolor="#ffffff"
     bordercolor="#666666"
     borderopacity="1"
     inkscape:pageshadow="2"
     inkscape:pageopacity="0.0"
     inkscape:pagecheckerboard="false"
     inkscape:document-units="px"
     showgrid="false"
     units="px"
     inkscape:showpageshadow="false"
     inkscape:zoom="0.49821845"
     inkscape:cx="631.24921"
     inkscape:cy="500.78435"
     inkscape:window-width="1366"
     inkscape:window-height="745"
     inkscape:window-x="0"
     inkscape:window-y="0"
     inkscape:window-maximized="1"
     inkscape:current-layer="layer1"
     inkscape:deskcolor="#d1d1d1"
     showborder="false"
     borderlayer="false" /><defs
     id="defs2"><inkscape:path-effect
       effect="bspline"
       id="path-effect12243"
       is_visible="true"
       lpeversion="1"
       weight="33.333333"
       steps="2"
       helper_size="0"
       apply_no_weight="true"
       apply_with_weight="true"
       only_selected="false" /><inkscape:path-effect
       effect="bspline"
       id="path-effect5730"
       is_visible="true"
       lpeversion="1"
       weight="33.333333"
       steps="2"
       helper_size="0"
       apply_no_weight="true"
       apply_with_weight="true"
       only_selected="false" /><inkscape:path-effect
       effect="bspline"
       id="path-effect5726"
       is_visible="true"
       lpeversion="1"
       weight="33.333333"
       steps="2"
       helper_size="0"
       apply_no_weight="true"
       apply_with_weight="true"
       only_selected="false" /><inkscape:path-effect
       effect="bspline"
       id="path-effect5722"
       is_visible="true"
       lpeversion="1"
       weight="33.333333"
       steps="2"
       helper_size="0"
       apply_no_weight="true"
       apply_with_weight="true"
       only_selected="false" /><inkscape:path-effect
       effect="bspline"
       id="path-effect5718"
       is_visible="true"
       lpeversion="1"
       weight="33.333333"
       steps="2"
       helper_size="0"
       apply_no_weight="true"
       apply_with_weight="true"
       only_selected="false" /><inkscape:path-effect
       effect="bspline"
       id="path-effect5714"
       is_visible="true"
       lpeversion="1"
       weight="33.333333"
       steps="2"
       helper_size="0"
       apply_no_weight="true"
       apply_with_weight="true"
       only_selected="false" /><inkscape:path-effect
       effect="bspline"
       id="path-effect5710"
       is_visible="true"
       lpeversion="1"
       weight="33.333333"
       steps="2"
       helper_size="0"
       apply_no_weight="true"
       apply_with_weight="true"
       only_selected="false" /><inkscape:path-effect
       effect="bspline"
       id="path-effect5706"
       is_visible="true"
       lpeversion="1"
       weight="33.333333"
       steps="2"
       helper_size="0"
       apply_no_weight="true"
       apply_with_weight="true"
       only_selected="false" /><inkscape:path-effect
       effect="bspline"
       id="path-effect5702"
       is_visible="true"
       lpeversion="1"
       weight="33.333333"
       steps="2"
       helper_size="0"
       apply_no_weight="true"
       apply_with_weight="true"
       only_selected="false" /><inkscape:path-effect
       effect="bspline"
       id="path-effect5447"
       is_visible="true"
       lpeversion="1"
       weight="33.333333"
       steps="2"
       helper_size="0"
       apply_no_weight="true"
       apply_with_weight="true"
       only_selected="false" /><inkscape:path-effect
       effect="bool_op"
       operand-path=""
       id="path-effect4044"
       is_visible="true"
       lpeversion="1"
       operation="diff"
       swap-operands="false"
       filltype-this="from-curve"
       filter=""
       filltype-operand="from-curve" /><inkscape:path-effect
       effect="bool_op"
       operand-path="#path3790"
       id="path-effect3794"
       is_visible="true"
       lpeversion="1.2"
       operation="diff"
       swap-operands="false"
       filltype-this="from-curve"
       filter=""
       filltype-operand="from-curve" /><inkscape:path-effect
       effect="bool_op"
       operand-path="#path3448"
       id="path-effect3520"
       is_visible="true"
       lpeversion="1"
       operation="diff"
       swap-operands="false"
       filltype-this="from-curve"
       filter=""
       filltype-operand="from-curve" /><inkscape:path-effect
       effect="bool_op"
       operand-path=""
       id="path-effect3032"
       is_visible="false"
       lpeversion="1"
       operation="diff"
       swap-operands="true"
       filltype-this="from-curve"
       filter=""
       filltype-operand="from-curve" /><filter
       id="selectable_hidder_filter"
       width="1"
       height="1"
       x="0"
       y="0"
       style="color-interpolation-filters:sRGB;"
       inkscape:label="LPE boolean visibility"><feComposite
         id="boolops_hidder_primitive"
         result="composite1"
         operator="arithmetic"
         in2="SourceGraphic"
         in="BackgroundImage" /></filter><inkscape:path-effect
       effect="bool_op"
       operand-path=""
       id="path-effect2921"
       is_visible="true"
       lpeversion="1"
       operation="cut-both"
       swap-operands="false"
       filltype-this="from-curve"
       filter=""
       filltype-operand="from-curve" /><inkscape:path-effect
       effect="bspline"
       id="path-effect5722-7"
       is_visible="true"
       lpeversion="1"
       weight="33.333333"
       steps="2"
       helper_size="0"
       apply_no_weight="true"
       apply_with_weight="true"
       only_selected="false" /><inkscape:path-effect
       effect="bspline"
       id="path-effect5702-5"
       is_visible="true"
       lpeversion="1"
       weight="33.333333"
       steps="2"
       helper_size="0"
       apply_no_weight="true"
       apply_with_weight="true"
       only_selected="false" /><inkscape:path-effect
       effect="bspline"
       id="path-effect5706-2"
       is_visible="true"
       lpeversion="1"
       weight="33.333333"
       steps="2"
       helper_size="0"
       apply_no_weight="true"
       apply_with_weight="true"
       only_selected="false" /></defs><g
     inkscape:label="Layer 1"
     inkscape:groupmode="layer"
     id="layer1"><path
       style="fill:#000000;stroke-width:1.12651;stroke-linecap:round;stroke-linejoin:bevel;stroke-opacity:0.996078;paint-order:fill markers stroke"
       d="m 33.453161,116.42561 c -4.71853,-0.016 -9.44563,1.93778 -12.56239,5.51651 -4.49162,4.8213 -5.59072,12.84674 -2.76573,18.77149 1.9512,4.15091 5.71561,7.17628 10.14784,8.4663 l 0.51247,-0.0904 c 0.86962,-0.78678 0.36144,-2.2073 0.48968,-3.29842 -0.44626,-0.85601 -2.97535,0.45788 -3.93937,-0.65005 -1.99941,-0.95538 -1.99639,-3.71501 -4.03291,-4.68193 -0.3121,-1.52316 2.8891,-0.033 3.1356,1.12912 0.88439,1.73037 3.45359,2.25773 4.91156,1.09179 -0.0602,-1.10001 1.98892,-2.44981 -0.1174,-2.28211 -2.90277,-0.34632 -5.7264,-2.34386 -6.25014,-5.35089 -0.605,-2.45045 -0.37032,-5.26034 1.37462,-7.21236 -0.34596,-1.3856 -0.42674,-3.25963 0.32712,-4.41233 1.65141,-0.014 3.11435,0.8895 4.48632,1.70954 2.76054,-0.74438 5.73349,-0.76366 8.48888,0.014 1.35936,-0.89004 2.88269,-1.75142 4.55385,-1.72454 0.5049,1.3983 0.6501,3.00201 0.1796,4.42211 2.12409,2.23485 2.00385,5.69007 1.03472,8.41486 -1.05174,2.83957 -4.17991,4.05061 -6.97577,4.32051 1.4861,1.63859 0.9086,3.96457 1.07224,5.97166 -0.0826,1.77684 0.41732,3.04833 2.49616,2.10154 6.44388,-2.69088 10.98017,-9.59938 10.36469,-16.5625 -0.39292,-6.83228 -5.68461,-13.15123 -12.27587,-14.97974 -1.511,-0.4557 -3.08281,-0.67974 -4.65563,-0.68502 z"
       id="path676" /><path
       style="fill:#000000;stroke-width:0.0665269"
       d="m 31.912041,193.25892 c -6.97846,-0.56144 -13.28934,-5.84551 -14.96599,-12.6599 -1.21767,-7.91577 0.54041,-13.1844 5.46801,-17.27453 5.17364,-4.51889 13.15857,-5.33941 19.14119,-1.9616 6.12301,3.24479 9.75946,10.48618 8.7041,17.33202 -0.93744,7.1782 -6.93729,13.35548 -14.11991,14.39433 -1.39651,0.21787 -2.81804,0.25402 -4.2274,0.16968 z m -2.59683,-2.88471 c 0.77216,-0.6986 0.32084,-1.95991 0.4347,-2.92872 -0.39625,-0.7601 -2.64185,0.4066 -3.49782,-0.57718 -1.77537,-0.8483 -1.77269,-3.29878 -3.58097,-4.15735 -0.27712,-1.35246 2.56527,-0.0291 2.78416,1.00273 0.78528,1.53645 3.06657,2.00475 4.36116,0.96948 -0.0534,-0.97677 1.76609,-2.17534 -0.1042,-2.02644 -2.57747,-0.30749 -5.08464,-2.08112 -5.54969,-4.75116 -0.53721,-2.17584 -0.32897,-4.67087 1.22042,-6.40413 -0.3072,-1.23032 -0.37885,-2.89446 0.29052,-3.91797 1.46636,-0.0128 2.76525,0.78996 3.98349,1.51811 2.45117,-0.66096 5.09099,-0.67817 7.5376,0.0132 1.20702,-0.79029 2.55965,-1.55519 4.04353,-1.53132 0.44832,1.24159 0.57726,2.66563 0.15941,3.92658 1.88605,1.98441 1.77929,5.05248 0.91876,7.47192 -0.93387,2.52135 -3.71158,3.59652 -6.19413,3.83617 1.31957,1.45496 0.80683,3.52031 0.95214,5.30248 -0.0733,1.57772 0.3706,2.70677 2.21647,1.86607 5.72173,-2.38932 9.74955,-8.52364 9.20304,-14.70643 -0.34887,-6.06662 -5.04738,-11.67737 -10.89998,-13.30098 -5.36668,-1.61859 -11.59849,0.0531 -15.28844,4.29005 -3.98827,4.281 -4.9642,11.40694 -2.45578,16.66773 1.73254,3.68575 5.07492,6.37206 9.01045,7.51751 z"
       id="path665"
       sodipodi:nodetypes="ccccccccccccccccccccccccccccccc" /><g
       id="g1430"
       transform="matrix(0.36765926,0,0,0.36765926,-38.478533,194.8852)"><path
         id="path1426"
         style="fill:#000000;stroke-width:2.64583;stroke-linecap:round;stroke-linejoin:bevel;stroke-opacity:0.996078;paint-order:fill markers stroke"
         d="M 195.79504,19.778665 A 46.056927,46.056927 0 0 0 149.7379,65.835287 46.056927,46.056927 0 0 0 195.79504,111.89242 46.056927,46.056927 0 0 0 241.85218,65.835287 46.056927,46.056927 0 0 0 195.79504,19.778665 Z m 0,5.665805 a 40.390892,40.390892 0 0 1 1.03973,0.01344 40.390892,40.390892 0 0 1 1.03973,0.04031 40.390892,40.390892 0 0 1 1.03766,0.06666 40.390892,40.390892 0 0 1 1.03612,0.09353 40.390892,40.390892 0 0 1 1.03301,0.120406 40.390892,40.390892 0 0 1 1.02939,0.146761 40.390892,40.390892 0 0 1 1.02578,0.173116 40.390892,40.390892 0 0 1 1.02061,0.199988 40.390892,40.390892 0 0 1 1.01544,0.225826 40.390892,40.390892 0 0 1 1.00873,0.251664 40.390892,40.390892 0 0 1 1.00252,0.278019 40.390892,40.390892 0 0 1 0.99477,0.303341 40.390892,40.390892 0 0 1 0.9865,0.329179 40.390892,40.390892 0 0 1 0.97772,0.353984 40.390892,40.390892 0 0 1 0.96842,0.379821 40.390892,40.390892 0 0 1 0.9586,0.40411 40.390892,40.390892 0 0 1 0.94774,0.428398 40.390892,40.390892 0 0 1 0.93586,0.453202 40.390892,40.390892 0 0 1 0.92449,0.476974 40.390892,40.390892 0 0 1 0.91158,0.500744 40.390892,40.390892 0 0 1 0.89865,0.523482 40.390892,40.390892 0 0 1 0.8847,0.547254 40.390892,40.390892 0 0 1 0.87023,0.569474 40.390892,40.390892 0 0 1 0.85525,0.591695 40.390892,40.390892 0 0 1 0.83974,0.6134 40.390892,40.390892 0 0 1 0.82424,0.634586 40.390892,40.390892 0 0 1 0.80667,0.656291 40.390892,40.390892 0 0 1 0.79013,0.676445 40.390892,40.390892 0 0 1 0.77256,0.696598 40.390892,40.390892 0 0 1 0.75396,0.716235 40.390892,40.390892 0 0 1 0.73536,0.735356 40.390892,40.390892 0 0 1 0.71623,0.753959 40.390892,40.390892 0 0 1 0.6966,0.772563 40.390892,40.390892 0 0 1 0.67644,0.790132 40.390892,40.390892 0 0 1 0.6563,0.807186 40.390892,40.390892 0 0 1 0.63458,0.823723 40.390892,40.390892 0 0 1 0.61392,0.839742 40.390892,40.390892 0 0 1 0.59118,0.855245 40.390892,40.390892 0 0 1 0.56947,0.870231 40.390892,40.390892 0 0 1 0.54725,0.8847 40.390892,40.390892 0 0 1 0.52349,0.898654 40.390892,40.390892 0 0 1 0.50074,0.911572 40.390892,40.390892 0 0 1 0.47697,0.924491 40.390892,40.390892 0 0 1 0.45321,0.935861 40.390892,40.390892 0 0 1 0.42839,0.947745 40.390892,40.390892 0 0 1 0.40463,0.958598 40.390892,40.390892 0 0 1 0.37931,0.968417 40.390892,40.390892 0 0 1 0.35398,0.977718 40.390892,40.390892 0 0 1 0.32918,0.986503 40.390892,40.390892 0 0 1 0.30334,0.994771 40.390892,40.390892 0 0 1 0.27802,1.002523 40.390892,40.390892 0 0 1 0.25166,1.008724 40.390892,40.390892 0 0 1 0.22583,1.015442 40.390892,40.390892 0 0 1 0.19999,1.020609 40.390892,40.390892 0 0 1 0.17311,1.025778 40.390892,40.390892 0 0 1 0.14676,1.029394 40.390892,40.390892 0 0 1 0.12041,1.033012 40.390892,40.390892 0 0 1 0.0935,1.036113 40.390892,40.390892 0 0 1 0.0667,1.037662 40.390892,40.390892 0 0 1 0.0403,1.03973 40.390892,40.390892 0 0 1 0.0134,1.03973 40.390892,40.390892 0 0 1 -0.11265,3.018421 40.390892,40.390892 0 0 1 -0.33849,3.001366 40.390892,40.390892 0 0 1 -0.56172,2.96829 40.390892,40.390892 0 0 1 -0.78135,2.91766 40.390892,40.390892 0 0 1 -0.99787,2.85099 40.390892,40.390892 0 0 1 -1.20768,2.7683 40.390892,40.390892 0 0 1 -1.41128,2.67064 40.390892,40.390892 0 0 1 -1.60714,2.55747 40.390892,40.390892 0 0 1 -1.79369,2.43034 40.390892,40.390892 0 0 1 -1.97042,2.28927 40.390892,40.390892 0 0 1 -2.13578,2.13578 40.390892,40.390892 0 0 1 -2.28927,1.97042 40.390892,40.390892 0 0 1 -2.43034,1.79369 40.390892,40.390892 0 0 1 -2.55747,1.607136 40.390892,40.390892 0 0 1 -2.67064,1.41128 40.390892,40.390892 0 0 1 -2.76882,1.20768 40.390892,40.390892 0 0 1 -2.85099,0.99787 40.390892,40.390892 0 0 1 -2.91765,0.78187 40.390892,40.390892 0 0 1 -2.96778,0.56121 40.390892,40.390892 0 0 1 -3.00137,0.33848 40.390892,40.390892 0 0 1 -3.01842,0.11265 40.390892,40.390892 0 0 1 -3.01842,-0.11265 40.390892,40.390892 0 0 1 -3.00137,-0.33848 40.390892,40.390892 0 0 1 -2.96829,-0.56121 40.390892,40.390892 0 0 1 -2.91713,-0.78187 40.390892,40.390892 0 0 1 -2.85151,-0.99787 40.390892,40.390892 0 0 1 -2.76831,-1.20768 40.390892,40.390892 0 0 1 -2.67063,-1.41128 40.390892,40.390892 0 0 1 -2.55747,-1.607136 40.390892,40.390892 0 0 1 -2.43034,-1.79369 40.390892,40.390892 0 0 1 -2.28927,-1.97042 40.390892,40.390892 0 0 1 -2.13579,-2.13578 40.390892,40.390892 0 0 1 -1.97042,-2.28927 40.390892,40.390892 0 0 1 -1.79369,-2.43034 40.390892,40.390892 0 0 1 -1.60714,-2.55747 40.390892,40.390892 0 0 1 -1.41128,-2.67064 40.390892,40.390892 0 0 1 -1.20768,-2.7683 40.390892,40.390892 0 0 1 -0.99787,-2.85099 40.390892,40.390892 0 0 1 -0.78186,-2.91766 40.390892,40.390892 0 0 1 -0.56121,-2.96829 40.390892,40.390892 0 0 1 -0.33848,-3.001366 40.390892,40.390892 0 0 1 -0.11266,-3.018421 40.390892,40.390892 0 0 1 0.11266,-3.01842 40.390892,40.390892 0 0 1 0.33848,-3.001368 40.390892,40.390892 0 0 1 0.56121,-2.967777 40.390892,40.390892 0 0 1 0.78186,-2.917652 40.390892,40.390892 0 0 1 0.99787,-2.850989 40.390892,40.390892 0 0 1 1.20768,-2.768823 40.390892,40.390892 0 0 1 1.41128,-2.670121 40.390892,40.390892 0 0 1 1.60714,-2.557984 40.390892,40.390892 0 0 1 1.79369,-2.430342 40.390892,40.390892 0 0 1 1.97042,-2.289266 40.390892,40.390892 0 0 1 2.13579,-2.135787 40.390892,40.390892 0 0 1 2.28927,-1.970423 40.390892,40.390892 0 0 1 2.43034,-1.793689 40.390892,40.390892 0 0 1 2.55747,-1.60662 40.390892,40.390892 0 0 1 2.67063,-1.4118 40.390892,40.390892 0 0 1 2.76831,-1.207679 40.390892,40.390892 0 0 1 2.85151,-0.997872 40.390892,40.390892 0 0 1 2.91713,-0.781347 40.390892,40.390892 0 0 1 2.96829,-0.561723 40.390892,40.390892 0 0 1 3.00137,-0.337964 40.390892,40.390892 0 0 1 3.01842,-0.113171 z" /><path
         style="fill:#020202;stroke:none;stroke-width:0.108574"
         d="m 178.95567,53.953767 h 0.10858 c 0.17154,3.9862 4.69638,6.37972 8.14308,4.52495 1.64642,-0.88608 2.58972,-2.61057 2.82294,-4.41638 h 0.10857 c 0.13583,6.54541 11.00652,6.64965 11.29174,0.10858 h 0.10858 c 0.46665,1.89354 1.25675,3.59294 3.14866,4.4623 3.3834,1.55468 7.73734,-0.82256 7.81736,-4.67945 0.42974,1.35848 0.66469,2.52935 1.73882,3.57861 2.51979,2.46139 6.42316,1.90223 8.34884,-0.97282 1.04166,-1.55512 1.2727,-3.81585 0.95122,-5.64588 -0.16308,-0.92856 -0.89455,-1.7661 -1.44383,-2.49721 -1.4385,-1.91505 -3.16798,-3.92198 -5.1435,-5.30121 -1.07814,-0.75276 -2.87407,-0.43876 -4.12583,-0.45365 -2.96571,-0.0353 -5.93229,-0.21673 -8.9031,-0.21673 -6.62261,0 -13.25564,-0.0551 -19.86913,0.10699 -2.06617,0.0506 -4.12746,0.0156 -6.18874,0.10588 -0.85092,0.0373 -1.78295,-0.1298 -2.60579,0.13722 -1.18362,0.38413 -2.18807,1.62083 -3.04008,2.47284 -1.45844,1.45844 -3.62103,3.47003 -4.16789,5.5373 -0.23248,0.8788 -0.13543,2.13761 -0.0481,3.04008 0.22582,2.33359 1.99745,4.60345 4.32455,5.15696 3.12572,0.74341 6.55561,-1.80146 6.62304,-5.04838 m 10.96602,3.8001 c -2.25173,4.52039 -8.44384,3.80141 -10.96602,0.10858 h -0.21715 c -1.5288,2.12632 -3.59791,3.14421 -6.18874,3.04008 0,7.24724 -0.82015,14.56928 -0.12701,21.82347 0.22875,2.39407 0.17898,6.02729 1.96188,7.89564 0.50747,0.53191 1.60105,0.53473 2.29096,0.6546 2.11509,0.36731 4.26893,0.54113 6.40589,0.68836 5.98506,0.41215 12.02082,0.58304 18.02336,0.32019 2.34271,-0.1025 4.72939,0.0218 7.05734,-0.28393 2.16161,-0.28381 4.34699,-0.39966 6.51447,-0.69748 0.86349,-0.11867 2.10124,-0.12974 2.66659,-0.87457 1.30767,-1.72286 1.48736,-4.43385 1.69474,-6.50849 0.51399,-5.14089 0.30737,-10.35768 0.30737,-15.52615 0,-1.67324 -0.13919,-3.32715 -0.21291,-4.99442 -0.0272,-0.61866 0.0932,-1.6917 -0.19337,-2.24511 -0.20966,-0.40487 -1.93752,-0.32735 -2.41666,-0.47349 -1.49138,-0.45525 -2.86615,-1.4992 -3.69153,-2.8187 h -0.21715 c -2.64086,3.86655 -8.50008,4.21953 -10.96602,-0.10858 -0.89107,0.73592 -1.47162,1.70082 -2.49721,2.32176 -2.15151,1.30279 -5.1156,1.18542 -7.16592,-0.26351 -0.81354,-0.5749 -1.34284,-1.40072 -2.06291,-2.05825 m 14.54898,22.25777 -11.83462,0.54124 -5.5373,-0.54124 c -0.0113,4.09673 -3.56352,6.94724 -7.49163,6.94876 -1.18267,4.4e-4 -2.67702,0.0598 -3.55983,-0.87999 -1.33481,-1.42092 -0.59727,-4.19738 -0.17192,-5.85162 0.63597,-2.47333 1.37299,-4.92266 2.05705,-7.38307 0.78347,-2.81783 1.67372,-5.79223 3.95476,-7.79738 1.78735,-1.57107 4.83428,-1.80787 6.94877,-0.75068 0.81192,0.40596 1.68214,1.62666 2.60578,1.57878 2.06683,-0.10727 4.11052,-0.24592 6.18875,-0.195 0.86588,0.0212 1.97887,0.37024 2.82293,0.17936 0.70932,-0.16036 1.3182,-1.02114 1.95434,-1.38877 1.38259,-0.799 3.44692,-1.02679 4.99443,-0.62105 2.07323,0.54353 3.53681,2.25857 4.47804,4.10889 1.74262,3.42585 2.4236,7.3961 3.47949,11.0746 0.53093,1.84978 1.43611,4.53276 0.58152,6.40589 -0.73244,1.60571 -2.70198,1.52721 -4.19607,1.51993 -3.85092,-0.0186 -7.26364,-3.00382 -7.27449,-6.94865 m -14.44041,-4.77728 3.14866,-0.10857 v 2.82293 h 5.21158 v -2.82293 l 3.14866,0.10857 c -0.69347,-1.80277 -2.78928,-3.33269 -4.12583,-4.6687 -0.37317,-0.37306 -1.04449,-1.28368 -1.62862,-1.28368 -0.58413,0 -1.25545,0.91062 -1.62862,1.28368 -1.34057,1.34003 -3.42975,2.85909 -4.12583,4.6687 z"
         id="path1428" /></g><path
       id="path1436"
       style="fill:#000000;fill-opacity:1;stroke-width:1.10923;stroke-linecap:round;stroke-linejoin:bevel;stroke-opacity:0.996078;paint-order:fill markers stroke"
       d="m 33.507322,245.02369 c -0.42225,3e-5 -0.84436,0.0159 -1.26543,0.0474 -0.42105,0.0315 -0.84077,0.0788 -1.25829,0.14168 -0.4176,0.063 -0.83269,0.14151 -1.24442,0.2355 -0.41159,0.0939 -0.81954,0.20317 -1.22297,0.32757 -0.40356,0.12449 -0.80233,0.26404 -1.19545,0.41834 -0.39304,0.15424 -0.78017,0.32313 -1.16058,0.5063 -0.38047,0.18327 -0.75393,0.3807 -1.11964,0.59188 -0.36566,0.21108 -0.72331,0.43575 -1.07218,0.67356 -0.34889,0.23787 -0.68875,0.4887 -1.01889,0.75198 -0.3301,0.2633 -0.65024,0.53885 -0.95974,0.82608 -0.30953,0.2872 -0.60821,0.58587 -0.89541,0.8954 -0.28722,0.3095 -0.56278,0.62964 -0.82607,0.95974 -0.26328,0.33014 -0.51411,0.67001 -0.75198,1.01889 -0.23789,0.34894 -0.46263,0.70666 -0.67377,1.07241 -0.21111,0.36563 -0.40847,0.73903 -0.59167,1.11941 -0.18318,0.38048 -0.35207,0.76768 -0.5063,1.16079 -0.1543,0.39306 -0.29384,0.79175 -0.41834,1.19524 -0.12448,0.4035 -0.23382,0.81152 -0.32779,1.22319 -0.0939,0.41166 -0.17239,0.82668 -0.23528,1.24421 -0.063,0.41751 -0.1103,0.83723 -0.1419,1.25828 -0.0315,0.42108 -0.0473,0.84318 -0.0472,1.26544 -4e-5,0.42225 0.0157,0.84436 0.0472,1.26543 0.0316,0.42105 0.0789,0.84077 0.1419,1.25828 0.0629,0.4176 0.14137,0.8327 0.23528,1.24442 0.094,0.41168 0.20331,0.81969 0.32779,1.22319 0.1245,0.40349 0.26404,0.80218 0.41834,1.19524 0.15424,0.39304 0.32313,0.78017 0.5063,1.16058 0.18319,0.38046 0.38055,0.75393 0.59167,1.11963 0.21114,0.36567 0.43589,0.72332 0.67377,1.07219 0.23787,0.34888 0.4887,0.68875 0.75198,1.01888 0.26329,0.33011 0.53885,0.65025 0.82607,0.95975 0.2872,0.30953 0.58588,0.60821 0.89541,0.8954 0.3095,0.28723 0.62964,0.56278 0.95974,0.82608 0.33014,0.26327 0.67,0.51411 1.01889,0.75198 0.34887,0.23788 0.70651,0.46262 1.07218,0.67377 0.36571,0.21111 0.73918,0.40847 1.11964,0.59166 0.38041,0.18318 0.76754,0.35207 1.16058,0.50631 0.39312,0.15431 0.79189,0.29385 1.19545,0.41834 0.40343,0.12447 0.81137,0.23381 1.22297,0.32778 0.41173,0.0939 0.82683,0.1724 1.24442,0.23528 0.41752,0.063 0.83724,0.11031 1.25829,0.14191 0.42107,0.0315 0.84318,0.0473 1.26543,0.0472 0.42225,5e-5 0.84436,-0.0157 1.26544,-0.0472 0.42105,-0.0316 0.84077,-0.0789 1.25828,-0.14191 0.41752,-0.0629 0.83255,-0.14136 1.2442,-0.23528 0.41168,-0.094 0.81969,-0.20331 1.22319,-0.32778 0.40349,-0.12449 0.80218,-0.26404 1.19524,-0.41834 0.39311,-0.15424 0.78031,-0.32312 1.1608,-0.50631 0.38045,-0.18319 0.75392,-0.38055 1.11963,-0.59166 0.36567,-0.21115 0.72331,-0.43589 1.07218,-0.67377 0.34889,-0.23787 0.68876,-0.48871 1.01889,-0.75198 0.33011,-0.2633 0.65025,-0.53885 0.95975,-0.82608 0.30952,-0.28719 0.6082,-0.58587 0.8954,-0.8954 0.28723,-0.3095 0.56278,-0.62964 0.82607,-0.95975 0.26328,-0.33013 0.51411,-0.67 0.75199,-1.01888 0.23787,-0.34887 0.46262,-0.70652 0.67377,-1.07219 0.21111,-0.3657 0.40847,-0.73917 0.59166,-1.11963 0.18318,-0.38041 0.35206,-0.76754 0.5063,-1.16058 0.1543,-0.39306 0.29385,-0.79175 0.41835,-1.19524 0.1244,-0.4035 0.23367,-0.81152 0.32757,-1.22319 0.094,-0.41172 0.17254,-0.82682 0.23549,-1.24442 0.063,-0.41751 0.11031,-0.83723 0.14191,-1.25828 0.0315,-0.42107 0.0473,-0.84318 0.0472,-1.26543 -1e-5,-0.14532 -0.002,-0.29063 -0.006,-0.4359 -0.004,-0.14536 -0.009,-0.29067 -0.0169,-0.43589 -0.007,-0.14512 -0.0168,-0.29015 -0.028,-0.43503 -0.0112,-0.14496 -0.0243,-0.28976 -0.0392,-0.43438 -0.015,-0.14457 -0.0318,-0.28894 -0.0505,-0.43307 -0.0187,-0.14412 -0.0392,-0.28798 -0.0615,-0.43157 -0.0223,-0.14365 -0.0465,-0.28701 -0.0726,-0.43004 -0.0261,-0.14298 -0.0541,-0.28561 -0.0838,-0.42787 -0.0297,-0.14231 -0.0613,-0.28422 -0.0947,-0.42571 -0.0334,-0.14142 -0.0685,-0.28239 -0.10551,-0.4229 -0.0371,-0.14059 -0.0759,-0.2807 -0.11655,-0.4203 -0.0406,-0.13955 -0.083,-0.27858 -0.12718,-0.41704 -0.0442,-0.13845 -0.0902,-0.27632 -0.138,-0.41358 -0.0477,-0.13726 -0.0972,-0.27391 -0.1484,-0.40989 -0.0513,-0.13601 -0.10427,-0.27136 -0.15902,-0.406 -0.0548,-0.13469 -0.11136,-0.26866 -0.16963,-0.40188 -0.0582,-0.13321 -0.11804,-0.26567 -0.17961,-0.39733 -0.0616,-0.13159 -0.12498,-0.26238 -0.18999,-0.39235 -0.065,-0.13005 -0.13165,-0.25925 -0.19997,-0.38758 -0.0683,-0.12829 -0.13832,-0.25568 -0.20993,-0.38217 -0.0715,-0.12651 -0.1447,-0.25211 -0.21946,-0.37674 -0.0749,-0.12462 -0.15136,-0.24826 -0.22943,-0.3709 -0.078,-0.12264 -0.1576,-0.24426 -0.23875,-0.36484 -0.0811,-0.12057 -0.16369,-0.2401 -0.24784,-0.35855 -0.0843,-0.11845 -0.17008,-0.23581 -0.25738,-0.35205 -0.0872,-0.11625 -0.17588,-0.23137 -0.26604,-0.34533 -0.0903,-0.11398 -0.18198,-0.22679 -0.27514,-0.33841 -0.0931,-0.11163 -0.18764,-0.22206 -0.28359,-0.33125 -0.096,-0.10921 -0.19331,-0.21718 -0.29204,-0.32389 -0.0987,-0.10664 -0.19883,-0.21201 -0.30028,-0.31608 -0.10143,-0.10408 -0.2042,-0.20686 -0.30828,-0.30829 -0.10407,-0.10145 -0.20944,-0.20154 -0.31609,-0.30027 -0.1067,-0.0987 -0.21467,-0.19609 -0.32389,-0.29205 -0.10919,-0.0959 -0.21962,-0.19048 -0.33125,-0.28359 -0.11154,-0.0932 -0.22428,-0.18488 -0.33819,-0.27514 -0.11403,-0.0902 -0.22923,-0.17885 -0.34555,-0.26604 -0.11624,-0.0872 -0.2336,-0.17295 -0.35205,-0.25716 -0.11845,-0.0842 -0.23797,-0.16691 -0.35855,-0.24806 -0.12058,-0.0812 -0.2422,-0.16073 -0.36483,-0.23874 -0.12265,-0.0781 -0.24629,-0.15455 -0.3709,-0.22944 -0.12464,-0.0748 -0.25023,-0.14792 -0.37675,-0.21946 -0.12649,-0.0716 -0.25388,-0.1416 -0.38217,-0.20993 -0.12833,-0.0683 -0.25753,-0.13498 -0.38758,-0.19997 -0.12996,-0.065 -0.26075,-0.12835 -0.39234,-0.18999 -0.13167,-0.0616 -0.26413,-0.12144 -0.39734,-0.17961 -0.13323,-0.0582 -0.2672,-0.11467 -0.40188,-0.16941 -0.13464,-0.0548 -0.26998,-0.10791 -0.40599,-0.15924 -0.13599,-0.0512 -0.27264,-0.10069 -0.4099,-0.1484 -0.13726,-0.0478 -0.27513,-0.0938 -0.41358,-0.138 -0.13846,-0.0442 -0.27748,-0.0866 -0.41704,-0.12718 -0.13959,-0.0407 -0.2797,-0.0795 -0.4203,-0.11655 -0.14051,-0.037 -0.28148,-0.0721 -0.42289,-0.10551 -0.14149,-0.0334 -0.28341,-0.0649 -0.42571,-0.0947 -0.14226,-0.0298 -0.2849,-0.0577 -0.42788,-0.0839 -0.14303,-0.026 -0.28639,-0.0502 -0.43004,-0.0726 -0.14359,-0.0223 -0.28745,-0.0429 -0.43156,-0.0615 -0.14414,-0.0187 -0.28851,-0.0355 -0.43308,-0.0505 -0.14462,-0.0149 -0.28942,-0.028 -0.43438,-0.0392 -0.14488,-0.0112 -0.2899,-0.0205 -0.43502,-0.028 -0.14522,-0.007 -0.29053,-0.0131 -0.4359,-0.0169 -0.14526,-0.004 -0.29058,-0.006 -0.43589,-0.006 z m -0.69197,8.02157 c 1.26984,-0.003 2.54024,0.003 3.80952,0.003 1.13877,0 2.27581,0.0697 3.41262,0.0832 0.47982,0.006 1.16826,-0.1148 1.58152,0.17375 0.75726,0.52868 1.42009,1.29807 1.97149,2.03215 0.21055,0.28024 0.49102,0.60121 0.55353,0.95714 0.12323,0.70148 0.0347,1.56799 -0.36462,2.16409 -0.73813,1.10205 -2.23443,1.31655 -3.2003,0.37306 -0.41174,-0.4022 -0.50168,-0.85108 -0.66641,-1.3718 -0.0307,1.4784 -1.69975,2.38955 -2.99666,1.79361 -0.7252,-0.33323 -1.02806,-0.9846 -1.20694,-1.71042 h -0.0416 c -0.10933,2.50729 -4.2761,2.46737 -4.32817,-0.0416 h -0.0418 c -0.0894,0.6922 -0.45083,1.35323 -1.08193,1.69288 -1.32118,0.71096 -3.0557,-0.2065 -3.12145,-1.73448 h -0.0416 c -0.0258,1.2446 -1.34052,2.22005 -2.53866,1.93509 -0.89203,-0.21217 -1.57122,-1.08218 -1.65778,-1.97668 -0.0335,-0.34594 -0.0707,-0.82849 0.0184,-1.16535 0.20962,-0.79242 1.03872,-1.56344 1.59777,-2.12249 0.32659,-0.32659 0.71165,-0.8008 1.16534,-0.94804 0.31541,-0.10236 0.67258,-0.0382 0.99875,-0.0524 0.79013,-0.0346 1.58028,-0.0213 2.37228,-0.0407 1.26753,-0.0311 2.53686,-0.0413 3.8067,-0.0438 z m -1.55942,5.87091 c 0.27601,0.25204 0.4789,0.56866 0.79076,0.78903 0.78592,0.5554 1.92214,0.60034 2.74686,0.10095 0.39313,-0.23801 0.61559,-0.60789 0.95715,-0.88998 0.94524,1.65905 3.19131,1.52393 4.2036,0.0418 h 0.0832 c 0.31638,0.50578 0.84347,0.90591 1.41514,1.08041 0.18366,0.056 0.84579,0.0264 0.92616,0.18155 0.10984,0.21213 0.0637,0.62338 0.0741,0.86053 0.0283,0.63908 0.0817,1.27313 0.0817,1.9145 0,1.98117 0.0792,3.98071 -0.11785,5.95129 -0.0795,0.79525 -0.14826,1.8345 -0.64951,2.49491 -0.21671,0.2855 -0.69115,0.28966 -1.02214,0.33515 -0.83083,0.11416 -1.66849,0.15855 -2.49707,0.26734 -0.89234,0.11718 -1.80727,0.0697 -2.70527,0.10897 -2.30087,0.10076 -4.61448,0.0351 -6.90865,-0.12283 -0.81914,-0.0564 -1.64473,-0.12308 -2.45548,-0.26388 -0.26445,-0.0459 -0.68377,-0.047 -0.87829,-0.25087 -0.68342,-0.71617 -0.66429,-2.10887 -0.75198,-3.02656 -0.26569,-2.78066 0.0488,-5.58718 0.0488,-8.36517 0.99311,0.0399 1.78627,-0.35029 2.37228,-1.16534 h 0.0832 c 0.9668,1.41551 3.34027,1.69092 4.20339,-0.0418 z m -1.61489,2.26266 c -0.54137,0.0179 -1.07937,0.19485 -1.46475,0.5336 -0.87436,0.76861 -1.21556,1.90874 -1.51588,2.98886 -0.26221,0.94312 -0.54481,1.88199 -0.78859,2.83006 -0.16304,0.6341 -0.4458,1.69828 0.0659,2.24294 0.33839,0.36025 0.91132,0.33749 1.36466,0.33732 1.50571,-4.2e-4 2.86729,-1.09311 2.87165,-2.66345 l 2.12249,0.20733 4.53637,-0.20733 c 0.004,1.51211 1.31234,2.65633 2.78846,2.66345 0.5727,0.003 1.32763,0.033 1.60839,-0.58256 0.32758,-0.718 -0.0194,-1.74642 -0.22293,-2.45548 -0.40474,-1.41003 -0.66571,-2.932 -1.33368,-4.24519 -0.36079,-0.70926 -0.92179,-1.36668 -1.71649,-1.57502 -0.59318,-0.15553 -1.38454,-0.0682 -1.91451,0.23809 -0.24384,0.14092 -0.47727,0.47083 -0.74917,0.5323 -0.32354,0.0732 -0.75002,-0.0605 -1.08193,-0.0687 -0.79662,-0.0195 -1.58003,0.0336 -2.37228,0.0747 -0.35404,0.0184 -0.68774,-0.44948 -0.99896,-0.6051 -0.3546,-0.17729 -0.77764,-0.25977 -1.19871,-0.24589 z m 3.86238,2.15628 c 0.22391,0 0.48112,0.34922 0.62416,0.49223 0.51232,0.51211 1.3157,1.09847 1.58152,1.7895 l -1.20694,-0.0416 v 1.08215 h -1.9977 v -1.08215 l -1.20694,0.0416 c 0.26682,-0.69365 1.06766,-1.27585 1.58152,-1.7895 0.14305,-0.14301 0.40047,-0.49223 0.62438,-0.49223 z"
       inkscape:export-filename="itch-io.png"
       inkscape:export-xdpi="96"
       inkscape:export-ydpi="96"
       sodipodi:nodetypes="sccccccccccccccccccccccccccsccccccccscscccccccccccsccccscscccccsscscccccsccccccccccccccccccscsscscccsscccccccccccccscccccscssscssccscscscccccccscssssscccccccccccsssscccccsccccscssscccccccssscssssscccccccss" /><g
       id="g1587"
       transform="matrix(0.38977112,0,0,0.38977112,33.823769,32.922514)"
       inkscape:export-filename="../../public/favicon.ico"
       inkscape:export-xdpi="48"
       inkscape:export-ydpi="48"><circle
         style="fill:#322f39;fill-opacity:1;stroke:none;stroke-width:0.264583;stroke-linecap:round;stroke-linejoin:bevel;paint-order:fill markers stroke"
         id="path236"
         cx="104.28271"
         cy="75.232529"
         r="10.861075"
         inkscape:export-filename="../../public/favicon.ico"
         inkscape:export-xdpi="18.709015"
         inkscape:export-ydpi="18.709015" /><text
         xml:space="preserve"
         style="font-style:normal;font-weight:normal;font-size:24.3255px;line-height:1.25;font-family:sans-serif;fill:#ffffff;fill-opacity:1;stroke:none;stroke-width:0.608138"
         x="97.684677"
         y="81.509888"
         id="text400"><tspan
           sodipodi:role="line"
           id="tspan398"
           style="font-style:normal;font-variant:normal;font-weight:normal;font-stretch:normal;font-size:24.3255px;font-family:Jamrul;-inkscape-font-specification:'Jamrul, Normal';font-variant-ligatures:normal;font-variant-caps:normal;font-variant-numeric:normal;font-variant-east-asian:normal;fill:#ffffff;stroke-width:0.608138"
           x="97.684677"
           y="81.509888">s</tspan></text></g><g
       id="g2004"
       transform="matrix(0.77954223,0,0,0.77954223,5.9319746,-9.8240223)"
       inkscape:export-filename="../../public/logo512.png"
       inkscape:export-xdpi="768"
       inkscape:export-ydpi="768"><circle
         style="fill:#322f39;fill-opacity:1;stroke:none;stroke-width:0.264583;stroke-linecap:round;stroke-linejoin:bevel;paint-order:fill markers stroke"
         id="circle1998"
         cx="104.28271"
         cy="75.232529"
         r="10.861075"
         inkscape:export-filename="../../public/favicon.ico"
         inkscape:export-xdpi="18.709015"
         inkscape:export-ydpi="18.709015" /><text
         xml:space="preserve"
         style="font-style:normal;font-weight:normal;font-size:24.3255px;line-height:1.25;font-family:sans-serif;fill:#ffffff;fill-opacity:1;stroke:none;stroke-width:0.608138"
         x="97.684677"
         y="81.509888"
         id="text2002"><tspan
           sodipodi:role="line"
           id="tspan2000"
           style="font-style:normal;font-variant:normal;font-weight:normal;font-stretch:normal;font-size:24.3255px;font-family:Jamrul;-inkscape-font-specification:'Jamrul, Normal';font-variant-ligatures:normal;font-variant-caps:normal;font-variant-numeric:normal;font-variant-east-asian:normal;fill:#ffffff;stroke-width:0.608138"
           x="97.684677"
           y="81.509888">s</tspan></text></g><g
       id="g2012"
       transform="matrix(0.58465667,0,0,0.58465667,39.637442,27.030517)"
       inkscape:export-filename="../../public/logo192.png"
       inkscape:export-xdpi="384"
       inkscape:export-ydpi="384"><circle
         style="fill:#322f39;fill-opacity:1;stroke:none;stroke-width:0.264583;stroke-linecap:round;stroke-linejoin:bevel;paint-order:fill markers stroke"
         id="circle2006"
         cx="104.28271"
         cy="75.232529"
         r="10.861075"
         inkscape:export-filename="../../public/favicon.ico"
         inkscape:export-xdpi="18.709015"
         inkscape:export-ydpi="18.709015" /><text
         xml:space="preserve"
         style="font-style:normal;font-weight:normal;font-size:24.3255px;line-height:1.25;font-family:sans-serif;fill:#ffffff;fill-opacity:1;stroke:none;stroke-width:0.608138"
         x="97.684677"
         y="81.509888"
         id="text2010"><tspan
           sodipodi:role="line"
           id="tspan2008"
           style="font-style:normal;font-variant:normal;font-weight:normal;font-stretch:normal;font-size:24.3255px;font-family:Jamrul;-inkscape-font-specification:'Jamrul, Normal';font-variant-ligatures:normal;font-variant-caps:normal;font-variant-numeric:normal;font-variant-east-asian:normal;fill:#ffffff;stroke-width:0.608138"
           x="97.684677"
           y="81.509888">s</tspan></text></g><path
       id="path2337"
       style="fill:#000000;fill-opacity:1;stroke-width:0.155647;stroke-linecap:round;stroke-linejoin:bevel;paint-order:fill markers stroke"
       class="UnoptimicedTransforms"
       d="m 208.88421,238.24845 a 40.390779,40.298519 75 0 0 -8.92348,1.34255 40.390779,40.298519 75 0 0 -28.47165,49.44453 40.390779,40.298519 75 0 0 49.37942,28.5843 40.390779,40.298519 75 0 0 28.47113,-49.44453 40.390779,40.298519 75 0 0 -40.45542,-29.92685 z m -0.56017,17.91829 c 4.97219,-0.0168 10.73827,0.0674 12.51397,0.23099 2.58849,0.23838 4.95778,1.02092 6.66987,2.20297 2.26247,1.56203 3.87479,3.88949 4.6545,6.71897 0.57894,2.10088 0.68113,4.05157 0.68575,13.12012 0.005,10.39153 -0.10329,11.92388 -1.03095,14.55261 -1.06952,3.03061 -3.42392,5.55947 -6.25181,6.71483 -2.49084,1.01766 -3.81063,1.20941 -8.72505,1.26969 -1.87542,0.023 -4.16764,0.0523 -5.09375,0.0646 -0.92614,0.0129 -3.72956,-10e-4 -6.23011,-0.0326 -5.83627,-0.0704 -7.07116,-0.19561 -9.21287,-0.93276 -1.90944,-0.65719 -2.96567,-1.29151 -4.34341,-2.60863 -0.9744,-0.93155 -1.63958,-1.79549 -2.16214,-2.80809 -1.01885,-1.9742 -1.42421,-3.57858 -1.66915,-6.60787 -0.13948,-1.72514 -0.20178,-12.61335 -0.092,-16.08067 0.11269,-3.55854 0.24766,-4.91459 0.64027,-6.43837 0.64658,-2.5094 1.61128,-4.17588 3.39824,-5.86889 2.20701,-2.09095 4.92639,-3.08341 9.1891,-3.35328 1.37841,-0.0873 4.07621,-0.13357 7.05952,-0.14366 z m 2.24379,4.06848 c -9.65429,0.007 -10.92587,0.0811 -12.98732,0.75448 -2.97439,0.97155 -4.79854,3.37739 -5.27668,6.95978 -0.20028,1.50063 -0.30094,5.10373 -0.29817,10.68617 0.005,9.13491 0.16181,11.35724 0.93586,13.23433 0.47639,1.15527 0.81813,1.66094 1.75131,2.59209 0.83273,0.8309 0.96759,0.92977 1.86139,1.36116 1.11036,0.53588 2.23829,0.84936 3.55275,0.98805 2.08176,0.21965 11.87166,0.31458 17.07028,0.16537 1.55127,-0.0446 3.18053,-0.12119 3.62045,-0.17053 1.31562,-0.1474 2.46973,-0.4665 3.50883,-0.96997 0.80299,-0.38908 1.05391,-0.56339 1.71411,-1.19166 1.08126,-1.02895 1.61568,-1.85243 2.05827,-3.17086 0.51715,-1.5406 0.60961,-2.42316 0.71623,-6.83163 0.0989,-4.09083 -0.0145,-15.06292 -0.17001,-16.33389 -0.20228,-1.6611 -0.60445,-2.98923 -1.23662,-4.08295 -0.44076,-0.76257 -1.83464,-2.15045 -2.61173,-2.60036 -0.73588,-0.42606 -2.05022,-0.8679 -3.13727,-1.05472 -1.71581,-0.2949 -3.22609,-0.34066 -11.07168,-0.33486 z m 11.82926,3.7791 c 0.61155,0 0.78472,0.0343 1.19062,0.23358 0.60677,0.29795 1.09571,0.82913 1.32395,1.43918 0.58281,1.55769 -0.28696,3.17634 -1.91254,3.55896 -0.52744,0.12412 -0.5799,0.12574 -1.07281,0.0279 -0.89157,-0.17676 -1.55905,-0.70464 -1.92649,-1.52343 -0.60601,-1.35036 -0.0573,-2.88026 1.2671,-3.53208 0.34003,-0.16735 0.54306,-0.20412 1.13017,-0.20412 z m -11.94915,3.12229 c 0.80876,6.7e-4 1.61861,0.0504 2.11874,0.14831 4.71365,0.92424 8.36795,4.64015 9.20254,9.35809 0.20085,1.13547 0.20469,3.02772 0.008,4.03076 -0.46888,2.38833 -1.52766,4.39157 -3.20962,6.07353 -2.556,2.556 -6.14759,3.77529 -9.68313,3.28662 h -5.2e-4 c -2.5344,-0.35029 -4.74397,-1.45514 -6.56704,-3.28404 -2.28463,-2.29192 -3.36887,-4.95048 -3.36672,-8.25427 9.5e-4,-1.48236 0.11513,-2.20882 0.55656,-3.53622 1.30196,-3.91459 4.69664,-6.86628 8.82995,-7.67809 0.4948,-0.0972 1.30222,-0.14536 2.11098,-0.14469 z m -0.0481,4.04265 c -1.11831,0.005 -1.34777,0.0316 -2.00297,0.23099 -2.48467,0.75582 -4.32451,2.5387 -5.09582,4.93872 -0.82551,2.56878 -0.16947,5.42056 1.69861,7.38714 1.84807,1.94555 4.30679,2.73403 6.88743,2.20814 1.05863,-0.21573 1.76406,-0.49763 2.57866,-1.0294 2.43383,-1.58882 3.73452,-4.32477 3.39049,-7.13135 -0.31905,-2.60272 -1.94688,-4.87977 -4.24987,-5.94382 -1.16432,-0.53795 -1.79128,-0.6669 -3.20653,-0.66042 z"
       transform="matrix(0.42013394,0,0,0.42013394,-54.894892,-26.526126)" /><path
       style="fill:#000000;stroke-width:0.836116;stroke-linecap:round;stroke-linejoin:bevel;stroke-opacity:0.996078;paint-order:fill markers stroke"
       d="m 72.64352,115.00085 c -0.55952,0.85555 -0.49957,2.24643 -0.24278,3.27484 -1.29513,1.44882 -1.46934,3.53438 -1.02029,5.35315 0.38873,2.23187 2.48446,3.71459 4.63896,3.97163 0.9366,0.0531 0.6559,0.108 0.37268,0.55155 -0.15742,0.24653 -0.26579,0.67432 -0.28546,1.14225 -1.08214,0.86537 -2.98911,0.47393 -3.64552,-0.81037 -0.18297,-0.86256 -2.55893,-1.96855 -2.32729,-0.83804 1.51154,0.71767 1.5093,2.7659 2.99332,3.47499 0.71551,0.82233 2.59261,-0.15288 2.92384,0.48248 l 0.0139,7.74776 5.99519,0.0393 c 0,0 0.42055,-10.43866 -0.68246,-11.65484 2.07513,-0.20033 4.39679,-1.09924 5.17741,-3.20682 0.71931,-2.02239 0.80864,-4.58694 -0.7679,-6.2457 0.34928,-1.05401 0.24147,-2.24432 -0.13327,-3.28216 -1.24037,-0.02 -2.37101,0.61941 -3.37995,1.27999 -2.04511,-0.57794 -4.25162,-0.56357 -6.30054,-0.0111 -1.01832,-0.60865 -2.10411,-1.27967 -3.32984,-1.26893 z"
       id="path3442"
       sodipodi:nodetypes="ccccsccccccccccccccc" /><path
       style="fill:#000000;fill-opacity:1;stroke:none;stroke-width:0.25984;stroke-linecap:round;stroke-linejoin:bevel;paint-order:fill markers stroke"
       id="path3788"
       sodipodi:type="arc"
       sodipodi:cx="328.33344"
       sodipodi:cy="132.6044"
       sodipodi:rx="40.447762"
       sodipodi:ry="40.447762"
       d="m 319.82409,172.1563 -0.0221,-11.07535 c -0.99918,-1.91665 -6.6591,1.0251 -8.81756,-1.4556 -4.4768,-2.1391 -4.47236,-8.31348 -9.0322,-10.47845 -0.69878,-3.41038 6.47412,-0.0827 7.02605,2.51931 1.98021,3.87433 7.72718,5.05521 10.99163,2.44466 0.0594,-1.41158 0.39294,-2.69936 0.86781,-3.44305 0.85433,-1.33804 1.69639,-1.50072 -1.12903,-1.66088 -6.4994,-0.7754 -12.82351,-5.24788 -13.99616,-11.9807 -1.35462,-5.48663 -0.82782,-11.78094 3.07915,-16.15155 -0.77465,-3.10238 -0.95079,-7.30038 0.73714,-9.88128 3.69762,-0.0324 6.96796,1.99885 10.03989,3.83494 6.18094,-1.66676 12.83737,-1.71549 19.00679,0.028 3.04365,-1.99277 6.45673,-3.92316 10.1985,-3.86294 1.13046,3.13081 1.45489,6.72033 0.40125,9.89994 4.7559,5.00392 4.48397,12.74727 2.314,18.84814 -2.35485,6.35789 -9.35969,9.07169 -15.61969,9.67601 1.89825,2.09301 2.30177,13.24034 2.29821,22.4301 17.58477,-4.39418 30.61139,-20.29838 30.61139,-39.24414 0,-22.33868 -18.11018,-40.448859 -40.44888,-40.448859 -22.33866,0 -40.44883,18.110179 -40.44883,40.448859 0,19.42082 13.68809,35.64565 31.94263,39.55284 z"
       transform="matrix(0.20932102,0,0,0.20932102,80.789189,9.7042459)"
       inkscape:export-filename="github.svg"
       inkscape:export-xdpi="598.69116"
       inkscape:export-ydpi="598.69116"
       inkscape:path-effect="#path-effect3794"
       class="UnoptimicedTransforms" /><path
       style="fill:#000000;stroke-width:2.65525;stroke-linecap:round;stroke-linejoin:bevel;stroke-opacity:0.996078;paint-order:fill markers stroke;filter:url(#selectable_hidder_filter)"
       d="m 225.13052,195.57265 c -1.77688,2.71695 -1.58649,7.13397 -0.77101,10.39989 -4.11293,4.60101 -4.66616,11.22413 -3.24011,16.99999 1.23449,7.08774 7.88989,11.79639 14.73191,12.61267 2.97438,0.1686 2.08294,0.343 1.18353,1.75158 -0.4999,0.78289 -0.84406,2.14142 -0.90654,3.62742 -3.43655,2.74817 -9.49251,1.50508 -11.57707,-2.57349 -0.58104,-2.73923 -8.12639,-6.25151 -7.39077,-2.66134 4.80019,2.27909 4.7931,8.78364 9.50588,11.03551 2.27224,2.61147 8.23337,-0.48549 9.28523,1.5322 l 0.0442,24.60455 19.03888,0.12474 c 0,0 1.33556,-33.15002 -2.16728,-37.01226 6.59001,-0.63617 13.9629,-3.49083 16.44189,-10.18387 2.28433,-6.42249 2.56801,-14.56675 -2.43861,-19.83445 1.10921,-3.34723 0.76683,-7.12729 -0.42323,-10.42314 -3.93903,-0.0634 -7.52961,1.96705 -10.73371,4.06487 -6.49463,-1.83539 -13.50184,-1.78973 -20.0086,-0.0351 -3.23386,-1.93288 -6.68202,-4.06383 -10.57455,-4.02973 z"
       id="path3790"
       sodipodi:nodetypes="ccccsccccccccccccccc"
       transform="matrix(0.19883916,0,0,0.19883916,100.81466,-5.9493351)"
       class="UnoptimicedTransforms" /><text
       xml:space="preserve"
       style="font-style:normal;font-weight:normal;font-size:5.39571px;line-height:1.25;font-family:sans-serif;fill:#000000;fill-opacity:1;stroke:none;stroke-width:0.134893"
       x="140.8428"
       y="22.205364"
       id="text1098"><tspan
         sodipodi:role="line"
         id="tspan1096"
         style="stroke-width:0.134893"
         x="140.8428"
         y="22.205364">Expirimental</tspan></text><g
       id="g1274"
       transform="matrix(1.2729741,0,0,1.2729741,-81.570425,106.35541)"><path
         style="fill:#000000;stroke-width:2.65525;stroke-linecap:round;stroke-linejoin:bevel;stroke-opacity:0.996078;paint-order:fill markers stroke"
         d="m 137.31347,145.72948 a 39.899586,39.899586 0 0 0 -0.2651,0.38654 c 0.0863,-0.13043 0.17717,-0.25733 0.2651,-0.38654 z"
         id="path3444" /><path
         style="fill:#000000;stroke-width:2.65525;stroke-linecap:round;stroke-linejoin:bevel;stroke-opacity:0.996078;paint-order:fill markers stroke"
         d="m 138.94954,143.51515 a 39.899586,39.899586 0 0 0 -0.0191,0.0238 c 0.006,-0.008 0.0128,-0.0158 0.0191,-0.0238 z"
         id="path3440" /><g
         id="g777"
         style="fill:#000000;fill-opacity:1"
         transform="matrix(2.6298959,0,0,2.6298959,-382.11831,-381.31347)"><path
           style="fill:#000000;fill-opacity:1;stroke:none;stroke-width:0.132291"
           d="m 191.65385,201.31038 h 2.51354 v 0.37779 c 0,0 -1.0318,0.005 -2.11199,0 -0.82128,-0.004 -1.67052,-0.0437 -2.11552,0.24956 -1.10798,0.73012 -1.13787,3.30982 -0.19987,4.19169 0.44602,0.41933 1.08444,0.34026 1.64926,0.34032 0,-0.85697 -0.10142,-1.89082 0.79619,-2.35757 1.34693,-0.70042 4.35075,0.76371 4.35075,-1.61118 v -1.95988 c 0,-0.36446 -0.18133,-0.67851 -0.41463,-0.89837 -0.86822,-0.8182 -3.47155,-0.91822 -4.23726,0.10983 -0.31869,0.42788 -0.23044,1.05602 -0.23049,1.5578 m 0.96279,-1.35579 c 0.44671,-0.14252 0.67617,0.59842 0.20333,0.68637 -0.39317,0.0731 -0.60208,-0.55915 -0.20333,-0.68637"
           id="path468"
           sodipodi:nodetypes="cccccsccsssscccc" /></g><use
         x="0"
         y="0"
         xlink:href="#g777"
         id="use1135"
         transform="rotate(180,128.41903,155.41658)" /></g><g
       id="g2720"
       transform="translate(-34.080365,194.40344)"><path
         style="fill:#000000;stroke-width:0.228518"
         d="m 162.14153,121.25119 c -1.60133,-0.52749 -3.32553,-1.77085 -4.38879,-3.16487 -0.41407,-0.54289 -0.75218,-1.0562 -0.75135,-1.1407 8.7e-4,-0.0845 3.90046,-2.36435 3.90046,-2.36435 l 0.48433,0.61571 c 0.78266,0.99499 1.39289,1.51386 2.17625,1.8504 0.40434,0.17371 1.31115,0.44649 2.05127,0.4719 0.87769,0.0302 1.59263,-0.21818 1.97016,-0.41127 0.82475,-0.4218 1.2885,-1.17789 1.29388,-2.10962 -0.10112,-0.89348 -0.21367,-1.15419 -0.68232,-1.52164 -0.40714,-0.31923 -1.81213,-1.1308 -3.18681,-1.72805 -1.37468,-0.59726 -2.98888,-1.45586 -3.58714,-1.90802 -1.58168,-1.19544 -2.51298,-2.52922 -2.82905,-4.0517 -0.46159,-2.22345 0.0472,-4.2623 1.49208,-5.97947 0.85314,-1.013894 2.82504,-1.890536 4.64482,-2.027456 6.07548,-0.457118 7.87725,3.973836 7.87725,3.973836 0,0 -3.25106,1.87301 -3.76058,2.08447 0,0 -0.90278,-1.99634 -3.14462,-1.78779 -1.02333,0.0952 -2.41406,0.19882 -2.45251,2.22637 -0.009,0.46465 0.36991,1.0661 0.6566,1.3497 0.28669,0.2836 1.37138,1.19877 2.78465,1.82664 3.89994,1.73259 4.999,2.97885 5.78416,4.00066 1.06871,1.39079 1.65299,3.32254 1.0057,5.73824 -0.39248,1.46475 -1.7976,2.96819 -3.40568,3.74609 -1.15592,0.55917 -1.77265,0.7972 -4.09909,0.85514 -2.12873,0.053 -3.83367,-0.54422 -3.83367,-0.54422 z"
         id="path1298"
         sodipodi:nodetypes="ssscsssscsssssscssssssssss" /><path
         style="fill:#000000;stroke-width:0.228518"
         d="m 141.48843,119.44038 c -0.53347,-0.53983 -1.53056,-2.35605 -1.53056,-2.35605 l 3.75974,-2.35321 c 0,0 1.18267,2.59736 3.2648,2.59736 1.25603,0 2.72114,-0.3188 2.79181,-2.58517 l -0.16084,-7.9604 v -9.008929 h 4.96622 l -0.0853,9.312109 c -0.058,6.3295 -0.22995,9.8671 -0.71204,10.84791 -1.12819,2.29529 -2.72782,3.2313 -3.80865,3.51598 -1.29332,0.34064 -5.237,1.27721 -8.48514,-2.0096 z"
         id="path1294"
         sodipodi:nodetypes="sccsccccsssss" /></g><path
       style="fill:#000000;stroke-width:0.17024"
       d="m 162.01151,322.76392 c -0.41189,-0.22253 -3.69829,-2.1047 -7.30312,-4.18261 -3.60484,-2.07788 -6.79248,-4.00715 -7.08366,-4.28725 -0.29117,-0.2801 -0.61675,-0.80083 -0.72351,-1.15717 -0.1342,-0.4479 -0.19297,-3.24304 -0.19039,-9.05503 0.003,-7.80953 0.0261,-8.45555 0.31803,-9.0881 0.17286,-0.37454 0.49857,-0.85039 0.7238,-1.05747 0.22523,-0.20709 3.62525,-2.23113 7.55559,-4.49789 6.35657,-3.66605 7.24472,-4.1299 8.03897,-4.19843 0.52801,-0.0456 1.11406,0.0145 1.4341,0.14713 0.29765,0.12329 3.64964,2.01467 7.44887,4.20305 3.79922,2.1884 7.09014,4.14625 7.31317,4.35077 0.22302,0.20453 0.54692,0.6783 0.71978,1.05284 0.29228,0.63329 0.31428,1.27686 0.31428,9.19297 0,7.9161 -0.022,8.55968 -0.31428,9.19297 -0.17286,0.37453 -0.49676,0.84663 -0.71978,1.0491 -0.22303,0.2025 -3.39322,2.08739 -7.04487,4.18866 -3.65166,2.10125 -6.96191,3.98485 -7.35611,4.18576 -0.44357,0.22607 -1.03407,0.36529 -1.54937,0.36529 -0.55304,0 -1.08408,-0.13585 -1.5815,-0.40459 z m 4.48418,-7.84605 c 0.53737,-0.14085 1.47524,-0.499 2.08413,-0.79589 0.60892,-0.29689 1.54818,-0.89441 2.08729,-1.32782 0.53909,-0.4334 1.34876,-1.27482 1.79925,-1.86983 0.45048,-0.59499 0.7569,-1.14106 0.68095,-1.21347 -0.076,-0.0724 -1.134,-0.70854 -2.35122,-1.4136 l -2.21313,-1.28192 -0.70354,0.80345 c -0.38695,0.44189 -1.08768,1.01252 -1.55719,1.26806 -0.4695,0.25553 -1.26023,0.54171 -1.75718,0.63596 -0.60405,0.11456 -1.20886,0.11491 -1.82465,0.001 -0.50661,-0.0935 -1.25188,-0.33548 -1.65616,-0.53738 -0.40428,-0.20192 -1.0402,-0.68169 -1.41317,-1.06616 -0.37295,-0.38448 -0.84069,-1.01545 -1.0394,-1.40212 -0.19871,-0.38669 -0.44465,-1.15277 -0.54653,-1.7024 -0.13786,-0.74376 -0.1332,-1.24919 0.0183,-1.9763 0.12492,-0.59995 0.45808,-1.35544 0.86331,-1.95776 0.37849,-0.56253 1.0252,-1.22694 1.51647,-1.55798 0.47111,-0.31744 1.25812,-0.68133 1.7489,-0.80864 0.49078,-0.12725 1.1357,-0.23142 1.43314,-0.23142 0.29745,0 1.05559,0.15901 1.68479,0.35335 0.94104,0.29066 1.32794,0.53225 2.1811,1.36192 0.57042,0.55472 1.05174,1.00859 1.06961,1.00859 0.0179,0 1.07751,-0.60454 2.35475,-1.3434 l 2.32229,-1.34342 -0.8152,-1.07669 c -0.44838,-0.59221 -1.27486,-1.44815 -1.83667,-1.90215 -0.56178,-0.45397 -1.55769,-1.083 -2.21311,-1.39785 -0.65544,-0.31484 -1.78218,-0.69296 -2.50387,-0.84025 -0.72171,-0.14728 -1.79422,-0.26645 -2.38337,-0.26482 -0.58914,0.002 -1.5976,0.11449 -2.241,0.2508 -0.64341,0.13631 -1.82654,0.5657 -2.62916,0.9542 -1.16209,0.56249 -1.74158,0.98861 -2.84509,2.09212 -1.08414,1.08413 -1.5408,1.70025 -2.09806,2.83068 -0.39178,0.79471 -0.82453,1.98118 -0.96166,2.63662 -0.13714,0.65542 -0.25068,1.71281 -0.25229,2.34975 -0.002,0.63695 0.11829,1.70945 0.26648,2.38335 0.14821,0.67393 0.57067,1.84328 0.93881,2.59858 0.36813,0.7553 1.05862,1.81004 1.53442,2.34387 0.47579,0.53382 1.36019,1.3239 1.96533,1.75571 0.60514,0.43183 1.66685,1.00514 2.35935,1.27404 0.69249,0.2689 1.66473,0.56148 2.16051,0.65022 0.49578,0.0887 1.55259,0.1284 2.34848,0.0882 0.79586,-0.0402 1.8867,-0.18836 2.42408,-0.3292 z m 8.1308,-8.51802 c 0,-0.39252 0.0611,-0.4256 0.78593,-0.4256 0.74652,0 0.78184,0.0214 0.70457,0.4256 -0.0714,0.37377 -0.0221,0.4256 0.40575,0.4256 0.40609,0 0.48711,-0.0708 0.48711,-0.4256 0,-0.35939 0.0795,-0.4256 0.51072,-0.4256 0.45398,0 0.51073,-0.0567 0.51073,-0.51072 0,-0.45397 -0.0567,-0.51073 -0.51073,-0.51073 -0.4918,0 -0.51072,-0.0283 -0.51072,-0.76607 0,-0.73772 0.0189,-0.76608 0.51072,-0.76608 0.43128,0 0.51073,-0.0662 0.51073,-0.42562 0,-0.35938 -0.0794,-0.42558 -0.51073,-0.42558 -0.45398,0 -0.51072,-0.0567 -0.51072,-0.51072 0,-0.44541 -0.0607,-0.51072 -0.47486,-0.51072 -0.40618,0 -0.47391,0.0677 -0.46817,0.46816 0.006,0.43031 -0.0518,0.47238 -0.71681,0.5205 -0.70486,0.051 -0.72352,0.0389 -0.72352,-0.46815 0,-0.46486 -0.0546,-0.52051 -0.51072,-0.52051 -0.45398,0 -0.51072,0.0567 -0.51072,0.51072 0,0.43127 -0.0662,0.51072 -0.4256,0.51072 -0.34048,0 -0.4256,0.0851 -0.4256,0.42558 0,0.3405 0.0851,0.42562 0.4256,0.42562 0.39092,0 0.4256,0.0624 0.4256,0.76608 0,0.70366 -0.0347,0.76607 -0.4256,0.76607 -0.3594,0 -0.4256,0.0795 -0.4256,0.51073 0,0.43127 0.0662,0.51072 0.4256,0.51072 0.34048,0 0.4256,0.0851 0.4256,0.4256 0,0.3594 0.0794,0.4256 0.51072,0.4256 0.43128,0 0.51072,-0.0662 0.51072,-0.4256 z m 0,-2.22291 v -0.77587 l 0.72352,0.0524 c 0.72001,0.0521 0.72378,0.0558 0.77587,0.77586 l 0.0524,0.72352 h -0.77587 -0.77586 z"
       id="path2872" /><g
       id="g5560"
       transform="matrix(1.0467162,0,0,1.0467162,96.166344,23.10053)"><path
         sodipodi:type="star"
         style="fill:#000000;fill-opacity:1;stroke:#000000;stroke-width:2.11667;stroke-linecap:round;stroke-linejoin:round;stroke-dasharray:none;paint-order:fill markers stroke"
         id="path5501"
         inkscape:flatsided="true"
         sodipodi:sides="3"
         sodipodi:cx="216.24464"
         sodipodi:cy="186.86957"
         sodipodi:r1="5.1602969"
         sodipodi:r2="2.5801487"
         sodipodi:arg1="0.52359878"
         sodipodi:arg2="1.5707963"
         inkscape:rounded="2.4286129e-17"
         inkscape:randomized="0"
         d="m 220.71359,189.44972 -8.93789,0 4.46894,-7.74045 z"
         inkscape:transform-center-x="1.4195939e-06"
         inkscape:transform-center-y="-1.0935645"
         transform="matrix(0.7739818,0,0,0.7739818,-63.857167,114.87257)" /><use
         x="0"
         y="0"
         xlink:href="#path5501"
         inkscape:transform-center-x="1.4481207e-06"
         inkscape:transform-center-y="0.96020298"
         id="use5514"
         transform="matrix(0.87804026,0,0,-0.87804026,18.57414,484.82128)" /><use
         x="0"
         y="0"
         xlink:href="#use5514"
         inkscape:transform-center-x="1.7525629e-06"
         inkscape:transform-center-y="1.0935686"
         id="use5516"
         transform="translate(-11.899625)" /><path
         id="path5518"
         style="stroke:#000000;stroke-width:1.71816;stroke-linecap:round;stroke-linejoin:round;paint-order:fill markers stroke"
         inkscape:transform-center-x="3.5647115e-06"
         inkscape:transform-center-y="1.0125851"
         d="m 107.5544,264.06674 h -8.217484 l 4.108754,17.68377 z"
         sodipodi:nodetypes="cccc" /><path
         id="path5521"
         style="stroke:#000000;stroke-width:1.6474;stroke-linecap:round;stroke-linejoin:round;paint-order:fill markers stroke"
         inkscape:transform-center-x="-1.6963357"
         inkscape:transform-center-y="0.97088454"
         d="m 118.57334,264.03138 h -7.87904 l -3.86374,16.32696 z"
         sodipodi:nodetypes="cccc" /><use
         x="0"
         y="0"
         xlink:href="#path5521"
         inkscape:transform-center-x="1.7691959"
         inkscape:transform-center-y="1.0125851"
         id="use5523"
         transform="matrix(-1,0,0,1,207.0245,-4.2293667e-6)" /><path
         id="use5525"
         style="stroke:#000000;stroke-width:1.56327;stroke-linecap:round;stroke-linejoin:round;paint-order:fill markers stroke"
         inkscape:transform-center-x="2.4828177e-06"
         inkscape:transform-center-y="-0.98505149"
         d="m 95.109011,261.5407 h -6.992768 l 3.496379,-5.39648 z" /><use
         x="0"
         y="0"
         xlink:href="#use5525"
         inkscape:transform-center-x="2.6223792e-06"
         inkscape:transform-center-y="-0.98505149"
         id="use5532"
         transform="translate(23.79925)" /></g><g
       id="g12260"
       transform="matrix(1.1743937,0,0,1.1743937,61.54894,22.696063)"><path
         style="fill:#000000;fill-opacity:1;stroke:none;stroke-width:0.202946px;stroke-linecap:butt;stroke-linejoin:miter;stroke-opacity:1"
         d="m 145.96266,248.37221 c 0.28651,-0.12322 0.0659,-0.28556 -0.66247,-0.31398 -0.72842,-0.0284 -1.96424,0.0774 -2.85584,0.40625 -0.89159,0.32885 -1.43897,0.88085 -1.85186,1.51212 -0.41288,0.63127 -0.69136,1.34204 0.27735,2.29459 0.96871,0.95254 3.18628,2.14889 7.16244,2.62722 3.97615,0.47833 9.71105,0.23937 13.88328,-0.34565 4.17224,-0.58503 6.78074,-1.51585 8.18253,-2.18564 1.40179,-0.66979 1.5959,-1.07809 1.64277,-1.4659 0.0469,-0.38781 -0.0537,-0.75469 -0.33021,-0.99708 -0.2765,-0.24238 -0.72872,-0.35962 -0.87557,-0.34178 -0.14686,0.0178 0.0119,0.17054 -0.0383,0.42157 -0.0501,0.25104 -0.30876,0.60022 -1.30499,1.00593 -0.99622,0.40571 -2.72942,0.86764 -5.25642,1.23023 -2.527,0.36259 -5.84715,0.62568 -8.9128,0.57044 -3.06565,-0.0553 -5.87679,-0.42893 -7.87682,-0.88355 -2.00003,-0.45461 -3.18926,-0.99029 -3.56375,-1.54443 -0.37448,-0.55415 0.0663,-1.1264 0.68357,-1.45465 0.61722,-0.32826 1.41056,-0.41247 1.69707,-0.53569 z"
         id="path5724"
         inkscape:path-effect="#path-effect5726"
         inkscape:original-d="m 146.46958,248.41121 c -0.22045,-0.16217 -0.44101,-0.32451 -0.66197,-0.48721 -1.23582,0.10609 -2.47164,0.21191 -3.70757,0.31745 -0.547,0.55216 -1.09439,1.10415 -1.64203,1.65585 -0.27807,0.7107 -0.55655,1.42147 -0.835,2.13118 2.21549,1.19535 4.43306,2.3917 6.64942,3.58727 5.73601,-0.23873 11.47091,-0.47769 17.20611,-0.71694 2.60937,-0.93077 5.21787,-1.86158 7.82716,-2.79303 0.19449,-0.4083 0.3886,-0.8166 0.5826,-1.22548 -0.10043,-0.36693 -0.20098,-0.73382 -0.3019,-1.1013 -0.45228,-0.11711 -0.90452,-0.23429 -1.35727,-0.35187 0.15909,0.15307 0.31781,0.30577 0.47639,0.45834 -0.25856,0.34972 -0.51719,0.6989 -0.77624,1.04804 -1.73361,0.46237 -3.46681,0.9243 -5.2007,1.38608 -3.32017,0.26338 -6.64032,0.52647 -9.96093,0.78931 -2.81074,-0.3734 -5.62188,-0.74707 -8.43295,-1.12098 -1.18902,-0.53543 -2.37825,-1.0711 -3.56805,-1.60718 0.44118,-0.57211 0.88201,-1.14436 1.32255,-1.71686 0.79365,-0.0839 1.58698,-0.16815 2.38038,-0.25267 z"
         sodipodi:nodetypes="ccccccccccccccccccc" /><path
         style="fill:#000000;fill-opacity:1;stroke:none;stroke-width:0.188926px;stroke-linecap:butt;stroke-linejoin:miter;stroke-opacity:1"
         d="m 153.86648,221.91548 c -0.329,0.24887 0.18941,0.87939 0.6757,1.6449 0.48629,0.76551 0.85917,1.56688 0.38434,2.3689 -0.47483,0.80203 -1.79697,1.60451 -2.64942,2.82539 -0.85245,1.22088 -1.23473,2.8595 -0.49796,4.27089 0.73676,1.41139 2.59209,2.59511 3.3411,2.79516 0.74901,0.20005 0.3918,-0.58367 0.19827,-1.30587 -0.19354,-0.7222 -0.2232,-1.38253 -0.0205,-2.00642 0.20274,-0.62389 0.63784,-1.21088 1.38436,-2.03623 0.74651,-0.82535 1.80396,-1.88855 2.1683,-2.92708 0.36434,-1.03853 0.0351,-2.05177 -0.48992,-2.93705 -0.52506,-0.88527 -1.24571,-1.64179 -2.19579,-2.16583 -0.95008,-0.52403 -1.96952,-0.77564 -2.29853,-0.52676 z"
         id="path5700"
         inkscape:path-effect="#path-effect5702"
         inkscape:original-d="m 152.85652,221.33614 c 0.68098,0.82819 1.1994,1.45871 1.79878,2.18776 0.37329,0.80193 0.74617,1.6033 1.11892,2.4047 -1.32233,0.80304 -2.64447,1.60551 -3.96718,2.40789 -0.38206,1.63914 -0.76435,3.27775 -1.14698,4.91642 1.85581,1.18409 3.71114,2.3678 5.56631,3.55136 -0.35697,-0.78357 -0.71418,-1.56729 -1.07174,-2.35137 -0.0293,-0.66027 -0.059,-1.32059 -0.089,-1.98127 0.43546,-0.58688 0.87055,-1.17388 1.30546,-1.76119 1.05813,-1.06331 2.11558,-2.12651 3.17322,-3.19047 -0.32907,-1.01344 -0.65828,-2.02668 -0.98792,-3.04066 -0.72064,-0.75652 -1.4413,-1.51303 -2.1625,-2.27013 -1.17901,-0.29078 -2.19845,-0.54238 -3.53737,-0.87304 z"
         sodipodi:nodetypes="scccczccccccs" /><path
         style="fill:#000000;fill-opacity:1;stroke:none;stroke-width:0.198753px;stroke-linecap:butt;stroke-linejoin:miter;stroke-opacity:1"
         d="m 163.54635,229.32112 c 0.0158,-0.25198 -0.54171,-0.51588 -1.39122,-0.46227 -0.84952,0.0536 -1.9907,0.42496 -2.86961,1.22703 -0.8789,0.80208 -1.49528,2.03473 -1.53902,2.93975 -0.0437,0.90503 0.48474,1.48201 0.60989,2.0088 0.12514,0.52679 -0.1529,1.00324 -0.41929,1.44345 -0.26638,0.44021 -0.52092,0.84389 -0.10955,0.87663 0.41138,0.0327 1.4882,-0.30534 2.2719,-0.88399 0.78371,-0.57865 1.27412,-1.39766 1.33695,-2.23329 0.0628,-0.83564 -0.3021,-1.68755 -0.2207,-2.38777 0.0814,-0.70022 0.60924,-1.24804 1.16766,-1.6421 0.55841,-0.39405 1.14724,-0.63425 1.16299,-0.88624 z"
         id="path5704"
         inkscape:path-effect="#path-effect5706"
         inkscape:original-d="m 164.11935,229.33294 c -0.5573,-0.26368 -1.11477,-0.52758 -1.67261,-0.79181 -1.14102,0.37166 -2.2822,0.74301 -3.4237,1.11409 -0.6161,1.2329 -1.23248,2.46555 -1.84917,3.69803 0.52893,0.57736 1.05741,1.15435 1.58582,1.73132 -0.27786,0.47682 -0.5559,0.95328 -0.8343,1.42965 -0.25433,0.40409 -0.50889,0.80775 -0.76379,1.21127 1.07743,-0.33791 2.15425,-0.67599 3.23104,-1.01443 0.49082,-0.81901 0.98125,-1.63801 1.47153,-2.45753 -0.36479,-0.852 -0.72972,-1.70391 -1.09504,-2.55633 0.52825,-0.54769 1.05609,-1.09551 1.58368,-1.64364 0.5891,-0.23992 1.17793,-0.48012 1.76654,-0.72062 z"
         sodipodi:nodetypes="cccccccccccc" /><path
         style="fill:#000000;stroke:none;stroke-width:0.185064px;stroke-linecap:butt;stroke-linejoin:miter;stroke-opacity:1"
         d="m 147.25907,236.43829 c 0.38325,-0.26391 0.84585,-0.44029 1.3916,-0.49894 0.54575,-0.0587 1.17343,3.4e-4 1.09568,0.17148 -0.0778,0.17114 -0.86057,0.45403 -1.03409,0.89248 -0.17353,0.43846 0.26261,1.03079 1.65292,1.43236 1.39031,0.40156 3.73135,0.61146 5.69829,0.61235 1.96694,9e-4 3.55818,-0.2073 4.96965,-0.46616 1.41147,-0.25886 2.6432,-0.56835 3.62146,-0.86974 0.97826,-0.30138 1.70171,-0.59419 1.76753,-0.30756 0.0658,0.28664 -0.52595,1.15204 -0.85814,1.64157 -0.33219,0.48953 -0.40422,0.60235 -0.57109,0.7139 -0.16687,0.11155 -0.42822,0.22157 -0.92538,0.45799 -0.49716,0.23642 -1.22976,0.59908 -2.80778,0.94637 -1.57802,0.34728 -4.00151,0.67914 -6.31396,0.69424 -2.31246,0.0151 -4.513,-0.28645 -5.99619,-0.82999 -1.48318,-0.54354 -2.2465,-1.32814 -2.57391,-1.97263 -0.32742,-0.64449 -0.21776,-1.14726 -0.0108,-1.57473 0.20692,-0.42747 0.511,-0.77909 0.89425,-1.04299 z"
         id="path5708"
         sodipodi:nodetypes="cccccccccccccccccc"
         inkscape:original-d="m 147.17974,236.35076 c 0.46271,-0.17605 0.9253,-0.35243 1.38785,-0.52917 0.6288,0.0594 1.25649,0.11835 1.88473,0.17715 -0.78361,0.28356 -1.56642,0.56645 -2.35062,0.84948 0.43708,0.59351 0.87322,1.18585 1.30977,1.77884 2.344,0.21042 4.68504,0.42032 7.02738,0.63009 1.5916,-0.20793 3.18284,-0.41613 4.77365,-0.62457 1.23217,-0.30926 2.4639,-0.61875 3.69602,-0.92868 0.72445,-0.29283 1.4479,-0.58564 2.17183,-0.87903 -0.5921,0.86654 -1.18388,1.73194 -1.77648,2.59787 -0.0718,0.1131 -0.14379,0.22595 -0.21624,0.3387 -0.26151,0.11041 -0.52285,0.22045 -0.78466,0.33033 -0.73248,0.36297 -1.46508,0.72563 -2.198,1.08808 -2.42323,0.3321 -4.84672,0.66395 -7.27037,0.99555 -2.20133,-0.30146 -4.40187,-0.60301 -6.60426,-0.90504 -0.76395,-0.78526 -1.52727,-1.56986 -2.29183,-2.35574 0.11005,-0.50303 0.21971,-1.0058 0.32918,-1.50923 0.30434,-0.35133 0.60842,-0.70295 0.91205,-1.05463 z"
         inkscape:path-effect="#path-effect5710" /><path
         style="fill:#000000;fill-opacity:1;stroke:none;stroke-width:0.207742px;stroke-linecap:butt;stroke-linejoin:miter;stroke-opacity:1"
         d="m 149.3308,241.83108 c -0.25772,0.0752 -0.77375,0.22576 -1.11531,0.733 -0.34157,0.50724 -0.50898,1.37142 0.0827,2.05007 0.59171,0.67865 1.94148,1.17178 3.35296,1.50308 1.41148,0.3313 2.88454,0.50077 4.62703,0.42603 1.74249,-0.0747 3.7539,-0.3936 5.14775,-0.78559 1.39386,-0.39199 2.16991,-0.85693 2.74631,-1.17495 0.57641,-0.31802 0.95117,-0.48814 1.09525,-0.63894 0.14408,-0.1508 0.0558,-0.2807 -0.1775,-0.53057 -0.23332,-0.24988 -0.61094,-0.61869 -0.84441,-0.85869 -0.23348,-0.24001 -0.32188,-0.35031 -0.437,-0.34734 -0.11512,0.003 -0.25636,0.11958 -0.60216,0.2902 -0.3458,0.17061 -0.89601,0.39509 -2.19837,0.70843 -1.30236,0.31334 -3.3568,0.71549 -5.23805,0.75734 -1.88126,0.0418 -3.58607,-0.27623 -4.59689,-0.58836 -1.01083,-0.31212 -1.32174,-0.617 -1.46917,-0.88524 -0.14743,-0.26824 -0.1315,-0.50107 -0.12355,-0.61737 0.008,-0.1163 0.008,-0.1163 -0.24963,-0.0411 z"
         id="path5712"
         inkscape:path-effect="#path-effect5714"
         inkscape:original-d="m 149.58852,241.75588 c -0.51533,0.15076 -1.03137,0.30129 -1.54722,0.45144 -0.16695,0.86408 -0.33435,1.72826 -0.50213,2.59199 1.35071,0.49366 2.70048,0.98677 4.05021,1.47971 1.47326,0.16976 2.94632,0.33922 4.41937,0.50846 2.01201,-0.31866 4.02342,-0.63752 6.03471,-0.95668 0.77655,-0.46482 1.55259,-0.92977 2.329,-1.39531 0.37638,-0.17045 0.75114,-0.34058 1.12785,-0.51198 -0.0887,-0.13053 -0.17691,-0.26046 -0.2658,-0.39118 -0.37782,-0.36898 -0.75544,-0.73779 -1.13394,-1.1075 -0.0885,-0.11026 -0.17682,-0.22063 -0.26567,-0.33145 -0.14111,0.11711 -0.28239,0.23368 -0.424,0.35011 -0.55012,0.2248 -1.10032,0.4493 -1.65083,0.67354 -2.05428,0.40241 -4.10872,0.80457 -6.16381,1.20653 -1.70752,-0.31835 -3.41233,-0.63643 -5.12278,-0.95577 -0.31118,-0.3051 -0.62209,-0.60998 -0.93279,-0.91469 0.0162,-0.23177 0.0322,-0.46459 0.0477,-0.69722 z"
         sodipodi:nodetypes="scccccccccccccccss" /><path
         style="fill:#000000;fill-opacity:1;stroke:none;stroke-width:0.223925px;stroke-linecap:butt;stroke-linejoin:miter;stroke-opacity:1"
         d="m 155.88943,248.44659 c 1.71199,-0.0172 3.62336,-0.309 4.90038,-0.62516 1.27703,-0.31616 1.91912,-0.65674 2.28155,-0.77629 0.36244,-0.11955 0.44609,-0.0189 0.68779,0.27983 0.24169,0.29877 0.63993,0.79385 0.88138,1.0723 0.24144,0.27846 0.32501,0.33921 -0.21538,0.60003 -0.54038,0.26082 -1.70055,0.72005 -3.55124,1.11085 -1.8507,0.39081 -4.38927,0.71223 -6.4327,0.60187 -2.04344,-0.11037 -3.59036,-0.65246 -4.41818,-1.2204 -0.82781,-0.56793 -0.93513,-1.1611 -0.92546,-1.61691 0.01,-0.45582 0.13637,-0.77353 0.30968,-1.03546 0.17332,-0.26192 0.3928,-0.46736 0.49565,-0.47243 0.10284,-0.005 0.0888,0.19024 0.2782,0.48744 0.18936,0.29721 0.58201,0.69674 1.53477,1.02554 0.95276,0.32881 2.46157,0.58602 4.17356,0.56879 z"
         id="path5716"
         inkscape:path-effect="#path-effect5718"
         inkscape:original-d="m 155.68839,248.72139 c 1.91307,-0.29176 3.82444,-0.58353 5.73666,-0.87571 0.64194,-0.34013 1.28403,-0.6807 1.92487,-1.02098 0.0839,0.10087 0.16756,0.20148 0.25116,0.30209 0.3998,0.49692 0.79805,0.99199 1.19687,1.48787 0.084,0.0611 0.16754,0.12189 0.25117,0.18257 -1.16424,0.46117 -2.3244,0.92041 -3.48701,1.38027 -2.53886,0.32174 -5.07743,0.64317 -7.61696,0.96441 -1.54743,-0.54211 -3.09435,-1.0842 -4.6426,-1.62693 -0.10713,-0.59333 -0.21443,-1.1865 -0.32207,-1.78024 0.1271,-0.31771 0.25378,-0.63543 0.38034,-0.95373 0.22001,-0.2054 0.43949,-0.41085 0.65894,-0.61677 -0.0134,0.19555 -0.0277,0.39084 -0.042,0.58564 0.3927,0.39959 0.78536,0.79911 1.17822,1.19887 1.51261,0.25808 3.02142,0.51529 4.53241,0.77264 z"
         sodipodi:nodetypes="cccccccccccsccc" /><path
         style="fill:#000000;fill-opacity:1;stroke:none;stroke-width:0.194682px;stroke-linecap:butt;stroke-linejoin:miter;stroke-opacity:1"
         d="m 169.11685,236.21152 c -0.0889,-0.1613 0.14623,-0.71229 0.68274,-1.15929 0.53651,-0.447 1.37427,-0.78986 2.28294,-0.77405 0.90867,0.0158 1.88786,0.39008 2.52757,0.96997 0.6397,0.57988 0.93992,1.36514 0.92168,2.4357 -0.0182,1.07056 -0.35482,2.4264 -1.75111,3.75659 -1.3963,1.33019 -3.85158,2.63438 -5.0058,3.00709 -1.15423,0.3727 -1.00596,-0.18683 -0.24001,-0.87575 0.76596,-0.68892 2.14919,-1.50666 3.0288,-2.70226 0.8796,-1.1956 1.25523,-2.76854 0.91594,-3.65722 -0.33928,-0.88868 -1.39376,-1.09228 -2.12741,-1.08002 -0.73365,0.0123 -1.14645,0.24054 -1.23534,0.0792 z"
         id="path5720"
         inkscape:path-effect="#path-effect5722"
         inkscape:original-d="m 168.79289,236.60112 c 0.2353,-0.5508 0.47043,-1.10179 0.70535,-1.65298 0.83799,-0.3426 1.67575,-0.68545 2.5133,-1.0286 0.97961,0.37459 1.9588,0.74886 2.93793,1.12295 0.30044,0.7855 0.60065,1.57076 0.9007,2.35585 -0.33633,1.35614 -0.6729,2.71199 -1.00977,4.0677 -2.45587,1.30488 -4.91115,2.60908 -7.36803,3.91374 0.14871,-0.55943 0.297,-1.11896 0.44491,-1.67901 1.38371,-0.81762 2.76695,-1.63535 4.15026,-2.45353 0.37602,-1.57325 0.75164,-3.14619 1.12718,-4.72004 -1.05444,-0.20339 -2.10892,-0.40699 -3.16357,-0.61082 -0.41244,0.22847 -0.82524,0.45674 -1.23826,0.68474 z"
         sodipodi:nodetypes="sccccccccccs" /><path
         style="fill:#000000;stroke-width:0.165172"
         d="m 151.43554,257.30351 c -0.81524,-0.30746 -2.45219,-0.9248 -2.37864,-1.13576 0.0736,-0.21095 1.3186,0.0141 3.9652,0.0746 2.6466,0.0605 4.62256,-0.12198 7.20231,-0.40265 2.57974,-0.28066 3.6711,-0.42556 6.19683,-1.03511 2.52573,-0.60954 3.6873,-1.0007 5.13342,-1.8476 1.44612,-0.84689 1.69945,-1.36186 1.89779,-1.15329 0.19835,0.20858 0.18894,1.172 -1.13595,2.23242 -1.32489,1.06042 -4.33387,2.21815 -7.3977,2.72403 -3.06384,0.50587 -8.71278,0.70877 -10.69042,0.77981 -1.97763,0.071 -1.97759,0.071 -2.79284,-0.23642 z"
         id="path12240"
         inkscape:path-effect="#path-effect12243"
         inkscape:original-d="m 152.25079,257.61096 c -1.63055,-0.61476 -3.2675,-1.2321 -5.55119,-2.09352 2.43082,0.43958 3.67586,0.66461 5.90887,1.06798 3.06026,-0.28231 5.03622,-0.46478 8.09618,-0.74766 2.09954,-0.27845 3.1909,-0.42335 5.55384,-0.73739 2.68859,-0.90502 3.85016,-1.29618 6.31787,-2.12755 0.42475,-0.86259 0.67808,-1.37756 1.08663,-2.20889 -0.0119,1.24832 -0.0213,2.21174 -0.0324,3.3172 -2.63885,1.01571 -5.64783,2.17345 -7.91733,3.04628 -3.85829,0.13887 -9.50723,0.34177 -13.46251,0.48355 z"
         sodipodi:nodetypes="csscssczsc" /></g></g><metadata
     id="metadata179"><rdf:RDF><cc:Work
         rdf:about=""><dc:creator><cc:Agent><dc:title>Siphesihle Mhlongo</dc:title></cc:Agent></dc:creator></cc:Work></rdf:RDF></metadata></svg>
