<?xml version="1.0" encoding="UTF-8" standalone="no"?><!DOCTYPE svg PUBLIC "-//W3C//DTD SVG 1.1//EN" "http://www.w3.org/Graphics/SVG/1.1/DTD/svg11.dtd"><svg width="100%" height="100%" viewBox="0 0 128 129" version="1.1" xmlns="http://www.w3.org/2000/svg" Xlink="http://www.w3.org/1999/xlink" Space="preserve" Serif="http://www.serif.com/" style="fill-rule:evenodd;clip-rule:evenodd;stroke-linejoin:round;stroke-miterlimit:2;"><rect id="instagram" x="0" y="0" width="127.96" height="128.234" style="fill:none;"/><clipPath id="_clip1"><rect id="instagram1" Id="instagram" x="0" y="0" width="127.96" height="128.234"/></clipPath><g clip-path="url(#_clip1)"><path id="instagram2" Id="instagram" d="M61.876,0.205c-4.789,0.177 -9.542,0.892 -14.17,2.132c0,-0 0,-0 0,-0c-33.908,9.085 -54.316,44.527 -45.21,78.513c9.106,33.985 44.502,54.475 78.41,45.389c-0,0 -0,0 -0,0c33.908,-9.086 54.316,-44.528 45.209,-78.513c-7.717,-28.802 -34.506,-48.619 -64.239,-47.521Zm-0.89,28.452c7.896,-0.026 17.052,0.107 19.871,0.367c4.111,0.379 7.873,1.621 10.592,3.498c3.592,2.481 6.152,6.176 7.391,10.669c0.919,3.336 1.081,6.434 1.088,20.834c0.008,16.501 -0.164,18.934 -1.637,23.108c-1.698,4.812 -5.436,8.828 -9.927,10.663c-3.955,1.616 -6.051,1.92 -13.854,2.016c-2.978,0.036 -6.618,0.083 -8.089,0.102c-1.471,0.021 -5.922,-0.001 -9.893,-0.051c-9.267,-0.112 -11.228,-0.311 -14.629,-1.481c-3.032,-1.044 -4.709,-2.051 -6.897,-4.143c-1.547,-1.479 -2.603,-2.851 -3.433,-4.459c-1.618,-3.135 -2.262,-5.682 -2.651,-10.492c-0.221,-2.74 -0.32,-20.029 -0.146,-25.535c0.179,-5.651 0.394,-7.804 1.017,-10.224c1.027,-3.984 2.559,-6.631 5.396,-9.319c3.505,-3.32 7.823,-4.896 14.592,-5.325c2.188,-0.138 6.472,-0.212 11.209,-0.228l0,0Zm3.563,6.461c-15.33,0.011 -17.349,0.129 -20.622,1.198c-4.723,1.543 -7.62,5.363 -8.379,11.051c-0.318,2.383 -0.478,8.105 -0.474,16.969c0.008,14.505 0.257,18.034 1.486,21.015c0.757,1.834 1.3,2.637 2.781,4.116c1.323,1.319 1.537,1.476 2.956,2.161c1.763,0.851 3.554,1.349 5.642,1.569c3.305,0.349 18.851,0.5 27.106,0.263c2.463,-0.071 5.05,-0.193 5.748,-0.271c2.09,-0.234 3.922,-0.741 5.572,-1.54c1.275,-0.618 1.674,-0.895 2.722,-1.892c1.717,-1.634 2.566,-2.942 3.268,-5.036c0.822,-2.446 0.968,-3.847 1.138,-10.848c0.157,-6.495 -0.023,-23.918 -0.27,-25.936c-0.321,-2.638 -0.96,-4.747 -1.964,-6.484c-0.7,-1.21 -2.913,-3.414 -4.147,-4.129c-1.169,-0.676 -3.256,-1.378 -4.982,-1.675c-2.724,-0.468 -5.123,-0.54 -17.581,-0.531Zm18.784,6.001c0.971,-0 1.246,0.054 1.891,0.371c0.963,0.473 1.74,1.316 2.102,2.285c0.926,2.473 -0.456,5.044 -3.037,5.651c-0.837,0.197 -0.921,0.2 -1.703,0.044c-1.416,-0.28 -2.476,-1.118 -3.059,-2.419c-0.963,-2.144 -0.091,-4.573 2.012,-5.608c0.539,-0.266 0.862,-0.324 1.794,-0.324l0,-0Zm-18.974,4.958c1.284,0.001 2.57,0.08 3.364,0.235c7.485,1.468 13.288,7.368 14.613,14.86c0.319,1.803 0.325,4.808 0.013,6.4c-0.745,3.793 -2.426,6.974 -5.097,9.645c-4.058,4.058 -9.762,5.994 -15.376,5.218l-0,0c-4.025,-0.556 -7.533,-2.31 -10.428,-5.214c-3.628,-3.64 -5.35,-7.861 -5.346,-13.107c0.001,-2.354 0.182,-3.508 0.883,-5.616c2.068,-6.216 7.458,-10.903 14.022,-12.192c0.785,-0.154 2.067,-0.231 3.352,-0.229l0,-0Zm-0.076,6.419c-1.776,0.008 -2.141,0.05 -3.181,0.367c-3.945,1.2 -6.867,4.031 -8.092,7.842c-1.31,4.079 -0.269,8.607 2.698,11.73c2.934,3.089 6.838,4.341 10.936,3.506c1.681,-0.342 2.801,-0.79 4.095,-1.634c3.865,-2.523 5.93,-6.868 5.384,-11.324c-0.507,-4.133 -3.092,-7.749 -6.749,-9.438c-1.849,-0.855 -2.844,-1.059 -5.091,-1.049Z" style="fill:#fff;fill-rule:nonzero;"/></g></svg>