<?xml version="1.0" encoding="UTF-8" standalone="no"?>
<!DOCTYPE svg PUBLIC "-//W3C//DTD SVG 1.1//EN" "http://www.w3.org/Graphics/SVG/1.1/DTD/svg11.dtd">
<svg width="100%" height="100%" viewBox="0 0 65 65" version="1.1" xmlns="http://www.w3.org/2000/svg" xmlnsXlink="http://www.w3.org/1999/xlink" xmlSpace="preserve" xmlnsSerif="http://www.serif.com/" style="fill-rule:evenodd;clip-rule:evenodd;stroke-linejoin:round;stroke-miterlimit:2;">
    <rect id="instagram-contact" x="0.404" y="0.22" width="64" height="64" style="fill:none;"/>
    <g id="instagram-contact1" serifId="instagram-contact">
        <path d="M29.423,0.223C36.515,0.199 44.74,0.319 47.273,0.552C50.965,0.892 54.345,2.008 56.787,3.694C60.014,5.921 62.314,9.24 63.426,13.275C64.252,16.271 64.398,19.052 64.404,31.984C64.411,46.802 64.257,48.987 62.934,52.735C61.408,57.057 58.05,60.663 54.016,62.311C50.463,63.762 48.58,64.035 41.57,64.121C38.895,64.154 35.626,64.196 34.305,64.213C32.983,64.232 28.985,64.212 25.418,64.167C17.093,64.066 15.331,63.888 12.276,62.837C9.553,61.9 8.046,60.995 6.081,59.117C4.691,57.788 3.742,56.557 2.997,55.113C1.543,52.297 0.965,50.01 0.616,45.69C0.417,43.23 0.328,27.704 0.484,22.759C0.645,17.685 0.838,15.751 1.398,13.578C2.32,10 3.696,7.624 6.245,5.21C9.393,2.228 13.272,0.813 19.353,0.428C21.319,0.303 25.167,0.237 29.423,0.223ZM49.497,11.414C48.659,11.414 48.37,11.466 47.885,11.705C45.995,12.634 45.213,14.816 46.077,16.741C46.601,17.909 47.553,18.662 48.825,18.914C49.528,19.053 49.603,19.051 50.355,18.874C52.674,18.328 53.915,16.02 53.083,13.799C52.758,12.929 52.06,12.171 51.195,11.747C50.616,11.462 50.369,11.414 49.497,11.414ZM32.452,15.866C31.298,15.865 30.146,15.934 29.441,16.072C23.545,17.23 18.702,21.439 16.845,27.021C16.216,28.914 16.053,29.95 16.051,32.063C16.048,36.775 17.595,40.566 20.854,43.834C23.454,46.442 26.606,48.017 30.222,48.517C35.265,49.214 40.388,47.475 44.034,43.83C46.433,41.432 47.944,38.575 48.612,35.169C48.893,33.739 48.888,31.041 48.601,29.422C47.411,22.694 42.198,17.395 35.474,16.077C34.761,15.938 33.606,15.867 32.452,15.866ZM32.383,21.631C34.402,21.621 35.297,21.805 36.957,22.572C40.242,24.09 42.564,27.337 43.019,31.048C43.51,35.05 41.655,38.951 38.183,41.217C37.021,41.975 36.015,42.377 34.505,42.685C30.824,43.435 27.317,42.311 24.681,39.536C22.016,36.732 21.08,32.665 22.258,29.002C23.358,25.58 25.982,23.038 29.526,21.96C30.461,21.676 30.788,21.638 32.383,21.631Z" style="fill:rgb(40,42,48);"/>
    </g>
</svg>
