<?xml version="1.0" encoding="UTF-8" standalone="no"?>
<!DOCTYPE svg PUBLIC "-//W3C//DTD SVG 1.1//EN" "http://www.w3.org/Graphics/SVG/1.1/DTD/svg11.dtd">
<svg width="100%" height="100%" viewBox="0 0 33 33" version="1.1" xmlns="http://www.w3.org/2000/svg" xmlnsXlink="http://www.w3.org/1999/xlink" xmlSpace="preserve" xmlnsSerif="http://www.serif.com/" style="fill-rule:evenodd;clip-rule:evenodd;stroke-linejoin:round;stroke-miterlimit:2;">
    <rect id="instagram-contact" x="0.895" y="0.781" width="32" height="32.01" style="fill:none;"/>
    <clipPath id="_clip1">
        <rect id="instagram-contact1" serifId="instagram-contact" x="0.895" y="0.781" width="32" height="32.01"/>
    </clipPath>
    <g clip-path="url(#_clip1)">
        <path d="M15.404,0.782C18.95,0.77 23.062,0.83 24.329,0.947C26.175,1.117 27.865,1.675 29.086,2.518C30.699,3.632 31.849,5.292 32.405,7.31C32.818,8.809 32.891,10.2 32.894,16.668C32.898,24.079 32.821,25.172 32.159,27.047C31.396,29.208 29.717,31.012 27.7,31.836C25.924,32.562 24.982,32.698 21.477,32.741C20.14,32.758 18.505,32.779 17.845,32.788C17.184,32.797 15.185,32.787 13.401,32.764C9.239,32.714 8.358,32.625 6.83,32.099C5.469,31.63 4.715,31.178 3.733,30.239C3.038,29.574 2.563,28.958 2.191,28.236C1.464,26.828 1.175,25.684 1,23.523C0.901,22.293 0.856,14.527 0.935,12.054C1.015,9.516 1.111,8.549 1.391,7.462C1.852,5.672 2.54,4.484 3.815,3.276C5.389,1.785 7.328,1.077 10.369,0.885C11.352,0.823 13.276,0.79 15.404,0.782ZM25.441,6.379C25.022,6.379 24.877,6.406 24.635,6.525C23.69,6.99 23.299,8.081 23.731,9.044C23.993,9.628 24.469,10.005 25.105,10.131C25.456,10.2 25.494,10.199 25.87,10.111C27.029,9.838 27.65,8.683 27.234,7.572C27.071,7.137 26.723,6.758 26.29,6.546C26,6.404 25.877,6.379 25.441,6.379ZM16.918,8.606C16.341,8.606 15.765,8.64 15.413,8.709C12.465,9.288 10.044,11.394 9.115,14.185C8.8,15.132 8.719,15.65 8.718,16.708C8.716,19.064 9.49,20.96 11.119,22.595C12.419,23.899 13.996,24.687 15.803,24.937C18.325,25.285 20.886,24.416 22.709,22.593C23.909,21.393 24.664,19.964 24.999,18.261C25.139,17.546 25.136,16.196 24.993,15.386C24.398,12.021 21.791,9.371 18.429,8.712C18.073,8.642 17.495,8.607 16.918,8.606ZM16.884,11.489C17.893,11.485 18.341,11.577 19.171,11.96C20.813,12.719 21.974,14.343 22.202,16.2C22.447,18.201 21.52,20.153 19.784,21.286C19.203,21.665 18.7,21.866 17.945,22.02C16.104,22.395 14.351,21.833 13.033,20.445C11.7,19.043 11.232,17.009 11.821,15.177C12.371,13.465 13.683,12.193 15.455,11.654C15.923,11.512 16.086,11.493 16.884,11.489Z" style="fill:rgb(40,42,48);"/>
    </g>
</svg>
