<svg width="80.609mm" height="80.769mm" version="1.1" viewBox="0 0 80.609 80.769" xmlns="http://www.w3.org/2000/svg">
 <g transform="translate(-106.26 -85.865)">
  <path class="UnoptimicedTransforms" transform="translate(-63.849 -152.36)" d="m208.88 238.25a40.391 40.299 75 0 0-8.9235 1.3426 40.391 40.299 75 0 0-28.472 49.445 40.391 40.299 75 0 0 49.379 28.584 40.391 40.299 75 0 0 28.471-49.445 40.391 40.299 75 0 0-40.455-29.927zm-0.56017 17.918c4.9722-0.0168 10.738 0.0674 12.514 0.23099 2.5885 0.23838 4.9578 1.0209 6.6699 2.203 2.2625 1.562 3.8748 3.8895 4.6545 6.719 0.57894 2.1009 0.68113 4.0516 0.68575 13.12 5e-3 10.392-0.10329 11.924-1.031 14.553-1.0695 3.0306-3.4239 5.5595-6.2518 6.7148-2.4908 1.0177-3.8106 1.2094-8.725 1.2697-1.8754 0.023-4.1676 0.0523-5.0938 0.0646-0.92614 0.0129-3.7296-1e-3 -6.2301-0.0326-5.8363-0.0704-7.0712-0.19561-9.2129-0.93276-1.9094-0.65719-2.9657-1.2915-4.3434-2.6086-0.9744-0.93155-1.6396-1.7955-2.1621-2.8081-1.0188-1.9742-1.4242-3.5786-1.6692-6.6079-0.13948-1.7251-0.20178-12.613-0.092-16.081 0.11269-3.5585 0.24766-4.9146 0.64027-6.4384 0.64658-2.5094 1.6113-4.1759 3.3982-5.8689 2.207-2.091 4.9264-3.0834 9.1891-3.3533 1.3784-0.0873 4.0762-0.13357 7.0595-0.14366zm2.2438 4.0685c-9.6543 7e-3 -10.926 0.0811-12.987 0.75448-2.9744 0.97155-4.7985 3.3774-5.2767 6.9598-0.20028 1.5006-0.30094 5.1037-0.29817 10.686 5e-3 9.1349 0.16181 11.357 0.93586 13.234 0.47639 1.1553 0.81813 1.6609 1.7513 2.5921 0.83273 0.8309 0.96759 0.92977 1.8614 1.3612 1.1104 0.53588 2.2383 0.84936 3.5528 0.98805 2.0818 0.21965 11.872 0.31458 17.07 0.16537 1.5513-0.0446 3.1805-0.12119 3.6204-0.17053 1.3156-0.1474 2.4697-0.4665 3.5088-0.96997 0.80299-0.38908 1.0539-0.56339 1.7141-1.1917 1.0813-1.029 1.6157-1.8524 2.0583-3.1709 0.51715-1.5406 0.60961-2.4232 0.71623-6.8316 0.0989-4.0908-0.0145-15.063-0.17001-16.334-0.20228-1.6611-0.60445-2.9892-1.2366-4.083-0.44076-0.76257-1.8346-2.1504-2.6117-2.6004-0.73588-0.42606-2.0502-0.8679-3.1373-1.0547-1.7158-0.2949-3.2261-0.34066-11.072-0.33486zm11.829 3.7791c0.61155 0 0.78472 0.0343 1.1906 0.23358 0.60677 0.29795 1.0957 0.82913 1.324 1.4392 0.58281 1.5577-0.28696 3.1763-1.9125 3.559-0.52744 0.12412-0.5799 0.12574-1.0728 0.0279-0.89157-0.17676-1.559-0.70464-1.9265-1.5234-0.60601-1.3504-0.0573-2.8803 1.2671-3.5321 0.34003-0.16735 0.54306-0.20412 1.1302-0.20412zm-11.949 3.1223c0.80876 6.7e-4 1.6186 0.0504 2.1187 0.14831 4.7136 0.92424 8.368 4.6402 9.2025 9.3581 0.20085 1.1355 0.20469 3.0277 8e-3 4.0308-0.46888 2.3883-1.5277 4.3916-3.2096 6.0735-2.556 2.556-6.1476 3.7753-9.6831 3.2866h-5.2e-4c-2.5344-0.35029-4.744-1.4551-6.567-3.284-2.2846-2.2919-3.3689-4.9505-3.3667-8.2543 9.5e-4 -1.4824 0.11513-2.2088 0.55656-3.5362 1.302-3.9146 4.6966-6.8663 8.83-7.6781 0.4948-0.0972 1.3022-0.14536 2.111-0.14469zm-0.0481 4.0426c-1.1183 5e-3 -1.3478 0.0316-2.003 0.23099-2.4847 0.75582-4.3245 2.5387-5.0958 4.9387-0.82551 2.5688-0.16947 5.4206 1.6986 7.3871 1.8481 1.9456 4.3068 2.734 6.8874 2.2081 1.0586-0.21573 1.7641-0.49763 2.5787-1.0294 2.4338-1.5888 3.7345-4.3248 3.3905-7.1314-0.31905-2.6027-1.9469-4.8798-4.2499-5.9438-1.1643-0.53795-1.7913-0.6669-3.2065-0.66042z" fill="#fff" stroke-linecap="round" stroke-linejoin="bevel" stroke-width=".15565" style="paint-order:fill markers stroke"/>
 </g>
</svg>
