<?xml version="1.0" encoding="UTF-8"?><svg id="a" xmlns="http://www.w3.org/2000/svg" viewBox="0 0 92.73 92.93"><defs><style>.c{fill:#fff;}</style></defs><path id="b" class="c" d="M44.6,.03c-3.47,.13-6.91,.65-10.27,1.54h0C9.76,8.16-5.03,33.84,1.57,58.47c6.6,24.63,32.25,39.48,56.82,32.89h0c24.57-6.58,39.36-32.27,32.76-56.9C85.56,13.6,66.15-.76,44.6,.03h0Zm-.64,20.62c5.72-.02,12.36,.08,14.4,.27,2.98,.27,5.71,1.17,7.68,2.53,2.6,1.8,4.46,4.48,5.36,7.73,.67,2.42,.78,4.66,.79,15.1,0,11.96-.12,13.72-1.19,16.75-1.23,3.49-3.94,6.4-7.19,7.73-2.87,1.17-4.38,1.39-10.04,1.46-2.16,.03-4.8,.06-5.86,.07-1.07,.02-4.29,0-7.17-.04-6.72-.08-8.14-.23-10.6-1.07-2.2-.76-3.41-1.49-5-3-1.12-1.07-1.89-2.07-2.49-3.23-1.17-2.27-1.64-4.12-1.92-7.6-.16-1.99-.23-14.51-.11-18.5,.13-4.1,.29-5.66,.74-7.41,.74-2.89,1.85-4.81,3.91-6.75,2.54-2.41,5.67-3.55,10.57-3.86,1.59-.1,4.69-.15,8.12-.17h0Zm2.58,4.68c-11.11,0-12.57,.09-14.94,.87-3.42,1.12-5.52,3.89-6.07,8.01-.23,1.73-.35,5.87-.34,12.3,0,10.51,.19,13.07,1.08,15.23,.55,1.33,.94,1.91,2.02,2.98,.96,.96,1.11,1.07,2.14,1.57,1.28,.62,2.58,.98,4.09,1.14,2.39,.25,13.66,.36,19.64,.19,1.78-.05,3.66-.14,4.17-.2,1.51-.17,2.84-.54,4.04-1.12,.92-.45,1.21-.65,1.97-1.37,1.24-1.18,1.86-2.13,2.37-3.65,.6-1.77,.7-2.79,.82-7.86,.11-4.71-.02-17.33-.2-18.79-.23-1.91-.7-3.44-1.42-4.7-.51-.88-2.11-2.47-3.01-2.99-.85-.49-2.36-1-3.61-1.21-1.97-.34-3.71-.39-12.74-.38h0Zm13.61,4.35c.7,0,.9,.04,1.37,.27,.7,.34,1.26,.95,1.52,1.66,.67,1.79-.33,3.66-2.2,4.1-.61,.14-.67,.14-1.23,.03-1.03-.2-1.79-.81-2.22-1.75-.7-1.55-.07-3.31,1.46-4.06,.39-.19,.62-.23,1.3-.23h0Zm-13.75,3.59c.93,0,1.86,.06,2.44,.17,5.42,1.06,9.63,5.34,10.59,10.77,.23,1.31,.24,3.48,0,4.64-.54,2.75-1.76,5.05-3.69,6.99-2.94,2.94-7.07,4.34-11.14,3.78h0c-2.92-.4-5.46-1.67-7.56-3.78-2.63-2.64-3.88-5.7-3.87-9.5,0-1.71,.13-2.54,.64-4.07,1.5-4.5,5.4-7.9,10.16-8.84,.57-.11,1.5-.17,2.43-.17h0Zm-.06,4.65c-1.29,0-1.55,.04-2.31,.27-2.86,.87-4.98,2.92-5.86,5.68-.95,2.96-.19,6.24,1.96,8.5,2.13,2.24,4.96,3.15,7.92,2.54,1.22-.25,2.03-.57,2.97-1.18,2.8-1.83,4.3-4.98,3.9-8.21-.37-3-2.24-5.62-4.89-6.84-1.34-.62-2.06-.77-3.69-.76h0Z"/></svg>