<svg width="305.32" height="305.32" version="1.1" viewBox="0 0 80.782 80.782" xmlns="http://www.w3.org/2000/svg">
 <g transform="translate(-153.13 -38.303)" fill="#fff">
  <path d="m193.52 38.303c-1.0072 7.6e-5 -2.014 0.03783-3.0184 0.11317-1.0043 0.0752-2.0055 0.18793-3.0014 0.33796-0.99609 0.15016-1.9862 0.33754-2.9683 0.56173-0.98178 0.22399-1.9548 0.48462-2.9171 0.78134-0.96261 0.29695-1.9138 0.62981-2.8515 0.99788-0.9375 0.3679-1.8609 0.77074-2.7683 1.2077-0.90751 0.43713-1.7983 0.90806-2.6706 1.4118-0.87222 0.50347-1.7253 1.0394-2.5575 1.6066-0.83219 0.56738-1.6429 1.1657-2.4303 1.7937-0.78739 0.62804-1.551 1.2853-2.2893 1.9704-0.73831 0.68505-1.4507 1.3975-2.1358 2.1358-0.68512 0.73826-1.3424 1.5019-1.9704 2.2893-0.62799 0.78747-1.2263 1.5981-1.7937 2.4303-0.56742 0.83232-1.1035 1.6856-1.6071 2.558-0.50355 0.87214-0.9743 1.7628-1.4113 2.6701-0.43694 0.90756-0.83979 1.8311-1.2077 2.7688-0.36805 0.93756-0.70091 1.8886-0.99787 2.851-0.29691 0.96246-0.55772 1.9357-0.78187 2.9176-0.224 0.98192-0.4112 1.9719-0.5612 2.9678-0.15021 0.99589-0.26311 1.997-0.33848 3.0014-0.0752 1.0044-0.11275 2.0112-0.11266 3.0184-9e-5 1.0072 0.0375 2.014 0.11266 3.0184 0.0754 1.0043 0.18827 2.0055 0.33848 3.0014 0.14999 0.99608 0.33719 1.9862 0.5612 2.9683 0.22415 0.98196 0.48496 1.9552 0.78187 2.9176 0.29696 0.96244 0.62982 1.9134 0.99787 2.851 0.36791 0.9375 0.77075 1.8609 1.2077 2.7683 0.43696 0.9075 0.90772 1.7983 1.4113 2.6706 0.50364 0.87223 1.0397 1.7253 1.6071 2.5575 0.56739 0.83219 1.1657 1.6429 1.7937 2.4303 0.62803 0.78739 1.2853 1.551 1.9704 2.2893 0.68505 0.73831 1.3975 1.4507 2.1358 2.1358 0.73825 0.68512 1.5019 1.3424 2.2893 1.9704 0.78747 0.62799 1.5982 1.2263 2.4303 1.7937 0.83215 0.56741 1.6852 1.1035 2.5575 1.6071 0.87231 0.50356 1.7631 0.97432 2.6706 1.4113 0.90739 0.43693 1.8308 0.83977 2.7683 1.2077 0.93772 0.36807 1.8889 0.70092 2.8515 0.99787 0.96229 0.29689 1.9354 0.5577 2.9171 0.78186 0.98209 0.22402 1.9722 0.41122 2.9683 0.56121 0.99589 0.15021 1.997 0.26311 3.0014 0.33848 1.0044 0.0752 2.0112 0.11275 3.0184 0.11265 1.0072 1e-4 2.014-0.0375 3.0184-0.11265 1.0043-0.0754 2.0055-0.18827 3.0014-0.33848 0.99591-0.15 1.9859-0.3372 2.9678-0.56121 0.98196-0.22415 1.9552-0.48495 2.9177-0.78186 0.96244-0.29696 1.9134-0.62982 2.851-0.99787 0.93768-0.36789 1.8613-0.77074 2.7688-1.2077 0.9075-0.43697 1.7983-0.90773 2.6706-1.4113 0.87223-0.50364 1.7253-1.0397 2.5575-1.6071 0.8322-0.56739 1.6429-1.1657 2.4304-1.7937 0.78739-0.62803 1.551-1.2853 2.2893-1.9704 0.73831-0.68505 1.4507-1.3975 2.1358-2.1358 0.68512-0.73826 1.3424-1.5019 1.9704-2.2893 0.62799-0.78747 1.2263-1.5982 1.7937-2.4303 0.56741-0.83215 1.1035-1.6852 1.6071-2.5575 0.50356-0.8723 0.97432-1.7631 1.4113-2.6706 0.43693-0.90739 0.83977-1.8308 1.2077-2.7683 0.36805-0.93756 0.70091-1.8886 0.99787-2.851 0.29674-0.96247 0.55737-1.9357 0.78135-2.9176 0.22419-0.98208 0.41156-1.9722 0.56172-2.9683 0.15021-0.99588 0.26311-1.997 0.33848-3.0014 0.0752-1.0044 0.11275-2.0112 0.11266-3.0184-1e-5 -0.34662-4e-3 -0.69322-0.0134-1.0397-9e-3 -0.34674-0.0224-0.69334-0.0403-1.0397-0.0178-0.34616-0.04-0.69208-0.0667-1.0377-0.0267-0.34576-0.0579-0.69116-0.0935-1.0361-0.0357-0.34484-0.0758-0.6892-0.12041-1.033-0.0445-0.34375-0.0934-0.68691-0.14676-1.0294-0.0533-0.34265-0.11101-0.6846-0.17312-1.0258-0.0623-0.34105-0.12894-0.68128-0.19998-1.0206-0.0709-0.33944-0.1462-0.67794-0.22583-1.0154-0.0796-0.33731-0.16346-0.67358-0.25167-1.0087-0.0884-0.33535-0.18104-0.66955-0.27801-1.0025-0.0968-0.33288-0.19797-0.6645-0.30335-0.99477-0.10549-0.33024-0.21522-0.6591-0.32917-0.98651-0.1138-0.32741-0.2318-0.65334-0.35399-0.97771-0.12227-0.32442-0.24872-0.64726-0.3793-0.96842-0.13076-0.32126-0.26564-0.64082-0.40463-0.9586-0.13873-0.31774-0.28154-0.63368-0.4284-0.94774-0.14704-0.31388-0.29812-0.62586-0.4532-0.93586-0.15501-0.3102-0.31402-0.61839-0.47697-0.92449-0.163-0.306-0.32993-0.60988-0.50075-0.91158-0.17063-0.30178-0.34514-0.60136-0.52348-0.89865-0.17861-0.29724-0.36104-0.59216-0.54725-0.8847-0.18608-0.29251-0.37593-0.58261-0.56948-0.87023-0.19338-0.28761-0.39046-0.57272-0.59118-0.85525-0.20102-0.28254-0.40568-0.56247-0.61391-0.83974-0.20799-0.27728-0.41953-0.55188-0.63459-0.82372-0.21529-0.27187-0.43407-0.54096-0.65629-0.80719-0.22208-0.26627-0.44758-0.52967-0.67644-0.79013-0.22887-0.2605-0.46109-0.51804-0.6966-0.77256-0.2355-0.25438-0.47427-0.50572-0.71624-0.75396-0.24195-0.24826-0.48709-0.49341-0.73535-0.73536-0.24824-0.24197-0.49958-0.48073-0.75396-0.71623-0.25452-0.23551-0.51206-0.46773-0.77256-0.6966-0.26047-0.22886-0.52387-0.45437-0.79014-0.67645-0.26606-0.22222-0.53497-0.441-0.80667-0.65629-0.27201-0.21506-0.54678-0.4266-0.82424-0.63458-0.27727-0.20806-0.55721-0.41254-0.83974-0.6134-0.28253-0.2009-0.56763-0.39814-0.85524-0.5917-0.28762-0.19355-0.57772-0.38339-0.87023-0.56947-0.29254-0.18621-0.58746-0.36864-0.8847-0.54726-0.29729-0.17834-0.59687-0.35285-0.89866-0.52348-0.3017-0.17082-0.60558-0.33775-0.91157-0.50074-0.3061-0.16296-0.61429-0.32196-0.92449-0.47698-0.31-0.15508-0.62197-0.30616-0.93586-0.4532-0.31406-0.14686-0.63001-0.28967-0.94775-0.4284-0.31779-0.13881-0.63735-0.27353-0.9586-0.40411-0.32116-0.13076-0.64399-0.25738-0.96841-0.37982-0.32437-0.12218-0.65031-0.24019-0.97772-0.35398-0.32741-0.11396-0.65627-0.22369-0.9865-0.32918-0.33027-0.10538-0.66189-0.2065-0.99477-0.30334-0.33297-0.09697-0.66717-0.18965-1.0025-0.27802-0.33515-0.08821-0.67141-0.1721-1.0087-0.25166-0.3375-0.07963-0.676-0.15492-1.0154-0.22583-0.33933-0.07104-0.67956-0.13771-1.0206-0.19999-0.34117-0.0621-0.68312-0.11981-1.0258-0.17311-0.34249-0.05334-0.68564-0.10226-1.0294-0.14676-0.34381-0.04457-0.68818-0.08471-1.033-0.12041-0.34495-0.03561-0.69035-0.06678-1.0361-0.0935-0.34559-0.02669-0.6915-0.04892-1.0377-0.0667-0.34639-0.0179-0.69299-0.03133-1.0397-0.0403-0.3465-0.0089-0.69311-0.0134-1.0397-0.0134zm-1.6506 19.134c3.0289-6e-3 6.0592 7e-3 9.0868 7e-3 2.7163 0 5.4285 0.16614 8.1401 0.19844 1.1445 0.0136 2.7866-0.27381 3.7724 0.41445 1.8063 1.261 3.3873 3.0963 4.7026 4.8472 0.50223 0.66846 1.1712 1.4341 1.3203 2.2831 0.29392 1.6732 0.0827 3.7401-0.86972 5.162-1.7607 2.6287-5.3298 3.1404-7.6336 0.88987-0.9821-0.95936-1.1966-2.0301-1.5896-3.2722-0.0732 3.5264-4.0544 5.6998-7.1479 4.2783-1.7298-0.79487-2.4522-2.3486-2.8789-4.0799h-0.0992c-0.26079 5.9806-10.2 5.8854-10.324-0.0992h-0.0997c-0.21324 1.6511-1.0754 3.2278-2.5807 4.038-3.1514 1.6958-7.2887-0.49255-7.4455-4.1372h-0.0992c-0.0616 2.9687-3.1975 5.2954-6.0554 4.6157-2.1277-0.50608-3.7478-2.5813-3.9543-4.715-0.0798-0.82515-0.16865-1.9762 0.0439-2.7797 0.5-1.8902 2.4776-3.7293 3.8111-5.0627 0.779-0.77901 1.6975-1.9101 2.7797-2.2614 0.75234-0.24414 1.6043-0.091 2.3823-0.12506 1.8847-0.0825 3.7694-0.0508 5.6586-0.0971 3.0234-0.0741 6.0511-0.0985 9.0801-0.10438zm-3.7197 14.004c0.65838 0.6012 1.1423 1.3564 1.8862 1.8821 1.8746 1.3248 4.5849 1.432 6.5521 0.24081 0.93771-0.56773 1.4683-1.45 2.2831-2.1229 2.2547 3.9573 7.6122 3.635 10.027 0.0997h0.19844c0.75466 1.2064 2.0119 2.1608 3.3755 2.5771 0.43809 0.13361 2.0175 0.0629 2.2092 0.43305 0.262 0.50599 0.15184 1.4869 0.17674 2.0526 0.0674 1.5244 0.19482 3.0368 0.19482 4.5666 0 4.7256 0.18884 9.4951-0.28112 14.196-0.18961 1.8969-0.35364 4.3758-1.5493 5.9511-0.51691 0.68101-1.6486 0.69093-2.4381 0.79943-1.9818 0.27231-3.9798 0.3782-5.9562 0.63769-2.1285 0.27951-4.3109 0.16623-6.4528 0.25993-5.4882 0.24033-11.007 0.0838-16.479-0.293-1.9539-0.13461-3.9231-0.29358-5.857-0.62942-0.63079-0.1096-1.631-0.11208-2.095-0.59841-1.6302-1.7083-1.5845-5.0302-1.7937-7.2192-0.63376-6.6326 0.11628-13.327 0.11628-19.953 2.3688 0.0952 4.2608-0.83553 5.6586-2.7797h0.19844c2.3061 3.3764 7.9675 4.0333 10.026-0.0997zm-3.852 5.3971c-1.2913 0.0426-2.5746 0.46478-3.4938 1.2728-2.0856 1.8334-2.8995 4.5529-3.6158 7.1293-0.62545 2.2496-1.2995 4.4891-1.881 6.7505-0.38891 1.5125-1.0634 4.0509 0.15709 5.3501 0.80717 0.85929 2.1738 0.80501 3.2551 0.80461 3.5916-1e-3 6.8393-2.6074 6.8497-6.3531l5.0627 0.49454 10.821-0.49454c0.01 3.6068 3.1303 6.3361 6.6513 6.3531 1.366 7e-3 3.1668 0.0786 3.8364-1.3896 0.78138-1.7126-0.0463-4.1657-0.53175-5.857-0.96542-3.3633-1.5879-6.9937-3.1812-10.126-0.86059-1.6918-2.1987-3.2599-4.0943-3.7569-1.4149-0.37097-3.3025-0.16262-4.5666 0.56792-0.58163 0.33613-1.1384 1.1231-1.787 1.2697-0.77175 0.17453-1.789-0.14441-2.5807-0.16381-1.9002-0.0466-3.7688 0.0802-5.6586 0.17828-0.84449 0.0438-1.6404-1.0721-2.3828-1.4433-0.84583-0.4229-1.8549-0.61964-2.8593-0.58653zm9.2129 5.1434c0.53408 0 1.1476 0.83299 1.4888 1.1741 1.222 1.2215 3.1383 2.6202 3.7724 4.2685l-2.8789-0.0992v2.5812h-4.7651v-2.5812l-2.8789 0.0992c0.63644-1.6546 2.5467-3.0433 3.7724-4.2685 0.3412-0.3411 0.95523-1.1741 1.4893-1.1741z" fill="#fff" stroke-linecap="round" stroke-linejoin="bevel" stroke-opacity=".99608" stroke-width="2.6458" style="paint-order:fill markers stroke"/>
 </g>
</svg>
