<?xml version="1.0" encoding="UTF-8"?><svg id="a" xmlns="http://www.w3.org/2000/svg" viewBox="0 0 108.74 108.74"><defs><style>.c{fill:#fff;}</style></defs><path id="b" class="c" d="M54.37,0c-1.36,0-2.71,.05-4.06,.15s-2.7,.25-4.04,.46-2.67,.45-4,.76c-1.32,.3-2.63,.65-3.93,1.05-1.3,.4-2.58,.85-3.84,1.34-1.26,.5-2.5,1.04-3.73,1.63-1.22,.59-2.42,1.22-3.6,1.9-1.17,.68-2.32,1.4-3.44,2.16-1.12,.76-2.21,1.57-3.27,2.42-1.06,.85-2.09,1.73-3.08,2.65-.99,.92-1.95,1.88-2.88,2.87-.92,.99-1.81,2.02-2.65,3.08-.85,1.06-1.65,2.15-2.41,3.27-.76,1.12-1.48,2.27-2.16,3.44-.68,1.17-1.31,2.37-1.9,3.59-.59,1.22-1.13,2.47-1.63,3.73-.5,1.26-.94,2.54-1.34,3.84-.4,1.3-.75,2.61-1.05,3.93-.3,1.32-.55,2.65-.76,4-.2,1.34-.35,2.69-.46,4.04C.05,51.66,0,53.02,0,54.37,0,55.73,.05,57.08,.15,58.43c.1,1.35,.25,2.7,.46,4.04,.2,1.34,.45,2.67,.76,4s.65,2.63,1.05,3.93c.4,1.3,.85,2.58,1.34,3.84,.5,1.26,1.04,2.51,1.63,3.73,.59,1.22,1.22,2.42,1.9,3.59s1.4,2.32,2.16,3.44c.76,1.12,1.57,2.21,2.41,3.27,.85,1.06,1.73,2.09,2.65,3.08,.92,.99,1.88,1.95,2.88,2.87,.99,.92,2.02,1.81,3.08,2.65,1.06,.85,2.15,1.65,3.27,2.42s2.27,1.48,3.44,2.16,2.37,1.31,3.6,1.9c1.22,.59,2.46,1.13,3.73,1.63,1.26,.5,2.54,.94,3.84,1.34,1.29,.4,2.6,.75,3.93,1.05,1.32,.3,2.65,.55,4,.76,1.34,.2,2.69,.35,4.04,.46,1.35,.1,2.71,.15,4.06,.15s2.71-.05,4.06-.15c1.35-.1,2.7-.25,4.04-.46,1.34-.2,2.67-.45,4-.76s2.63-.65,3.93-1.05,2.58-.85,3.84-1.34c1.26-.5,2.51-1.04,3.73-1.63,1.22-.59,2.42-1.22,3.6-1.9s2.32-1.4,3.44-2.16c1.12-.76,2.21-1.57,3.27-2.42,1.06-.85,2.09-1.73,3.08-2.65,.99-.92,1.95-1.88,2.87-2.87,.92-.99,1.81-2.02,2.65-3.08,.85-1.06,1.65-2.15,2.41-3.27,.76-1.12,1.49-2.27,2.16-3.44s1.31-2.37,1.9-3.59,1.13-2.46,1.63-3.73c.5-1.26,.94-2.54,1.34-3.84,.4-1.3,.75-2.61,1.05-3.93,.3-1.32,.55-2.65,.76-4,.2-1.34,.35-2.69,.46-4.04,.1-1.35,.15-2.71,.15-4.06,0-.47,0-.93-.02-1.4-.01-.47-.03-.93-.05-1.4-.02-.47-.05-.93-.09-1.4-.04-.47-.08-.93-.13-1.39-.05-.46-.1-.93-.16-1.39-.06-.46-.13-.92-.2-1.39-.07-.46-.15-.92-.23-1.38-.08-.46-.17-.92-.27-1.37-.1-.46-.2-.91-.3-1.37-.11-.45-.22-.91-.34-1.36s-.24-.9-.37-1.35c-.13-.45-.27-.89-.41-1.34-.14-.45-.29-.89-.44-1.33-.15-.44-.31-.88-.48-1.32s-.33-.87-.51-1.3-.36-.86-.54-1.29c-.19-.43-.38-.85-.58-1.28-.2-.42-.4-.84-.61-1.26-.21-.42-.42-.83-.64-1.24-.22-.41-.44-.82-.67-1.23-.23-.41-.46-.81-.7-1.21-.24-.4-.49-.8-.74-1.19-.25-.39-.51-.78-.77-1.17-.26-.39-.53-.77-.8-1.15-.27-.38-.55-.76-.83-1.13-.28-.37-.56-.74-.85-1.11-.29-.37-.58-.73-.88-1.09-.3-.36-.6-.71-.91-1.06-.31-.35-.62-.7-.94-1.04-.32-.34-.64-.68-.96-1.01-.33-.33-.66-.66-.99-.99-.33-.33-.67-.65-1.02-.96-.34-.32-.69-.63-1.04-.94-.35-.31-.71-.61-1.06-.91s-.72-.59-1.09-.88c-.37-.29-.74-.57-1.11-.85-.37-.28-.75-.55-1.13-.82-.38-.27-.76-.54-1.15-.8s-.78-.52-1.17-.77c-.39-.25-.79-.5-1.19-.74s-.8-.48-1.21-.71c-.41-.23-.81-.45-1.23-.67-.41-.22-.83-.43-1.24-.64-.42-.21-.84-.41-1.26-.61-.42-.2-.85-.39-1.28-.58-.43-.19-.86-.37-1.29-.54-.43-.18-.87-.35-1.3-.51-.44-.16-.88-.32-1.32-.48-.44-.15-.88-.3-1.33-.44-.44-.14-.89-.28-1.34-.41-.45-.13-.9-.26-1.35-.37s-.9-.23-1.36-.34c-.45-.11-.91-.21-1.37-.3-.46-.1-.91-.19-1.37-.27-.46-.08-.92-.16-1.38-.23-.46-.07-.92-.14-1.39-.2-.46-.06-.93-.11-1.39-.16-.46-.05-.93-.09-1.39-.13-.46-.04-.93-.07-1.4-.09-.47-.02-.93-.04-1.4-.05-.47-.01-.93-.02-1.4-.02h0Zm-2.22,25.76c4.08,0,8.16,0,12.23,0,3.66,0,7.31,.22,10.96,.27,1.54,.02,3.75-.37,5.08,.56,2.43,1.7,4.56,4.17,6.33,6.53,.68,.9,1.58,1.93,1.78,3.07,.4,2.25,.11,5.03-1.17,6.95-2.37,3.54-7.17,4.23-10.28,1.2-1.32-1.29-1.61-2.73-2.14-4.4-.1,4.75-5.46,7.67-9.62,5.76-2.33-1.07-3.3-3.16-3.88-5.49h-.13c-.35,8.05-13.73,7.92-13.9-.13h-.13c-.29,2.22-1.45,4.35-3.47,5.44-4.24,2.28-9.81-.66-10.02-5.57h-.13c-.08,4-4.3,7.13-8.15,6.21-2.86-.68-5.05-3.47-5.32-6.35-.11-1.11-.23-2.66,.06-3.74,.67-2.54,3.34-5.02,5.13-6.81,1.05-1.05,2.28-2.57,3.74-3.04,1.01-.33,2.16-.12,3.21-.17,2.54-.11,5.07-.07,7.62-.13,4.07-.1,8.15-.13,12.22-.14h0Zm-5.01,18.85c.89,.81,1.54,1.83,2.54,2.53,2.52,1.78,6.17,1.93,8.82,.32,1.26-.76,1.98-1.95,3.07-2.86,3.03,5.33,10.25,4.89,13.5,.13h.27c1.02,1.62,2.71,2.91,4.54,3.47,.59,.18,2.72,.08,2.97,.58,.35,.68,.2,2,.24,2.76,.09,2.05,.26,4.09,.26,6.15,0,6.36,.25,12.78-.38,19.11-.25,2.55-.48,5.89-2.09,8.01-.7,.92-2.22,.93-3.28,1.08-2.67,.37-5.36,.51-8.02,.86-2.86,.38-5.8,.22-8.69,.35-7.39,.32-14.82,.11-22.18-.4-2.63-.18-5.28-.4-7.88-.85-.85-.15-2.2-.15-2.82-.81-2.19-2.3-2.13-6.77-2.41-9.72-.85-8.93,.16-17.94,.16-26.86,3.19,.13,5.74-1.12,7.62-3.74h.27c3.1,4.54,10.73,5.43,13.5-.13h0Zm-5.19,7.27c-1.74,.06-3.47,.63-4.7,1.71-2.81,2.47-3.9,6.13-4.87,9.6-.84,3.03-1.75,6.04-2.53,9.09-.52,2.04-1.43,5.45,.21,7.2,1.09,1.16,2.93,1.08,4.38,1.08,4.83,0,9.21-3.51,9.22-8.55l6.81,.67,14.57-.67c.01,4.86,4.21,8.53,8.95,8.55,1.84,0,4.26,.11,5.16-1.87,1.05-2.31-.06-5.61-.72-7.88-1.3-4.53-2.14-9.41-4.28-13.63-1.16-2.28-2.96-4.39-5.51-5.06-1.9-.5-4.45-.22-6.15,.76-.78,.45-1.53,1.51-2.41,1.71-1.04,.24-2.41-.19-3.47-.22-2.56-.06-5.07,.11-7.62,.24-1.14,.06-2.21-1.44-3.21-1.94-1.14-.57-2.5-.83-3.85-.79h0Zm12.4,6.92c.72,0,1.54,1.12,2,1.58,1.64,1.64,4.22,3.53,5.08,5.75l-3.87-.13v3.47h-6.41v-3.47l-3.87,.13c.86-2.23,3.43-4.1,5.08-5.75,.46-.46,1.29-1.58,2-1.58Z"/></svg>