<?xml version="1.0" encoding="UTF-8" standalone="no"?><!DOCTYPE svg PUBLIC "-//W3C//DTD SVG 1.1//EN" "http://www.w3.org/Graphics/SVG/1.1/DTD/svg11.dtd"><svg width="100%" height="100%" viewBox="0 0 128 128" version="1.1" xmlns="http://www.w3.org/2000/svg" xmlnsXlink="http://www.w3.org/1999/xlink" xmlSpace="preserve" xmlnsSerif="http://www.serif.com/" style="fill-rule:evenodd;clip-rule:evenodd;stroke-linejoin:round;stroke-miterlimit:2;"><rect id="itch-io" x="0" y="0" width="128" height="128.002" style="fill:none;"/><clipPath id="_clip1"><rect id="itch-io1" serifId="itch-io" x="0" y="0" width="128" height="128.002"/></clipPath><g clip-path="url(#_clip1)"><path id="itch-io2" serifId="itch-io" d="M64.306,0.218c-1.596,0 -3.192,0.06 -4.783,0.179c-1.591,0.119 -3.178,0.298 -4.756,0.536c-1.578,0.238 -3.147,0.535 -4.703,0.89c-1.556,0.355 -3.098,0.768 -4.622,1.238c-1.526,0.47 -3.033,0.998 -4.519,1.581c-1.485,0.583 -2.948,1.221 -4.386,1.914c-1.438,0.692 -2.85,1.439 -4.232,2.237c-1.382,0.797 -2.733,1.647 -4.052,2.545c-1.319,0.899 -2.603,1.847 -3.851,2.843c-1.248,0.995 -2.458,2.036 -3.627,3.122c-1.17,1.085 -2.299,2.214 -3.385,3.384c-1.085,1.17 -2.127,2.38 -3.122,3.627c-0.995,1.248 -1.943,2.533 -2.842,3.851c-0.899,1.319 -1.748,2.671 -2.546,4.053c-0.798,1.382 -1.544,2.794 -2.237,4.231c-0.692,1.438 -1.33,2.902 -1.913,4.388c-0.583,1.485 -1.111,2.992 -1.581,4.517c-0.471,1.525 -0.884,3.067 -1.239,4.623c-0.355,1.556 -0.652,3.124 -0.889,4.703c-0.239,1.578 -0.417,3.164 -0.537,4.755c-0.119,1.592 -0.179,3.187 -0.178,4.783c-0,1.596 0.059,3.191 0.178,4.783c0.12,1.591 0.298,3.177 0.537,4.755c0.237,1.579 0.534,3.148 0.889,4.704c0.355,1.556 0.768,3.098 1.239,4.623c0.47,1.525 0.998,3.032 1.581,4.517c0.583,1.486 1.221,2.949 1.913,4.387c0.693,1.438 1.439,2.849 2.237,4.231c0.798,1.382 1.647,2.734 2.546,4.053c0.899,1.318 1.847,2.603 2.842,3.851c0.995,1.247 2.037,2.457 3.122,3.627c1.086,1.17 2.215,2.299 3.385,3.384c1.169,1.086 2.379,2.127 3.627,3.122c1.248,0.995 2.532,1.944 3.851,2.843c1.319,0.899 2.67,1.748 4.052,2.546c1.382,0.798 2.794,1.544 4.232,2.236c1.438,0.693 2.901,1.331 4.386,1.914c1.486,0.583 2.993,1.111 4.519,1.581c1.524,0.47 3.066,0.884 4.622,1.239c1.556,0.355 3.125,0.652 4.703,0.889c1.578,0.238 3.165,0.417 4.756,0.537c1.591,0.119 3.187,0.178 4.783,0.178c1.596,0 3.191,-0.059 4.782,-0.178c1.592,-0.12 3.178,-0.299 4.756,-0.537c1.578,-0.238 3.147,-0.534 4.703,-0.889c1.556,-0.355 3.098,-0.769 4.623,-1.239c1.525,-0.47 3.032,-0.998 4.517,-1.581c1.486,-0.583 2.949,-1.221 4.387,-1.914c1.438,-0.692 2.85,-1.438 4.232,-2.236c1.382,-0.798 2.734,-1.647 4.052,-2.546c1.319,-0.899 2.604,-1.848 3.851,-2.843c1.248,-0.995 2.458,-2.036 3.628,-3.122c1.17,-1.085 2.299,-2.214 3.384,-3.384c1.086,-1.17 2.127,-2.38 3.122,-3.627c0.995,-1.248 1.943,-2.533 2.842,-3.851c0.899,-1.319 1.749,-2.671 2.547,-4.053c0.798,-1.382 1.544,-2.793 2.236,-4.231c0.692,-1.438 1.331,-2.901 1.914,-4.387c0.583,-1.485 1.11,-2.992 1.581,-4.517c0.47,-1.525 0.883,-3.067 1.238,-4.623c0.355,-1.556 0.652,-3.125 0.89,-4.704c0.238,-1.578 0.417,-3.164 0.536,-4.755c0.119,-1.592 0.179,-3.187 0.179,-4.783c-0,-0.549 -0.008,-1.098 -0.023,-1.647c-0.015,-0.55 -0.034,-1.099 -0.064,-1.648c-0.026,-0.548 -0.063,-1.097 -0.106,-1.644c-0.042,-0.548 -0.092,-1.095 -0.148,-1.642c-0.057,-0.546 -0.12,-1.092 -0.191,-1.637c-0.07,-0.544 -0.148,-1.088 -0.232,-1.631c-0.085,-0.543 -0.176,-1.085 -0.275,-1.625c-0.098,-0.541 -0.204,-1.08 -0.316,-1.617c-0.113,-0.538 -0.232,-1.075 -0.358,-1.609c-0.126,-0.535 -0.259,-1.068 -0.399,-1.599c-0.14,-0.531 -0.287,-1.061 -0.441,-1.588c-0.153,-0.528 -0.313,-1.053 -0.48,-1.576c-0.167,-0.524 -0.341,-1.045 -0.522,-1.564c-0.18,-0.518 -0.367,-1.035 -0.561,-1.549c-0.194,-0.514 -0.394,-1.025 -0.601,-1.534c-0.207,-0.509 -0.421,-1.016 -0.641,-1.519c-0.22,-0.504 -0.446,-1.004 -0.679,-1.502c-0.232,-0.497 -0.472,-0.992 -0.718,-1.483c-0.245,-0.491 -0.497,-0.98 -0.756,-1.465c-0.258,-0.484 -0.522,-0.966 -0.793,-1.444c-0.27,-0.478 -0.547,-0.953 -0.829,-1.424c-0.284,-0.471 -0.572,-0.938 -0.868,-1.402c-0.294,-0.463 -0.595,-0.923 -0.902,-1.379c-0.306,-0.455 -0.619,-0.907 -0.937,-1.355c-0.318,-0.448 -0.642,-0.891 -0.972,-1.33c-0.33,-0.44 -0.665,-0.875 -1.006,-1.306c-0.341,-0.43 -0.688,-0.857 -1.04,-1.279c-0.352,-0.422 -0.709,-0.839 -1.072,-1.252c-0.362,-0.412 -0.73,-0.82 -1.103,-1.224c-0.373,-0.403 -0.752,-0.801 -1.135,-1.194c-0.384,-0.394 -0.772,-0.782 -1.165,-1.166c-0.394,-0.383 -0.792,-0.761 -1.195,-1.134c-0.403,-0.373 -0.812,-0.742 -1.224,-1.104c-0.413,-0.363 -0.83,-0.72 -1.252,-1.072c-0.422,-0.352 -0.848,-0.699 -1.278,-1.04c-0.431,-0.341 -0.867,-0.676 -1.306,-1.006c-0.44,-0.329 -0.883,-0.653 -1.331,-0.971c-0.448,-0.319 -0.899,-0.631 -1.355,-0.938c-0.456,-0.307 -0.916,-0.607 -1.379,-0.902c-0.464,-0.296 -0.931,-0.584 -1.402,-0.867c-0.471,-0.283 -0.946,-0.56 -1.424,-0.83c-0.478,-0.271 -0.959,-0.535 -1.444,-0.793c-0.485,-0.259 -0.974,-0.511 -1.465,-0.756c-0.491,-0.246 -0.986,-0.485 -1.483,-0.718c-0.498,-0.233 -0.998,-0.459 -1.502,-0.679c-0.503,-0.22 -1.01,-0.433 -1.519,-0.64c-0.509,-0.208 -1.02,-0.408 -1.534,-0.602c-0.514,-0.194 -1.031,-0.381 -1.549,-0.561c-0.519,-0.181 -1.04,-0.355 -1.564,-0.522c-0.523,-0.167 -1.048,-0.327 -1.576,-0.48c-0.527,-0.154 -1.057,-0.301 -1.588,-0.441c-0.531,-0.14 -1.064,-0.272 -1.599,-0.399c-0.534,-0.126 -1.071,-0.245 -1.609,-0.358c-0.537,-0.112 -1.076,-0.218 -1.617,-0.317c-0.54,-0.098 -1.082,-0.189 -1.625,-0.274c-0.543,-0.084 -1.087,-0.162 -1.631,-0.233c-0.545,-0.07 -1.091,-0.134 -1.637,-0.19c-0.547,-0.057 -1.094,-0.106 -1.642,-0.149c-0.547,-0.042 -1.095,-0.077 -1.644,-0.105c-0.549,-0.027 -1.098,-0.05 -1.647,-0.064c-0.549,-0.015 -1.099,-0.023 -1.648,-0.023l0.002,0.002Zm-2.616,30.318c4.8,-0.011 9.601,0.011 14.399,0.011c4.304,0 8.601,0.264 12.898,0.315c1.813,0.022 4.415,-0.434 5.977,0.656c2.862,1.999 5.367,4.907 7.451,7.681c0.796,1.059 1.856,2.272 2.092,3.618c0.466,2.651 0.132,5.926 -1.378,8.179c-2.789,4.165 -8.445,4.976 -12.095,1.41c-1.556,-1.52 -1.896,-3.217 -2.519,-5.185c-0.116,5.588 -6.424,9.031 -11.326,6.779c-2.741,-1.259 -3.886,-3.721 -4.562,-6.465l-0.157,0c-0.413,9.477 -16.161,9.326 -16.358,-0.157l-0.158,0c-0.338,2.616 -1.704,5.115 -4.089,6.398c-4.994,2.688 -11.55,-0.78 -11.798,-6.555l-0.157,-0c-0.098,4.704 -5.067,8.391 -9.595,7.314c-3.372,-0.802 -5.939,-4.09 -6.266,-7.471c-0.126,-1.308 -0.267,-3.132 0.07,-4.405c0.792,-2.995 3.926,-5.909 6.039,-8.022c1.234,-1.234 2.689,-3.026 4.404,-3.583c1.192,-0.387 2.542,-0.144 3.775,-0.198c2.986,-0.131 5.972,-0.08 8.966,-0.154c4.791,-0.117 9.588,-0.156 14.387,-0.165l0,-0.001Zm-5.893,22.189c1.043,0.953 1.81,2.149 2.988,2.982c2.971,2.1 7.265,2.269 10.382,0.382c1.486,-0.9 2.327,-2.298 3.618,-3.364c3.572,6.271 12.061,5.76 15.887,0.158l0.315,0c1.195,1.912 3.188,3.424 5.348,4.084c0.694,0.211 3.197,0.099 3.501,0.686c0.415,0.802 0.24,2.356 0.28,3.252c0.107,2.416 0.309,4.812 0.309,7.236c-0,7.488 0.299,15.045 -0.446,22.493c-0.3,3.006 -0.56,6.934 -2.455,9.43c-0.819,1.079 -2.612,1.095 -3.863,1.266c-3.14,0.432 -6.306,0.6 -9.438,1.011c-3.372,0.443 -6.83,0.263 -10.224,0.412c-8.696,0.381 -17.441,0.132 -26.112,-0.465c-3.096,-0.213 -6.216,-0.465 -9.28,-0.997c-1,-0.173 -2.585,-0.177 -3.32,-0.948c-2.583,-2.707 -2.51,-7.971 -2.842,-11.439c-1.004,-10.51 0.185,-21.117 0.185,-31.616c3.753,0.15 6.751,-1.324 8.966,-4.405l0.314,0c3.654,5.35 12.625,6.391 15.887,-0.158l-0,0Zm-6.104,8.552c-2.046,0.068 -4.08,0.736 -5.536,2.017c-3.305,2.905 -4.594,7.214 -5.729,11.296c-0.991,3.565 -2.059,7.113 -2.981,10.697c-0.616,2.396 -1.685,6.418 0.249,8.477c1.279,1.361 3.445,1.275 5.158,1.275c5.691,-0.002 10.837,-4.132 10.853,-10.067l8.022,0.784l17.146,-0.784c0.015,5.715 4.96,10.04 10.539,10.067c2.164,0.011 5.018,0.124 6.079,-2.202c1.238,-2.714 -0.074,-6.601 -0.843,-9.281c-1.529,-5.329 -2.516,-11.081 -5.04,-16.044c-1.364,-2.681 -3.484,-5.166 -6.488,-5.953c-2.242,-0.588 -5.233,-0.258 -7.236,0.9c-0.922,0.532 -1.804,1.779 -2.831,2.011c-1.223,0.277 -2.835,-0.228 -4.09,-0.259c-3.01,-0.074 -5.971,0.127 -8.966,0.282c-1.338,0.07 -2.599,-1.699 -3.775,-2.287c-1.341,-0.67 -2.939,-0.982 -4.531,-0.929l0,-0Zm14.598,8.15c0.846,-0 1.818,1.32 2.359,1.86c1.936,1.936 4.973,4.152 5.977,6.764l-4.561,-0.158l-0,4.09l-7.551,0l0,-4.09l-4.561,0.158c1.008,-2.622 4.035,-4.823 5.977,-6.764c0.541,-0.54 1.514,-1.86 2.36,-1.86Z" style="fill:#282a30;fill-rule:nonzero;"/></g></svg>