<?xml version="1.0" encoding="UTF-8" standalone="no"?><!DOCTYPE svg PUBLIC "-//W3C//DTD SVG 1.1//EN" "http://www.w3.org/Graphics/SVG/1.1/DTD/svg11.dtd"><svg width="100%" height="100%" viewBox="0 0 128 92" version="1.1" xmlns="http://www.w3.org/2000/svg" Xlink="http://www.w3.org/1999/xlink" Space="preserve" Serif="http://www.serif.com/" style="fill-rule:evenodd;clip-rule:evenodd;stroke-linejoin:round;stroke-miterlimit:2;"><rect id="javascript" x="0" y="0" width="127.721" height="91.043" style="fill:none;"/><clipPath id="_clip1"><rect id="javascript1" Id="javascript" x="0" y="0" width="127.721" height="91.043"/></clipPath><g clip-path="url(#_clip1)"><g id="javascript2" Id="javascript"><path id="path1298" d="M84.675,89.17c-6.053,-1.994 -12.569,-6.693 -16.588,-11.962c-1.565,-2.052 -2.843,-3.992 -2.84,-4.311c0.004,-0.32 14.742,-8.936 14.742,-8.936l1.831,2.327c2.958,3.76 5.264,5.721 8.225,6.993c1.528,0.657 4.955,1.688 7.753,1.784c3.317,0.114 6.019,-0.825 7.446,-1.554c3.117,-1.595 4.87,-4.452 4.89,-7.974c-0.382,-3.377 -0.807,-4.362 -2.579,-5.751c-1.538,-1.206 -6.849,-4.274 -12.044,-6.531c-5.196,-2.258 -11.297,-5.503 -13.558,-7.212c-5.978,-4.518 -9.498,-9.559 -10.692,-15.313c-1.745,-8.404 0.178,-16.11 5.639,-22.6c3.224,-3.832 10.677,-7.145 17.555,-7.662c22.963,-1.728 29.772,15.019 29.772,15.019c0,-0 -12.287,7.079 -14.213,7.878c0,0 -3.412,-7.545 -11.885,-6.757c-3.868,0.36 -9.124,0.752 -9.269,8.415c-0.034,1.756 1.398,4.029 2.481,5.101c1.084,1.072 5.184,4.531 10.525,6.904c14.74,6.548 18.894,11.258 21.861,15.12c4.04,5.257 6.248,12.558 3.801,21.688c-1.483,5.536 -6.794,11.219 -12.871,14.159c-4.369,2.113 -6.7,3.013 -15.493,3.232c-8.046,0.2 -14.489,-2.057 -14.489,-2.057Z" style="fill:#fff;fill-rule:nonzero;"/><path id="path1294" d="M6.616,82.326c-2.017,-2.041 -5.785,-8.905 -5.785,-8.905l14.21,-8.894c-0,-0 4.47,9.817 12.339,9.817c4.747,-0 10.285,-1.205 10.552,-9.771l-0.608,-30.086l0,-34.05l18.77,0l-0.322,35.195c-0.22,23.923 -0.869,37.293 -2.692,41c-4.264,8.675 -10.309,12.213 -14.394,13.289c-4.889,1.288 -19.794,4.827 -32.07,-7.595l-0,-0Z" style="fill:#fff;fill-rule:nonzero;"/></g></g></svg>