<?xml version="1.0" encoding="UTF-8" standalone="no"?>
<!DOCTYPE svg PUBLIC "-//W3C//DTD SVG 1.1//EN" "http://www.w3.org/Graphics/SVG/1.1/DTD/svg11.dtd">
<svg width="100%" height="100%" viewBox="0 0 66 65" version="1.1" xmlns="http://www.w3.org/2000/svg" Xlink="http://www.w3.org/1999/xlink" Space="preserve" Serif="http://www.serif.com/" style="fill-rule:evenodd;clip-rule:evenodd;stroke-linecap:round;stroke-linejoin:round;stroke-miterlimit:1.5;">
    <rect id="javascript" x="0.987" y="0.613" width="64.081" height="64.081" style="fill:none;"/>
    <clipPath id="_clip1">
        <rect id="javascript1" Id="javascript" x="0.987" y="0.613" width="64.081" height="64.081"/>
    </clipPath>
    <g clip-path="url(#_clip1)">
        <g>
            <g>
                <path id="path1298" d="M42.868,53.678C39.883,52.695 36.668,50.377 34.686,47.778C33.914,46.766 33.284,45.809 33.285,45.651C33.287,45.494 40.557,41.243 40.557,41.243L41.46,42.391C42.919,44.246 44.057,45.213 45.517,45.841C46.271,46.165 47.961,46.673 49.341,46.721C50.978,46.777 52.31,46.314 53.014,45.954C54.552,45.168 55.416,43.758 55.426,42.021C55.238,40.355 55.028,39.869 54.154,39.184C53.395,38.589 50.776,37.076 48.213,35.963C45.65,34.849 42.641,33.248 41.526,32.405C38.577,30.177 36.841,27.69 36.251,24.852C35.391,20.707 36.339,16.906 39.033,13.704C40.624,11.814 44.3,10.18 47.692,9.924C59.019,9.072 62.378,17.333 62.378,17.333C62.378,17.333 56.317,20.825 55.367,21.219C55.367,21.219 53.684,17.497 49.505,17.886C47.597,18.063 45.004,18.257 44.932,22.037C44.916,22.903 45.622,24.024 46.157,24.553C46.691,25.082 48.713,26.788 51.348,27.958C58.619,31.188 60.668,33.512 62.131,35.417C64.124,38.01 65.213,41.611 64.006,46.115C63.275,48.845 60.655,51.648 57.657,53.098C55.502,54.141 54.352,54.585 50.015,54.693C46.047,54.791 42.868,53.678 42.868,53.678Z" style="fill:white;fill-rule:nonzero;"/>
                <path id="path1294" d="M4.364,50.302C3.37,49.296 1.511,45.91 1.511,45.91L8.52,41.523C8.52,41.523 10.725,46.365 14.607,46.365C16.948,46.365 19.68,45.771 19.812,41.545L19.512,26.705L19.512,9.909L28.77,9.909L28.611,27.27C28.503,39.07 28.183,45.665 27.284,47.494C25.181,51.773 22.198,53.518 20.183,54.049C17.772,54.684 10.42,56.43 4.364,50.302L4.364,50.302Z" style="fill:white;fill-rule:nonzero;"/>
            </g>
            <rect x="1.011" y="0.317" width="64" height="64" style="fill:white;fill-opacity:0;stroke:rgb(176,68,68);stroke-opacity:0;stroke-width:0.08px;"/>
        </g>
    </g>
</svg>
