<?xml version="1.0" encoding="UTF-8" standalone="no"?><!DOCTYPE svg PUBLIC "-//W3C//DTD SVG 1.1//EN" "http://www.w3.org/Graphics/SVG/1.1/DTD/svg11.dtd"><svg width="100%" height="100%" viewBox="0 0 128 140" version="1.1" xmlns="http://www.w3.org/2000/svg" Xlink="http://www.w3.org/1999/xlink" Space="preserve" Serif="http://www.serif.com/" style="fill-rule:evenodd;clip-rule:evenodd;stroke-linejoin:round;stroke-miterlimit:2;"><rect id="java" x="0" y="0" width="128" height="139.612" style="fill:none;"/><clipPath id="_clip1"><rect id="java1" Id="java" x="0" y="0" width="128" height="139.612"/></clipPath><g clip-path="url(#_clip1)"><g id="java2" Id="java"><path id="path5724" d="M21.149,109.084c1.038,-0.446 0.239,-1.034 -2.401,-1.137c-2.64,-0.103 -7.118,0.28 -10.35,1.472c-3.231,1.192 -5.214,3.192 -6.711,5.48c-1.496,2.288 -2.505,4.863 1.005,8.316c3.511,3.452 11.548,7.787 25.957,9.521c14.41,1.733 33.504,0.547 48.624,-1.573c15.121,-2.12 24.063,-5.474 29.144,-7.901c5.08,-2.427 6.539,-4.214 6.951,-5.568c0.363,-1.191 -0.016,-2.282 -0.762,-3.365c-0.756,-1.098 -1.873,-0.996 -2.405,-0.931c-0.532,0.064 0.043,0.618 -0.139,1.527c-0.181,0.91 -1.119,2.176 -4.729,3.646c-3.611,1.47 -9.892,3.144 -19.05,4.458c-9.158,1.314 -21.19,2.268 -32.3,2.068c-11.11,-0.201 -21.298,-1.555 -28.546,-3.202c-7.249,-1.648 -11.558,-3.589 -12.916,-5.597c-1.357,-2.009 0.241,-4.083 2.478,-5.272c2.237,-1.19 5.112,-1.495 6.15,-1.942l0,0Z" style="fill:#fff;fill-rule:nonzero;"/><path id="path5700" d="M60.859,0.15c-1.193,0.902 2.665,6.349 2.699,13.438c0.025,5.235 -4.964,8.348 -9.486,12.055c-2.612,2.141 -5.174,4.621 -8.263,9.045c-3.09,4.425 -4.475,10.363 -1.805,15.478c2.67,5.115 11.694,15.507 14.409,16.232c2.714,0.725 -1.973,-5.11 -4.183,-9.534c-1.378,-2.76 -2.094,-6.237 -1.775,-8.872c0.45,-3.715 1.783,-6.392 4.936,-9.191c3.017,-2.677 7.829,-7.258 10.59,-11.022c2.359,-3.216 4.953,-9.399 3.531,-13.168c-1.317,-3.489 -1.772,-4.241 -3.915,-7.04c-2.39,-3.123 -6.738,-7.421 -6.738,-7.421Z" style="fill:#fff;fill-rule:nonzero;"/><path id="path5704" d="M83.404,31.555c-0.237,-0.884 -7.912,1.481 -10.563,3.058c-2.907,1.73 -7.678,4.58 -9.769,8.351c-2.092,3.771 -1.923,6.984 -1.027,10.143c0.896,3.159 4.023,4.542 5.061,6.206c1.039,1.665 1.235,3.123 0.829,4.943c-0.406,1.82 -4.014,5.201 -2.564,4.838c1.451,-0.363 6.059,-3.169 8.082,-6.063c2.023,-2.893 2.281,-5.943 1.531,-8.886c-0.751,-2.943 -3.832,-4.081 -4.362,-6.58c-0.53,-2.499 -0.516,-3.649 0.69,-5.777c0.439,-0.773 2.195,-3.057 4.11,-4.491c3.421,-2.56 8.134,-5.175 7.982,-5.742Z" style="fill:#fff;fill-rule:nonzero;"/><path id="path5708" d="M25.847,65.835c1.389,-0.956 3.066,-1.595 5.044,-1.808c1.977,-0.213 4.252,0.001 3.97,0.621c-0.282,0.621 -3.118,1.646 -3.747,3.235c-0.629,1.589 0.951,3.735 5.99,5.191c5.039,1.455 13.523,2.216 20.651,2.219c7.128,0.003 12.895,-0.751 18.01,-1.689c5.116,-0.939 9.579,-2.06 13.125,-3.152c3.545,-1.093 6.167,-2.154 6.405,-1.115c0.239,1.039 -1.906,4.175 -3.11,5.949c-1.203,1.774 -1.465,2.183 -2.069,2.587c-0.605,0.405 -1.552,0.803 -3.354,1.66c-1.802,0.857 -4.457,2.171 -10.175,3.43c-5.719,1.258 -14.502,2.461 -22.883,2.516c-8.38,0.055 -16.355,-1.038 -21.73,-3.008c-5.375,-1.97 -8.142,-4.813 -9.328,-7.149c-1.187,-2.336 -0.789,-4.158 -0.039,-5.707c0.75,-1.549 1.852,-2.823 3.24,-3.78l0,0Z" style="fill:#fff;fill-rule:nonzero;"/><path id="path5712" d="M33.355,85.379c-0.934,0.272 -2.804,0.818 -4.042,2.656c-1.237,1.839 -1.844,4.971 0.3,7.43c2.145,2.459 7.036,4.247 12.151,5.447c5.116,1.201 10.454,1.815 16.769,1.544c6.315,-0.271 13.604,-1.426 18.656,-2.847c5.051,-1.42 7.864,-3.105 9.953,-4.258c2.089,-1.152 3.447,-1.769 3.969,-2.315c0.522,-0.547 0.202,-1.018 -0.643,-1.923c-0.846,-0.906 -2.214,-2.242 -3.061,-3.112c-0.846,-0.87 -1.166,-1.27 -1.583,-1.259c-0.417,0.011 -0.929,0.433 -2.183,1.052c-1.253,0.618 -3.247,1.432 -7.967,2.567c-4.719,1.136 -12.165,2.593 -18.983,2.745c-6.817,0.151 -12.996,-1.001 -16.659,-2.133c-3.663,-1.131 -4.79,-2.236 -5.324,-3.208c-0.535,-0.972 -0.477,-1.816 -0.448,-2.237c0.029,-0.422 0.029,-0.422 -0.905,-0.149l0,-0Z" style="fill:#fff;fill-rule:nonzero;"/><path id="path5716" d="M57.124,109.354c6.205,-0.062 13.132,-1.12 17.76,-2.266c4.628,-1.145 6.955,-2.38 8.268,-2.813c1.314,-0.433 1.617,-0.068 2.493,1.014c0.876,1.083 2.319,2.877 3.194,3.886c0.875,1.009 1.178,1.23 -0.781,2.175c-1.958,0.945 -6.163,2.609 -12.87,4.026c-6.707,1.416 -15.907,2.581 -23.312,2.181c-7.406,-0.4 -13.012,-2.365 -16.012,-4.423c-3,-2.058 -3.389,-4.208 -3.354,-5.86c0.036,-1.652 0.494,-2.803 1.122,-3.752c0.629,-0.95 1.424,-1.694 1.797,-1.712c0.372,-0.019 0.322,0.689 1.008,1.766c0.686,1.077 2.109,2.525 5.562,3.717c3.453,1.191 8.921,2.123 15.125,2.061Z" style="fill:#fff;fill-rule:nonzero;"/><path id="path5720" d="M105.061,65.013c-0.322,-0.584 0.53,-2.581 2.475,-4.201c1.944,-1.62 4.98,-2.863 8.273,-2.805c3.293,0.057 6.842,1.413 9.16,3.515c2.318,2.102 3.406,4.947 3.34,8.827c-0.066,3.88 -1.286,8.794 -6.346,13.614c-5.06,4.821 -13.958,9.547 -18.141,10.898c-4.183,1.351 -3.646,-0.677 -0.87,-3.174c2.776,-2.496 7.789,-5.46 10.977,-9.793c3.187,-4.333 4.549,-10.033 3.319,-13.254c-1.23,-3.22 -5.051,-3.958 -7.71,-3.914c-2.659,0.045 -4.155,0.872 -4.477,0.287l0,0Z" style="fill:#fff;fill-rule:nonzero;"/><path id="path12240" d="M47.474,138.833c-3.741,-0.176 -17.476,-1.439 -17.458,-2.396c0.018,-0.942 1.32,-0.05 10.914,-0.038c9.594,0.012 27.043,-0.85 36.368,-2.069c9.325,-1.219 16.568,-2.626 25.599,-5.292c15.85,-4.68 17.605,-10.213 18.706,-10.07c1.034,0.134 0.694,8.005 -10.126,12.314c-10.456,4.163 -27.604,6.937 -34.764,7.35c-7.16,0.412 -21.456,0.566 -29.239,0.201Z" style="fill:#fff;fill-rule:nonzero;"/></g></g></svg>