<?xml version="1.0" encoding="UTF-8" standalone="no"?>
<!DOCTYPE svg PUBLIC "-//W3C//DTD SVG 1.1//EN" "http://www.w3.org/Graphics/SVG/1.1/DTD/svg11.dtd">
<svg width="100%" height="100%" viewBox="0 0 65 65" version="1.1" xmlns="http://www.w3.org/2000/svg" Xlink="http://www.w3.org/1999/xlink" Space="preserve" Serif="http://www.serif.com/" style="fill-rule:evenodd;clip-rule:evenodd;stroke-linecap:round;stroke-linejoin:round;stroke-miterlimit:1.5;">
    <rect id="java" x="0" y="0" width="64.081" height="64.081" style="fill:none;"/>
    <clipPath id="_clip1">
        <rect id="java1" Id="java" x="0" y="0" width="64.081" height="64.081"/>
    </clipPath>
    <g clip-path="url(#_clip1)">
        <g>
            <g id="java2" Id="java">
                <path id="path5724" d="M12.213,50.103C12.689,49.898 12.323,49.628 11.113,49.581C9.903,49.534 7.85,49.71 6.368,50.256C4.887,50.802 3.978,51.72 3.292,52.768C2.606,53.817 2.143,54.998 3.753,56.58C5.362,58.163 9.046,60.15 15.652,60.945C22.257,61.74 31.01,61.196 37.941,60.224C44.873,59.252 48.972,57.715 51.301,56.602C53.63,55.489 54.299,54.67 54.488,54.049C54.654,53.503 54.48,53.004 54.138,52.507C53.792,52.004 53.28,52.05 53.036,52.08C52.792,52.11 53.056,52.363 52.972,52.78C52.889,53.197 52.459,53.778 50.804,54.452C49.149,55.126 46.27,55.893 42.072,56.495C37.874,57.098 32.358,57.535 27.265,57.443C22.172,57.351 17.502,56.73 14.179,55.975C10.856,55.22 8.881,54.33 8.258,53.409C7.636,52.489 8.369,51.538 9.394,50.993C10.419,50.447 11.737,50.308 12.213,50.103L12.213,50.103Z" style="fill:white;fill-rule:nonzero;"/>
                <path id="path5700" d="M30.417,0.166C29.87,0.579 31.639,3.077 31.654,6.326C31.666,8.726 29.379,10.153 27.306,11.852C26.108,12.834 24.934,13.97 23.518,15.999C22.101,18.027 21.466,20.749 22.69,23.094C23.914,25.439 28.051,30.202 29.296,30.535C30.54,30.867 28.391,28.192 27.378,26.164C26.746,24.899 26.418,23.305 26.565,22.097C26.771,20.394 27.382,19.167 28.827,17.884C30.21,16.657 32.416,14.557 33.682,12.831C34.763,11.357 35.953,8.523 35.3,6.795C34.697,5.195 34.488,4.851 33.506,3.568C32.41,2.136 30.417,0.166 30.417,0.166Z" style="fill:white;fill-rule:nonzero;"/>
                <path id="path5704" d="M40.752,14.562C40.643,14.157 37.125,15.241 35.91,15.964C34.577,16.757 32.39,18.064 31.431,19.792C30.473,21.521 30.55,22.994 30.961,24.442C31.371,25.89 32.805,26.524 33.281,27.287C33.757,28.05 33.847,28.718 33.661,29.553C33.475,30.387 31.82,31.937 32.486,31.771C33.151,31.604 35.263,30.318 36.19,28.991C37.118,27.665 37.236,26.267 36.892,24.918C36.548,23.569 35.135,23.047 34.892,21.901C34.649,20.756 34.656,20.229 35.209,19.253C35.41,18.899 36.215,17.852 37.093,17.195C38.661,16.021 40.822,14.822 40.752,14.562Z" style="fill:white;fill-rule:nonzero;"/>
                <path id="path5708" d="M14.367,30.277C15.004,29.838 15.772,29.545 16.679,29.448C17.586,29.35 18.629,29.448 18.499,29.733C18.37,30.017 17.07,30.487 16.781,31.215C16.493,31.944 17.218,32.928 19.527,33.595C21.837,34.262 25.726,34.611 28.994,34.612C32.262,34.614 34.905,34.268 37.25,33.838C39.595,33.408 41.641,32.894 43.267,32.393C44.892,31.892 46.094,31.406 46.203,31.882C46.312,32.358 45.329,33.796 44.777,34.609C44.226,35.423 44.106,35.61 43.829,35.795C43.551,35.981 43.117,36.163 42.291,36.556C41.465,36.949 40.248,37.551 37.627,38.128C35.005,38.705 30.979,39.257 27.137,39.282C23.295,39.307 19.64,38.806 17.176,37.903C14.712,37 13.443,35.696 12.9,34.626C12.356,33.555 12.538,32.72 12.882,32.01C13.225,31.299 13.731,30.715 14.367,30.277L14.367,30.277Z" style="fill:white;fill-rule:nonzero;"/>
                <path id="path5712" d="M17.809,39.236C17.381,39.361 16.524,39.611 15.956,40.454C15.389,41.296 15.111,42.732 16.093,43.86C17.077,44.987 19.319,45.806 21.664,46.357C24.009,46.907 26.456,47.189 29.351,47.064C32.246,46.94 35.587,46.41 37.903,45.759C40.219,45.108 41.508,44.336 42.465,43.807C43.423,43.279 44.046,42.996 44.285,42.746C44.524,42.495 44.378,42.279 43.99,41.864C43.602,41.449 42.975,40.837 42.587,40.438C42.199,40.039 42.052,39.856 41.861,39.861C41.67,39.866 41.435,40.059 40.861,40.343C40.286,40.626 39.372,40.999 37.209,41.52C35.045,42.04 31.632,42.708 28.507,42.778C25.381,42.847 22.549,42.319 20.87,41.801C19.19,41.282 18.674,40.776 18.429,40.33C18.184,39.884 18.21,39.497 18.224,39.304C18.237,39.111 18.237,39.111 17.809,39.236L17.809,39.236Z" style="fill:white;fill-rule:nonzero;"/>
                <path id="path5716" d="M28.705,50.226C31.549,50.198 34.725,49.713 36.846,49.188C38.968,48.663 40.034,48.097 40.636,47.898C41.239,47.7 41.378,47.867 41.779,48.363C42.181,48.859 42.842,49.682 43.243,50.144C43.644,50.607 43.783,50.708 42.886,51.141C41.988,51.575 40.06,52.338 36.986,52.987C33.911,53.636 29.694,54.17 26.299,53.987C22.904,53.803 20.334,52.903 18.959,51.959C17.584,51.016 17.405,50.03 17.422,49.273C17.438,48.516 17.648,47.988 17.936,47.553C18.224,47.118 18.589,46.776 18.759,46.768C18.93,46.76 18.907,47.084 19.222,47.578C19.536,48.071 20.189,48.735 21.771,49.281C23.354,49.828 25.861,50.255 28.705,50.226Z" style="fill:white;fill-rule:nonzero;"/>
                <path id="path5720" d="M50.68,29.9C50.532,29.632 50.923,28.717 51.814,27.974C52.705,27.232 54.097,26.662 55.607,26.688C57.116,26.714 58.743,27.336 59.806,28.3C60.869,29.263 61.367,30.568 61.337,32.346C61.307,34.125 60.748,36.377 58.428,38.587C56.108,40.797 52.029,42.964 50.112,43.583C48.194,44.202 48.441,43.272 49.713,42.128C50.986,40.983 53.284,39.625 54.745,37.638C56.206,35.652 56.83,33.039 56.267,31.563C55.703,30.086 53.951,29.748 52.732,29.768C51.513,29.789 50.828,30.168 50.68,29.9L50.68,29.9Z" style="fill:white;fill-rule:nonzero;"/>
                <path id="path12240" d="M24.281,63.74C22.566,63.659 16.27,63.08 16.278,62.642C16.286,62.21 16.883,62.619 21.281,62.624C25.679,62.63 33.678,62.235 37.953,61.676C42.228,61.117 45.548,60.472 49.688,59.25C56.954,57.105 57.758,54.568 58.263,54.633C58.737,54.695 58.581,58.303 53.621,60.278C48.828,62.187 40.967,63.459 37.685,63.648C34.403,63.837 27.849,63.907 24.281,63.74Z" style="fill:white;fill-rule:nonzero;"/>
            </g>
            <rect x="0" y="0" width="64" height="64" style="fill:white;fill-opacity:0;stroke:rgb(176,68,68);stroke-opacity:0;stroke-width:0.08px;"/>
        </g>
    </g>
</svg>
