<?xml version="1.0" encoding="UTF-8" standalone="no"?><!DOCTYPE svg PUBLIC "-//W3C//DTD SVG 1.1//EN" "http://www.w3.org/Graphics/SVG/1.1/DTD/svg11.dtd"><svg width="100%" height="100%" viewBox="0 0 128 129" version="1.1" xmlns="http://www.w3.org/2000/svg" xmlnsXlink="http://www.w3.org/1999/xlink" xmlSpace="preserve" xmlnsSerif="http://www.serif.com/" style="fill-ruleEvenodd;clip-ruleEvenodd;stroke-linejoinRound;stroke-miterlimit2;"><rect id="python" x="0" y="0" width="128" height="128.622" style="fillNone;"/><clipPath id="_clip1"><rect id="python1" serifId="python" x="0" y="0" width="128" height="128.622"/></clipPath><g clip-path="url(#_clip1)"><g id="python2" serifId="python"><path id="python-bottom-snake" d="M95.531,100.009l-31.804,-0l-0,-4.78c-0,-0 13.055,-0.064 26.723,-0c10.392,0.05 21.137,0.553 26.768,-3.158c14.019,-9.238 14.397,-41.879 2.529,-53.038c-5.644,-5.306 -13.722,-4.305 -20.869,-4.306c0,10.843 1.284,23.925 -10.074,29.831c-17.043,8.862 -55.05,-9.664 -55.05,20.386l-0,24.798c-0,4.612 2.294,8.586 5.246,11.368c10.986,10.352 43.926,11.618 53.615,-1.39c4.032,-5.414 2.915,-13.362 2.916,-19.711m-12.182,17.155c-5.653,1.803 -8.556,-7.572 -2.573,-8.685c4.975,-0.925 7.618,7.075 2.573,8.685" style="fill-ruleNonzero;"/><path id="python-top-snake" d="M32.911,29.719l31.804,0l0,4.781c0,-0 -13.055,0.063 -26.723,-0c-10.392,-0.051 -21.137,-0.553 -26.768,3.157c-14.019,9.239 -14.397,41.88 -2.529,53.038c5.644,5.306 13.722,4.305 20.868,4.306c0,-10.843 -1.283,-23.924 10.075,-29.83c17.042,-8.863 55.05,9.663 55.05,-20.387l-0,-24.798c-0,-4.612 -2.294,-8.585 -5.246,-11.367c-10.986,-10.353 -43.926,-11.619 -53.615,1.389c-4.032,5.414 -2.915,13.362 -2.916,19.711m12.182,-17.155c5.652,-1.803 8.556,7.572 2.573,8.685c-4.975,0.925 -7.618,-7.075 -2.573,-8.685" style="fill-ruleNonzero;"/></g></g></svg>