<?xml version="1.0" encoding="UTF-8" standalone="no"?>
<!DOCTYPE svg PUBLIC "-//W3C//DTD SVG 1.1//EN" "http://www.w3.org/Graphics/SVG/1.1/DTD/svg11.dtd">
<svg width="100%" height="100%" viewBox="0 0 65 65" version="1.1" xmlns="http://www.w3.org/2000/svg" Xlink="http://www.w3.org/1999/xlink" Space="preserve" Serif="http://www.serif.com/" style="fill-rule:evenodd;clip-rule:evenodd;stroke-linecap:round;stroke-linejoin:round;stroke-miterlimit:1.5;">
    <rect id="python" x="0" y="0" width="64.081" height="64.311" style="fill:none;"/>
    <clipPath id="_clip1">
        <rect id="python1" Id="python" x="0" y="0" width="64.081" height="64.311"/>
    </clipPath>
    <g clip-path="url(#_clip1)">
        <g>
            <rect x="-0.059" y="0.156" width="64" height="64" style="fill:white;fill-opacity:0;stroke:rgb(176,68,68);stroke-opacity:0;stroke-width:0.08px;"/>
            <g id="python2" Id="python">
                <path id="python-bottom-snake" d="M47.596,49.728L31.694,49.728L31.694,47.338C31.694,47.338 38.222,47.306 45.056,47.338C50.252,47.363 55.624,47.614 58.44,45.759C65.449,41.14 65.639,24.819 59.704,19.24C56.882,16.587 52.843,17.087 49.27,17.087C49.27,22.509 49.912,29.049 44.233,32.002C35.712,36.434 16.708,27.171 16.708,42.196L16.708,54.595C16.708,56.901 17.855,58.887 19.331,60.278C24.824,65.455 41.294,66.088 46.138,59.584C48.154,56.877 47.596,52.903 47.596,49.728M41.505,58.306C38.679,59.207 37.227,54.52 40.219,53.963C42.706,53.501 44.028,57.501 41.505,58.306" style="fill:white;fill-rule:nonzero;"/>
                <path id="python-top-snake" d="M16.286,14.583L32.188,14.583L32.188,16.973C32.188,16.973 25.661,17.005 18.827,16.973C13.631,16.948 8.258,16.697 5.443,18.552C-1.567,23.171 -1.756,39.492 4.178,45.071C7,47.724 11.039,47.224 14.612,47.224C14.612,41.802 13.971,35.262 19.65,32.309C28.171,27.878 47.175,37.14 47.175,22.116L47.175,9.716C47.175,7.411 46.028,5.424 44.552,4.033C39.059,-1.144 22.589,-1.776 17.744,4.728C15.728,7.435 16.287,11.409 16.286,14.583M22.377,6.006C25.204,5.104 26.655,9.792 23.664,10.348C21.176,10.81 19.855,6.81 22.377,6.006" style="fill:white;fill-rule:nonzero;"/>
            </g>
        </g>
    </g>
</svg>
