<?xml version="1.0" encoding="UTF-8" standalone="no"?><!DOCTYPE svg PUBLIC "-//W3C//DTD SVG 1.1//EN" "http://www.w3.org/Graphics/SVG/1.1/DTD/svg11.dtd"><svg width="100%" height="100%" viewBox="0 0 135 117" version="1.1" xmlns="http://www.w3.org/2000/svg" Xlink="http://www.w3.org/1999/xlink" Space="preserve" Serif="http://www.serif.com/" style="fill-rule:evenodd;clip-rule:evenodd;stroke-linecap:round;stroke-linejoin:round;"><rect id="ruby" x="0" y="0" width="134.498" height="116.884" style="fill:none;"/><clipPath id="_clip1"><rect id="ruby1" Id="ruby" x="0" y="0" width="134.498" height="116.884"/></clipPath><g clip-path="url(#_clip1)"><g id="ruby2" Id="ruby"><g><path id="path5501" d="M81.658,29.207l-28.757,-0l14.378,-24.904l14.379,24.904Z" style="fill:#fff;fill-rule:nonzero;stroke:#fff;stroke-width:6.81px;"/><path id="use5514" d="M104.637,3.05l-25.249,0l12.624,21.867l12.625,-21.867Z" style="fill:#fff;fill-rule:nonzero;stroke:#fff;stroke-width:5.98px;"/><path id="use55141" Id="use5514" d="M55.171,3.05l-25.249,0l12.624,21.867l12.625,-21.867Z" style="fill:#fff;fill-rule:nonzero;stroke:#fff;stroke-width:5.98px;"/><path id="use5516" d="M32.192,29.207l-28.757,-0l14.379,-24.904l14.378,24.904Z" style="fill:#fff;fill-rule:nonzero;stroke:#fff;stroke-width:6.81px;"/><path id="path5518" d="M84.082,39.863l-34.159,0l17.08,73.51l17.079,-73.51Z" style="fill:#fff;fill-rule:nonzero;stroke:#fff;stroke-width:7.14px;"/><path id="path5521" d="M129.887,39.716l-32.752,0l-16.062,67.87l48.814,-67.87Z" style="fill:#fff;fill-rule:nonzero;stroke:#fff;stroke-width:6.85px;"/><path id="use5523" d="M4.671,39.716l32.753,0l16.061,67.87l-48.814,-67.87Z" style="fill:#fff;fill-rule:nonzero;stroke:#fff;stroke-width:6.85px;"/><path id="use5525" d="M32.348,29.363l-29.069,-0l14.535,-22.433l14.534,22.433Z" style="fill:#fff;fill-rule:nonzero;stroke:#fff;stroke-width:6.5px;"/><path id="use5532" d="M131.279,29.363l-29.068,-0l14.534,-22.433l14.534,22.433Z" style="fill:#fff;fill-rule:nonzero;stroke:#fff;stroke-width:6.5px;"/></g></g></g></svg>