<?xml version="1.0" encoding="UTF-8" standalone="no"?>
<!DOCTYPE svg PUBLIC "-//W3C//DTD SVG 1.1//EN" "http://www.w3.org/Graphics/SVG/1.1/DTD/svg11.dtd">
<svg width="100%" height="100%" viewBox="0 0 65 65" version="1.1" xmlns="http://www.w3.org/2000/svg" Xlink="http://www.w3.org/1999/xlink" Space="preserve" Serif="http://www.serif.com/" style="fill-rule:evenodd;clip-rule:evenodd;stroke-linecap:round;stroke-linejoin:round;">
    <rect id="ruby" x="0" y="0" width="64.081" height="64.081" style="fill:none;"/>
    <clipPath id="_clip1">
        <rect id="ruby1" Id="ruby" x="0" y="0" width="64.081" height="64.081"/>
    </clipPath>
    <g clip-path="url(#_clip1)">
        <g>
            <g id="ruby2" Id="ruby">
                <g>
                    <path id="path5501" d="M39.115,19.517L26.085,19.517L32.6,8.232L39.115,19.517Z" style="fill:white;fill-rule:nonzero;stroke:white;stroke-width:3.09px;"/>
                    <path id="use5514" d="M49.528,7.665L38.087,7.665L43.807,17.573L49.528,7.665Z" style="fill:white;fill-rule:nonzero;stroke:white;stroke-width:2.71px;"/>
                    <path id="use55141" Id="use5514" d="M27.114,7.665L15.672,7.665L21.393,17.573L27.114,7.665Z" style="fill:white;fill-rule:nonzero;stroke:white;stroke-width:2.71px;"/>
                    <path id="use5516" d="M16.701,19.517L3.671,19.517L10.186,8.232L16.701,19.517Z" style="fill:white;fill-rule:nonzero;stroke:white;stroke-width:3.09px;"/>
                    <path id="path5518" d="M40.214,24.346L24.735,24.346L32.475,57.655L40.214,24.346Z" style="fill:white;fill-rule:nonzero;stroke:white;stroke-width:3.24px;"/>
                    <path id="path5521" d="M60.969,24.279L46.128,24.279L38.851,55.033L60.969,24.279Z" style="fill:white;fill-rule:nonzero;stroke:white;stroke-width:3.1px;"/>
                    <path id="use5523" d="M4.231,24.279L19.072,24.279L26.35,55.033L4.231,24.279Z" style="fill:white;fill-rule:nonzero;stroke:white;stroke-width:3.1px;"/>
                    <path id="use5525" d="M16.772,19.588L3.6,19.588L10.186,9.423L16.772,19.588Z" style="fill:white;fill-rule:nonzero;stroke:white;stroke-width:2.94px;"/>
                    <path id="use5532" d="M61.6,19.588L48.429,19.588L55.014,9.423L61.6,19.588Z" style="fill:white;fill-rule:nonzero;stroke:white;stroke-width:2.94px;"/>
                </g>
            </g>
            <rect x="0.6" y="0.66" width="64" height="64" style="fill:white;fill-opacity:0;stroke:rgb(176,68,68);stroke-opacity:0;stroke-width:0.08px;stroke-miterlimit:1.5;"/>
        </g>
    </g>
</svg>
