<?xml version="1.0" encoding="UTF-8" standalone="no"?>
<!DOCTYPE svg PUBLIC "-//W3C//DTD SVG 1.1//EN" "http://www.w3.org/Graphics/SVG/1.1/DTD/svg11.dtd">
<svg width="100%" height="100%" viewBox="0 0 33 33" version="1.1" xmlns="http://www.w3.org/2000/svg" xmlnsXlink="http://www.w3.org/1999/xlink" xmlSpace="preserve" xmlnsSerif="http://www.serif.com/" style="fill-rule:evenodd;clip-rule:evenodd;stroke-linejoin:round;stroke-miterlimit:2;">
    <rect id="whatsapp-contact" x="0.535" y="0.781" width="32" height="32.01" style="fill:none;"/>
    <g id="whatsapp-contact1" serifId="whatsapp-contact">
        <path d="M3.421,24.539C1.949,22.165 1.1,19.37 1.1,16.38C1.1,7.771 8.142,0.781 16.817,0.781C25.492,0.781 32.535,7.771 32.535,16.38C32.535,24.99 25.492,31.98 16.817,31.98C14.041,31.98 11.433,31.264 9.168,30.009L0.535,32.781L3.421,24.539ZM10.943,8.828C10.301,9.325 9.093,10.88 9.006,11.695C8.839,13.255 9.413,16.001 11.487,18.225C12.578,19.569 13.874,21.071 15.92,22.229C17.78,23.283 19.378,24.014 20.749,24.136C21.942,24.241 23.738,23.577 24.39,22.89C24.817,22.441 25.252,20.518 24.981,20.356C24.598,20.126 21.607,18.258 21.134,18.253C20.636,18.247 19.738,20.342 18.786,20.345C17.834,20.347 17.073,19.69 15.42,18.269C14.105,17.138 13.117,15.946 12.965,14.905C13.273,14.373 14.62,13.493 14.637,12.94C14.653,12.424 13.249,8.943 12.937,8.817C12.185,8.514 11.088,8.715 10.943,8.828Z" style="fill:rgb(40,42,48);"/>
    </g>
</svg>
