<?xml version="1.0" encoding="UTF-8" standalone="no"?>
<!DOCTYPE svg PUBLIC "-//W3C//DTD SVG 1.1//EN" "http://www.w3.org/Graphics/SVG/1.1/DTD/svg11.dtd">
<svg width="100%" height="100%" viewBox="0 0 65 65" version="1.1" xmlns="http://www.w3.org/2000/svg" xmlnsXlink="http://www.w3.org/1999/xlink" xmlSpace="preserve" xmlnsSerif="http://www.serif.com/" style="fill-rule:evenodd;clip-rule:evenodd;stroke-linejoin:round;stroke-miterlimit:2;">
    <rect id="whatsapp-contact" x="0.404" y="0.352" width="64" height="64" style="fill:none;"/>
    <clipPath id="_clip1">
        <rect id="whatsapp-contact1" serifId="whatsapp-contact" x="0.404" y="0.352" width="64" height="64"/>
    </clipPath>
    <g clip-path="url(#_clip1)">
        <path d="M6.177,47.868C3.233,43.119 1.535,37.53 1.535,31.55C1.535,14.331 15.62,0.352 32.97,0.352C50.319,0.352 64.404,14.331 64.404,31.55C64.404,48.77 50.319,62.749 32.97,62.749C27.418,62.749 22.2,61.318 17.672,58.807L0.404,64.352L6.177,47.868ZM21.221,16.445C19.938,17.44 17.521,20.549 17.347,22.179C17.014,25.3 18.161,30.792 22.309,35.24C24.491,37.928 27.084,40.932 31.175,43.248C34.896,45.355 38.091,46.818 40.833,47.061C43.22,47.272 46.812,45.943 48.115,44.571C48.969,43.671 49.84,39.826 49.297,39.501C48.531,39.042 42.55,35.306 41.602,35.295C40.607,35.284 38.812,39.474 36.907,39.479C35.003,39.485 33.481,38.169 30.175,35.328C27.545,33.067 25.57,30.682 25.265,28.599C25.881,27.537 28.576,25.776 28.61,24.67C28.642,23.639 25.834,16.675 25.209,16.424C23.705,15.819 21.512,16.219 21.221,16.445Z" style="fill:rgb(40,42,48);"/>
    </g>
</svg>
